G04 #@! TF.FileFunction,Legend,Bot*
%FSLAX46Y46*%
G04 Gerber Fmt 4.6, Leading zero omitted, Abs format (unit mm)*
G04 Created by KiCad (PCBNEW 4.0.6) date 01/05/18 17:09:47*
%MOMM*%
%LPD*%
G01*
G04 APERTURE LIST*
%ADD10C,0.100000*%
%ADD11C,0.250000*%
%ADD12C,0.300000*%
%ADD13C,0.120000*%
%ADD14C,0.203200*%
%ADD15C,0.150000*%
%ADD16C,0.101600*%
G04 APERTURE END LIST*
D10*
D11*
X120391429Y-106258095D02*
X120391429Y-107020000D01*
X120772381Y-106639048D02*
X120010476Y-106639048D01*
X120772381Y-108020000D02*
X120772381Y-107448571D01*
X120772381Y-107734285D02*
X119772381Y-107734285D01*
X119915238Y-107639047D01*
X120010476Y-107543809D01*
X120058095Y-107448571D01*
X119867619Y-108400952D02*
X119820000Y-108448571D01*
X119772381Y-108543809D01*
X119772381Y-108781905D01*
X119820000Y-108877143D01*
X119867619Y-108924762D01*
X119962857Y-108972381D01*
X120058095Y-108972381D01*
X120200952Y-108924762D01*
X120772381Y-108353333D01*
X120772381Y-108972381D01*
X119772381Y-109258095D02*
X120772381Y-109591428D01*
X119772381Y-109924762D01*
X118124762Y-107429524D02*
X118172381Y-107572381D01*
X118172381Y-107810477D01*
X118124762Y-107905715D01*
X118077143Y-107953334D01*
X117981905Y-108000953D01*
X117886667Y-108000953D01*
X117791429Y-107953334D01*
X117743810Y-107905715D01*
X117696190Y-107810477D01*
X117648571Y-107620000D01*
X117600952Y-107524762D01*
X117553333Y-107477143D01*
X117458095Y-107429524D01*
X117362857Y-107429524D01*
X117267619Y-107477143D01*
X117220000Y-107524762D01*
X117172381Y-107620000D01*
X117172381Y-107858096D01*
X117220000Y-108000953D01*
X118077143Y-109000953D02*
X118124762Y-108953334D01*
X118172381Y-108810477D01*
X118172381Y-108715239D01*
X118124762Y-108572381D01*
X118029524Y-108477143D01*
X117934286Y-108429524D01*
X117743810Y-108381905D01*
X117600952Y-108381905D01*
X117410476Y-108429524D01*
X117315238Y-108477143D01*
X117220000Y-108572381D01*
X117172381Y-108715239D01*
X117172381Y-108810477D01*
X117220000Y-108953334D01*
X117267619Y-109000953D01*
X118172381Y-109905715D02*
X118172381Y-109429524D01*
X117172381Y-109429524D01*
X112120000Y-107958096D02*
X112072381Y-107862858D01*
X112072381Y-107720001D01*
X112120000Y-107577143D01*
X112215238Y-107481905D01*
X112310476Y-107434286D01*
X112500952Y-107386667D01*
X112643810Y-107386667D01*
X112834286Y-107434286D01*
X112929524Y-107481905D01*
X113024762Y-107577143D01*
X113072381Y-107720001D01*
X113072381Y-107815239D01*
X113024762Y-107958096D01*
X112977143Y-108005715D01*
X112643810Y-108005715D01*
X112643810Y-107815239D01*
X113072381Y-108434286D02*
X112072381Y-108434286D01*
X113072381Y-109005715D01*
X112072381Y-109005715D01*
X113072381Y-109481905D02*
X112072381Y-109481905D01*
X112072381Y-109720000D01*
X112120000Y-109862858D01*
X112215238Y-109958096D01*
X112310476Y-110005715D01*
X112500952Y-110053334D01*
X112643810Y-110053334D01*
X112834286Y-110005715D01*
X112929524Y-109958096D01*
X113024762Y-109862858D01*
X113072381Y-109720000D01*
X113072381Y-109481905D01*
X115224762Y-107605714D02*
X115272381Y-107748571D01*
X115272381Y-107986667D01*
X115224762Y-108081905D01*
X115177143Y-108129524D01*
X115081905Y-108177143D01*
X114986667Y-108177143D01*
X114891429Y-108129524D01*
X114843810Y-108081905D01*
X114796190Y-107986667D01*
X114748571Y-107796190D01*
X114700952Y-107700952D01*
X114653333Y-107653333D01*
X114558095Y-107605714D01*
X114462857Y-107605714D01*
X114367619Y-107653333D01*
X114320000Y-107700952D01*
X114272381Y-107796190D01*
X114272381Y-108034286D01*
X114320000Y-108177143D01*
X115272381Y-108605714D02*
X114272381Y-108605714D01*
X114272381Y-108843809D01*
X114320000Y-108986667D01*
X114415238Y-109081905D01*
X114510476Y-109129524D01*
X114700952Y-109177143D01*
X114843810Y-109177143D01*
X115034286Y-109129524D01*
X115129524Y-109081905D01*
X115224762Y-108986667D01*
X115272381Y-108843809D01*
X115272381Y-108605714D01*
X114986667Y-109558095D02*
X114986667Y-110034286D01*
X115272381Y-109462857D02*
X114272381Y-109796190D01*
X115272381Y-110129524D01*
D12*
X142734285Y-48998571D02*
X142734285Y-47498571D01*
X142734285Y-48070000D02*
X142591428Y-47998571D01*
X142305714Y-47998571D01*
X142162857Y-48070000D01*
X142091428Y-48141429D01*
X142019999Y-48284286D01*
X142019999Y-48712857D01*
X142091428Y-48855714D01*
X142162857Y-48927143D01*
X142305714Y-48998571D01*
X142591428Y-48998571D01*
X142734285Y-48927143D01*
X140805714Y-48927143D02*
X140948571Y-48998571D01*
X141234285Y-48998571D01*
X141377142Y-48927143D01*
X141448571Y-48784286D01*
X141448571Y-48212857D01*
X141377142Y-48070000D01*
X141234285Y-47998571D01*
X140948571Y-47998571D01*
X140805714Y-48070000D01*
X140734285Y-48212857D01*
X140734285Y-48355714D01*
X141448571Y-48498571D01*
X140305714Y-47998571D02*
X139734285Y-47998571D01*
X140091428Y-47498571D02*
X140091428Y-48784286D01*
X140020000Y-48927143D01*
X139877142Y-48998571D01*
X139734285Y-48998571D01*
X138591428Y-48998571D02*
X138591428Y-48212857D01*
X138662857Y-48070000D01*
X138805714Y-47998571D01*
X139091428Y-47998571D01*
X139234285Y-48070000D01*
X138591428Y-48927143D02*
X138734285Y-48998571D01*
X139091428Y-48998571D01*
X139234285Y-48927143D01*
X139305714Y-48784286D01*
X139305714Y-48641429D01*
X139234285Y-48498571D01*
X139091428Y-48427143D01*
X138734285Y-48427143D01*
X138591428Y-48355714D01*
X137877142Y-48427143D02*
X136734285Y-48427143D01*
X135234285Y-48998571D02*
X136091428Y-48998571D01*
X135662856Y-48998571D02*
X135662856Y-47498571D01*
X135805713Y-47712857D01*
X135948571Y-47855714D01*
X136091428Y-47927143D01*
D10*
X136486000Y-107626000D02*
X139534000Y-107626000D01*
X139534000Y-111309000D02*
X139534000Y-113214000D01*
X139534000Y-113214000D02*
X136486000Y-113214000D01*
X136486000Y-113214000D02*
X136486000Y-111309000D01*
X136486000Y-109658000D02*
X136486000Y-107626000D01*
X139534000Y-107626000D02*
X139534000Y-109658000D01*
D13*
X143070000Y-111570000D02*
X143070000Y-110570000D01*
X144770000Y-110570000D02*
X144770000Y-111570000D01*
X140570000Y-111570000D02*
X140570000Y-110570000D01*
X142270000Y-110570000D02*
X142270000Y-111570000D01*
X132370000Y-115740000D02*
X131370000Y-115740000D01*
X131370000Y-114040000D02*
X132370000Y-114040000D01*
X121500000Y-115020000D02*
X121500000Y-112360000D01*
X111220000Y-115020000D02*
X111220000Y-112360000D01*
X121500000Y-112360000D02*
X118390000Y-112360000D01*
X120930000Y-115020000D02*
X120930000Y-116540000D01*
X121500000Y-115020000D02*
X120930000Y-115020000D01*
X111790000Y-112360000D02*
X111220000Y-112360000D01*
X116870000Y-112360000D02*
X113310000Y-112360000D01*
X119410000Y-115020000D02*
X115850000Y-115020000D01*
X114330000Y-115020000D02*
X111220000Y-115020000D01*
D14*
X129403400Y-107232000D02*
X129403400Y-110788000D01*
X129403400Y-110788000D02*
X135956600Y-110788000D01*
X135956600Y-110788000D02*
X135956600Y-107232000D01*
X135956600Y-107232000D02*
X129403400Y-107232000D01*
D10*
X138653333Y-106805714D02*
X138691428Y-106843810D01*
X138805714Y-106881905D01*
X138881904Y-106881905D01*
X138996190Y-106843810D01*
X139072381Y-106767619D01*
X139110476Y-106691429D01*
X139148571Y-106539048D01*
X139148571Y-106424762D01*
X139110476Y-106272381D01*
X139072381Y-106196190D01*
X138996190Y-106120000D01*
X138881904Y-106081905D01*
X138805714Y-106081905D01*
X138691428Y-106120000D01*
X138653333Y-106158095D01*
X137967619Y-106348571D02*
X137967619Y-106881905D01*
X138158095Y-106043810D02*
X138348571Y-106615238D01*
X137853333Y-106615238D01*
D15*
X144186666Y-107877143D02*
X144234285Y-107924762D01*
X144377142Y-107972381D01*
X144472380Y-107972381D01*
X144615238Y-107924762D01*
X144710476Y-107829524D01*
X144758095Y-107734286D01*
X144805714Y-107543810D01*
X144805714Y-107400952D01*
X144758095Y-107210476D01*
X144710476Y-107115238D01*
X144615238Y-107020000D01*
X144472380Y-106972381D01*
X144377142Y-106972381D01*
X144234285Y-107020000D01*
X144186666Y-107067619D01*
X143853333Y-106972381D02*
X143186666Y-106972381D01*
X143615238Y-107972381D01*
X141686666Y-107777143D02*
X141734285Y-107824762D01*
X141877142Y-107872381D01*
X141972380Y-107872381D01*
X142115238Y-107824762D01*
X142210476Y-107729524D01*
X142258095Y-107634286D01*
X142305714Y-107443810D01*
X142305714Y-107300952D01*
X142258095Y-107110476D01*
X142210476Y-107015238D01*
X142115238Y-106920000D01*
X141972380Y-106872381D01*
X141877142Y-106872381D01*
X141734285Y-106920000D01*
X141686666Y-106967619D01*
X141115238Y-107300952D02*
X141210476Y-107253333D01*
X141258095Y-107205714D01*
X141305714Y-107110476D01*
X141305714Y-107062857D01*
X141258095Y-106967619D01*
X141210476Y-106920000D01*
X141115238Y-106872381D01*
X140924761Y-106872381D01*
X140829523Y-106920000D01*
X140781904Y-106967619D01*
X140734285Y-107062857D01*
X140734285Y-107110476D01*
X140781904Y-107205714D01*
X140829523Y-107253333D01*
X140924761Y-107300952D01*
X141115238Y-107300952D01*
X141210476Y-107348571D01*
X141258095Y-107396190D01*
X141305714Y-107491429D01*
X141305714Y-107681905D01*
X141258095Y-107777143D01*
X141210476Y-107824762D01*
X141115238Y-107872381D01*
X140924761Y-107872381D01*
X140829523Y-107824762D01*
X140781904Y-107777143D01*
X140734285Y-107681905D01*
X140734285Y-107491429D01*
X140781904Y-107396190D01*
X140829523Y-107348571D01*
X140924761Y-107300952D01*
X128486666Y-114377143D02*
X128534285Y-114424762D01*
X128677142Y-114472381D01*
X128772380Y-114472381D01*
X128915238Y-114424762D01*
X129010476Y-114329524D01*
X129058095Y-114234286D01*
X129105714Y-114043810D01*
X129105714Y-113900952D01*
X129058095Y-113710476D01*
X129010476Y-113615238D01*
X128915238Y-113520000D01*
X128772380Y-113472381D01*
X128677142Y-113472381D01*
X128534285Y-113520000D01*
X128486666Y-113567619D01*
X128010476Y-114472381D02*
X127820000Y-114472381D01*
X127724761Y-114424762D01*
X127677142Y-114377143D01*
X127581904Y-114234286D01*
X127534285Y-114043810D01*
X127534285Y-113662857D01*
X127581904Y-113567619D01*
X127629523Y-113520000D01*
X127724761Y-113472381D01*
X127915238Y-113472381D01*
X128010476Y-113520000D01*
X128058095Y-113567619D01*
X128105714Y-113662857D01*
X128105714Y-113900952D01*
X128058095Y-113996190D01*
X128010476Y-114043810D01*
X127915238Y-114091429D01*
X127724761Y-114091429D01*
X127629523Y-114043810D01*
X127581904Y-113996190D01*
X127534285Y-113900952D01*
X123253333Y-113472381D02*
X123253333Y-114186667D01*
X123300953Y-114329524D01*
X123396191Y-114424762D01*
X123539048Y-114472381D01*
X123634286Y-114472381D01*
X122872381Y-113472381D02*
X122253333Y-113472381D01*
X122586667Y-113853333D01*
X122443809Y-113853333D01*
X122348571Y-113900952D01*
X122300952Y-113948571D01*
X122253333Y-114043810D01*
X122253333Y-114281905D01*
X122300952Y-114377143D01*
X122348571Y-114424762D01*
X122443809Y-114472381D01*
X122729524Y-114472381D01*
X122824762Y-114424762D01*
X122872381Y-114377143D01*
D16*
X134159762Y-103894524D02*
X134159762Y-102624524D01*
X132829286Y-103773571D02*
X132889762Y-103834048D01*
X133071191Y-103894524D01*
X133192143Y-103894524D01*
X133373571Y-103834048D01*
X133494524Y-103713095D01*
X133555000Y-103592143D01*
X133615476Y-103350238D01*
X133615476Y-103168810D01*
X133555000Y-102926905D01*
X133494524Y-102805952D01*
X133373571Y-102685000D01*
X133192143Y-102624524D01*
X133071191Y-102624524D01*
X132889762Y-102685000D01*
X132829286Y-102745476D01*
X131619762Y-103894524D02*
X132345476Y-103894524D01*
X131982619Y-103894524D02*
X131982619Y-102624524D01*
X132103571Y-102805952D01*
X132224524Y-102926905D01*
X132345476Y-102987381D01*
X141388572Y-109000324D02*
X140965238Y-110270324D01*
X140541905Y-109000324D01*
X140118572Y-109786514D02*
X139150953Y-109786514D01*
X137820477Y-110270324D02*
X138243810Y-109665562D01*
X138546191Y-110270324D02*
X138546191Y-109000324D01*
X138062382Y-109000324D01*
X137941429Y-109060800D01*
X137880953Y-109121276D01*
X137820477Y-109242229D01*
X137820477Y-109423657D01*
X137880953Y-109544610D01*
X137941429Y-109605086D01*
X138062382Y-109665562D01*
X138546191Y-109665562D01*
X137276191Y-109605086D02*
X136852858Y-109605086D01*
X136671429Y-110270324D02*
X137276191Y-110270324D01*
X137276191Y-109000324D01*
X136671429Y-109000324D01*
X135461905Y-109060800D02*
X135582857Y-109000324D01*
X135764286Y-109000324D01*
X135945714Y-109060800D01*
X136066667Y-109181752D01*
X136127143Y-109302705D01*
X136187619Y-109544610D01*
X136187619Y-109726038D01*
X136127143Y-109967943D01*
X136066667Y-110088895D01*
X135945714Y-110209848D01*
X135764286Y-110270324D01*
X135643334Y-110270324D01*
X135461905Y-110209848D01*
X135401429Y-110149371D01*
X135401429Y-109726038D01*
X135643334Y-109726038D01*
X135159524Y-110391276D02*
X134191905Y-110391276D01*
X133284762Y-110270324D02*
X133889524Y-110270324D01*
X133889524Y-109000324D01*
X132861429Y-110270324D02*
X132861429Y-109000324D01*
X132559048Y-109000324D01*
X132377620Y-109060800D01*
X132256667Y-109181752D01*
X132196191Y-109302705D01*
X132135715Y-109544610D01*
X132135715Y-109726038D01*
X132196191Y-109967943D01*
X132256667Y-110088895D01*
X132377620Y-110209848D01*
X132559048Y-110270324D01*
X132861429Y-110270324D01*
X130926191Y-110270324D02*
X131651905Y-110270324D01*
X131289048Y-110270324D02*
X131289048Y-109000324D01*
X131410000Y-109181752D01*
X131530953Y-109302705D01*
X131651905Y-109363181D01*
X129716667Y-110270324D02*
X130442381Y-110270324D01*
X130079524Y-110270324D02*
X130079524Y-109000324D01*
X130200476Y-109181752D01*
X130321429Y-109302705D01*
X130442381Y-109363181D01*
X129293333Y-109000324D02*
X128446667Y-109000324D01*
X128990952Y-110270324D01*
X128023333Y-109907467D02*
X127418571Y-109907467D01*
X128144286Y-110270324D02*
X127720952Y-109000324D01*
X127297619Y-110270324D01*
X126934762Y-110209848D02*
X126753334Y-110270324D01*
X126450953Y-110270324D01*
X126330000Y-110209848D01*
X126269524Y-110149371D01*
X126209048Y-110028419D01*
X126209048Y-109907467D01*
X126269524Y-109786514D01*
X126330000Y-109726038D01*
X126450953Y-109665562D01*
X126692857Y-109605086D01*
X126813810Y-109544610D01*
X126874286Y-109484133D01*
X126934762Y-109363181D01*
X126934762Y-109242229D01*
X126874286Y-109121276D01*
X126813810Y-109060800D01*
X126692857Y-109000324D01*
X126390477Y-109000324D01*
X126209048Y-109060800D01*
X125785714Y-109000324D02*
X124999524Y-109000324D01*
X125422857Y-109484133D01*
X125241429Y-109484133D01*
X125120476Y-109544610D01*
X125060000Y-109605086D01*
X124999524Y-109726038D01*
X124999524Y-110028419D01*
X125060000Y-110149371D01*
X125120476Y-110209848D01*
X125241429Y-110270324D01*
X125604286Y-110270324D01*
X125725238Y-110209848D01*
X125785714Y-110149371D01*
X124576190Y-109000324D02*
X123790000Y-109000324D01*
X124213333Y-109484133D01*
X124031905Y-109484133D01*
X123910952Y-109544610D01*
X123850476Y-109605086D01*
X123790000Y-109726038D01*
X123790000Y-110028419D01*
X123850476Y-110149371D01*
X123910952Y-110209848D01*
X124031905Y-110270324D01*
X124394762Y-110270324D01*
X124515714Y-110209848D01*
X124576190Y-110149371D01*
X123427143Y-109000324D02*
X122701428Y-109000324D01*
X123064285Y-110270324D02*
X123064285Y-109000324D01*
X121552381Y-110270324D02*
X121975714Y-109665562D01*
X122278095Y-110270324D02*
X122278095Y-109000324D01*
X121794286Y-109000324D01*
X121673333Y-109060800D01*
X121612857Y-109121276D01*
X121552381Y-109242229D01*
X121552381Y-109423657D01*
X121612857Y-109544610D01*
X121673333Y-109605086D01*
X121794286Y-109665562D01*
X122278095Y-109665562D01*
M02*
