G04 #@! TF.FileFunction,Copper,L2,Bot,Signal*
%FSLAX46Y46*%
G04 Gerber Fmt 4.6, Leading zero omitted, Abs format (unit mm)*
G04 Created by KiCad (PCBNEW 4.0.6) date 01/05/18 17:09:47*
%MOMM*%
%LPD*%
G01*
G04 APERTURE LIST*
%ADD10C,0.100000*%
%ADD11C,0.300000*%
%ADD12C,0.600000*%
%ADD13R,2.794000X1.778000*%
%ADD14R,1.250000X1.500000*%
%ADD15R,1.500000X1.250000*%
%ADD16C,2.800000*%
%ADD17R,1.000000X2.510000*%
%ADD18C,3.500000*%
%ADD19R,1.498600X1.998980*%
%ADD20R,3.799840X1.998980*%
%ADD21C,0.500000*%
%ADD22C,0.250000*%
%ADD23C,1.000000*%
%ADD24C,0.254000*%
G04 APERTURE END LIST*
D10*
D11*
X110984286Y-108798571D02*
X110984286Y-110012857D01*
X110912857Y-110155714D01*
X110841429Y-110227143D01*
X110698572Y-110298571D01*
X110484286Y-110298571D01*
X110341429Y-110227143D01*
X110984286Y-109727143D02*
X110841429Y-109798571D01*
X110555715Y-109798571D01*
X110412857Y-109727143D01*
X110341429Y-109655714D01*
X110270000Y-109512857D01*
X110270000Y-109084286D01*
X110341429Y-108941429D01*
X110412857Y-108870000D01*
X110555715Y-108798571D01*
X110841429Y-108798571D01*
X110984286Y-108870000D01*
X111698572Y-108798571D02*
X111698572Y-109798571D01*
X111698572Y-108941429D02*
X111770000Y-108870000D01*
X111912858Y-108798571D01*
X112127143Y-108798571D01*
X112270000Y-108870000D01*
X112341429Y-109012857D01*
X112341429Y-109798571D01*
X113698572Y-109798571D02*
X113698572Y-108298571D01*
X113698572Y-109727143D02*
X113555715Y-109798571D01*
X113270001Y-109798571D01*
X113127143Y-109727143D01*
X113055715Y-109655714D01*
X112984286Y-109512857D01*
X112984286Y-109084286D01*
X113055715Y-108941429D01*
X113127143Y-108870000D01*
X113270001Y-108798571D01*
X113555715Y-108798571D01*
X113698572Y-108870000D01*
D12*
X144820000Y-116620000D03*
X139820000Y-116620000D03*
X134820000Y-116620000D03*
X129820000Y-116620000D03*
X124820000Y-116620000D03*
X117920000Y-116620000D03*
X113120000Y-116620000D03*
X109820000Y-116620000D03*
X144720000Y-114720000D03*
X144720000Y-109720000D03*
X144720000Y-104720000D03*
X144720000Y-99720000D03*
X144720000Y-94720000D03*
X144720000Y-89720000D03*
X144720000Y-84720000D03*
X144720000Y-79720000D03*
X144720000Y-74720000D03*
X144720000Y-69720000D03*
X144720000Y-64720000D03*
X144720000Y-59720000D03*
X144720000Y-54720000D03*
X109720000Y-114720000D03*
X109720000Y-109720000D03*
X109720000Y-104720000D03*
X109720000Y-99720000D03*
X109720000Y-94720000D03*
X109720000Y-89720000D03*
X109720000Y-84720000D03*
X109720000Y-79720000D03*
X109720000Y-74720000D03*
X109720000Y-69720000D03*
X109720000Y-64720000D03*
X109720000Y-59720000D03*
X109720000Y-54720000D03*
X144620000Y-45220000D03*
X139620000Y-45220000D03*
X134620000Y-45220000D03*
X129620000Y-45220000D03*
X124620000Y-45220000D03*
X119620000Y-45220000D03*
X114620000Y-45220000D03*
D13*
X138010000Y-108642000D03*
X138010000Y-112198000D03*
D14*
X143920000Y-109820000D03*
X143920000Y-112320000D03*
X141420000Y-109820000D03*
X141420000Y-112320000D03*
D15*
X130620000Y-114890000D03*
X133120000Y-114890000D03*
D16*
X138938000Y-61595000D03*
X136398000Y-59055000D03*
X141478000Y-59055000D03*
X141478000Y-64135000D03*
X136398000Y-64135000D03*
X115189000Y-61468000D03*
X117729000Y-58928000D03*
X117729000Y-64008000D03*
X112649000Y-64008000D03*
X112649000Y-58928000D03*
D17*
X120170000Y-115345000D03*
X115090000Y-115345000D03*
X117630000Y-112035000D03*
X112550000Y-112035000D03*
D18*
X124460000Y-48260000D03*
X119380000Y-53340000D03*
X129540000Y-58420000D03*
X134620000Y-53340000D03*
X129540000Y-74930000D03*
X134620000Y-69850000D03*
X124460000Y-64770000D03*
X119380000Y-69850000D03*
D19*
X134978700Y-112159600D03*
X132680000Y-112159600D03*
X130381300Y-112159600D03*
D20*
X132680000Y-105860400D03*
D12*
X109620000Y-45220000D03*
X109720000Y-49720000D03*
X144720000Y-49720000D03*
X112220000Y-78220000D03*
X115220000Y-78220000D03*
X122220000Y-78220000D03*
X125720000Y-78220000D03*
X129220000Y-78220000D03*
X133220000Y-78220000D03*
X138720000Y-78220000D03*
X142220000Y-78220000D03*
X112600000Y-106260000D03*
X124560000Y-102900000D03*
X129560000Y-106310000D03*
X124300000Y-109250000D03*
X124240000Y-107490000D03*
D21*
X141420000Y-112320000D02*
X138132000Y-112320000D01*
D22*
X138132000Y-112320000D02*
X138010000Y-112198000D01*
D21*
X112600000Y-106260000D02*
X112550000Y-106310000D01*
X112550000Y-106310000D02*
X112550000Y-112035000D01*
X143920000Y-112320000D02*
X141420000Y-112320000D01*
D22*
X141420000Y-112320000D02*
X141298000Y-112198000D01*
X129032000Y-58928000D02*
X129540000Y-58420000D01*
X135763000Y-58420000D02*
X136398000Y-59055000D01*
D21*
X130381300Y-112159600D02*
X130381300Y-109921300D01*
X130381300Y-109921300D02*
X124560000Y-104100000D01*
X124560000Y-104100000D02*
X124560000Y-102900000D01*
X130620000Y-114890000D02*
X130620000Y-112398300D01*
X130620000Y-112398300D02*
X130381300Y-112159600D01*
X120170000Y-115345000D02*
X130165000Y-115345000D01*
X130165000Y-115345000D02*
X130620000Y-114890000D01*
X130620000Y-114890000D02*
X130110000Y-114890000D01*
X132680000Y-105860400D02*
X130009600Y-105860400D01*
X130009600Y-105860400D02*
X129560000Y-106310000D01*
X132680000Y-105860400D02*
X135228400Y-105860400D01*
X135228400Y-105860400D02*
X138010000Y-108642000D01*
X143920000Y-109820000D02*
X141420000Y-109820000D01*
X141420000Y-109820000D02*
X139188000Y-109820000D01*
X139188000Y-109820000D02*
X138010000Y-108642000D01*
D23*
X134620000Y-53340000D02*
X136640000Y-53340000D01*
X136640000Y-53340000D02*
X138938000Y-55638000D01*
X138938000Y-55638000D02*
X138938000Y-61595000D01*
X115189000Y-61468000D02*
X115189000Y-57531000D01*
X115189000Y-57531000D02*
X116410000Y-56310000D01*
X116410000Y-56310000D02*
X119380000Y-53340000D01*
X115189000Y-61468000D02*
X121158000Y-61468000D01*
X121158000Y-61468000D02*
X124460000Y-64770000D01*
D22*
X124300000Y-109250000D02*
X124300000Y-109180000D01*
D21*
X115090000Y-115345000D02*
X117445000Y-115345000D01*
X117445000Y-115345000D02*
X120420000Y-112370000D01*
X120420000Y-112370000D02*
X123000000Y-112370000D01*
X123000000Y-112370000D02*
X124280000Y-111090000D01*
X124280000Y-111090000D02*
X124280000Y-109220000D01*
X124280000Y-109220000D02*
X124300000Y-109240000D01*
X124300000Y-109240000D02*
X124300000Y-110870000D01*
X117630000Y-112035000D02*
X117630000Y-108370000D01*
X117630000Y-108370000D02*
X118510000Y-107490000D01*
X118510000Y-107490000D02*
X124240000Y-107490000D01*
D24*
G36*
X145010000Y-108619973D02*
X145009090Y-108618559D01*
X144796890Y-108473569D01*
X144545000Y-108422560D01*
X143295000Y-108422560D01*
X143059683Y-108466838D01*
X142843559Y-108605910D01*
X142698569Y-108818110D01*
X142674898Y-108935000D01*
X142667038Y-108935000D01*
X142648162Y-108834683D01*
X142509090Y-108618559D01*
X142296890Y-108473569D01*
X142045000Y-108422560D01*
X140795000Y-108422560D01*
X140559683Y-108466838D01*
X140343559Y-108605910D01*
X140198569Y-108818110D01*
X140174898Y-108935000D01*
X140054440Y-108935000D01*
X140054440Y-107753000D01*
X140010162Y-107517683D01*
X139871090Y-107301559D01*
X139658890Y-107156569D01*
X139407000Y-107105560D01*
X137725139Y-107105560D01*
X135854190Y-105234610D01*
X135567075Y-105042767D01*
X135510884Y-105031590D01*
X135228400Y-104975399D01*
X135228395Y-104975400D01*
X135227360Y-104975400D01*
X135227360Y-104860910D01*
X135183082Y-104625593D01*
X135044010Y-104409469D01*
X134831810Y-104264479D01*
X134579920Y-104213470D01*
X130780080Y-104213470D01*
X130544763Y-104257748D01*
X130328639Y-104396820D01*
X130183649Y-104609020D01*
X130132640Y-104860910D01*
X130132640Y-104975400D01*
X130009600Y-104975400D01*
X129670925Y-105042767D01*
X129383810Y-105234610D01*
X129383808Y-105234613D01*
X129151165Y-105467256D01*
X129031057Y-105516883D01*
X128767808Y-105779673D01*
X128625162Y-106123201D01*
X128624838Y-106495167D01*
X128766883Y-106838943D01*
X129029673Y-107102192D01*
X129373201Y-107244838D01*
X129745167Y-107245162D01*
X130088943Y-107103117D01*
X130164259Y-107027932D01*
X130176918Y-107095207D01*
X130315990Y-107311331D01*
X130528190Y-107456321D01*
X130780080Y-107507330D01*
X134579920Y-107507330D01*
X134815237Y-107463052D01*
X135031361Y-107323980D01*
X135176351Y-107111780D01*
X135185083Y-107068662D01*
X135965560Y-107849140D01*
X135965560Y-109531000D01*
X136009838Y-109766317D01*
X136148910Y-109982441D01*
X136361110Y-110127431D01*
X136613000Y-110178440D01*
X138294861Y-110178440D01*
X138562208Y-110445787D01*
X138562210Y-110445790D01*
X138754054Y-110573975D01*
X138849326Y-110637634D01*
X139032149Y-110674000D01*
X138295750Y-110674000D01*
X138137000Y-110832750D01*
X138137000Y-112071000D01*
X139883250Y-112071000D01*
X140042000Y-111912250D01*
X140042000Y-111182691D01*
X139945327Y-110949302D01*
X139766699Y-110770673D01*
X139608151Y-110705000D01*
X140172962Y-110705000D01*
X140191838Y-110805317D01*
X140330910Y-111021441D01*
X140399006Y-111067969D01*
X140256673Y-111210302D01*
X140160000Y-111443691D01*
X140160000Y-112034250D01*
X140318750Y-112193000D01*
X141293000Y-112193000D01*
X141293000Y-112173000D01*
X141547000Y-112173000D01*
X141547000Y-112193000D01*
X142521250Y-112193000D01*
X142670000Y-112044250D01*
X142818750Y-112193000D01*
X143793000Y-112193000D01*
X143793000Y-112173000D01*
X144047000Y-112173000D01*
X144047000Y-112193000D01*
X144067000Y-112193000D01*
X144067000Y-112447000D01*
X144047000Y-112447000D01*
X144047000Y-113546250D01*
X144205750Y-113705000D01*
X144671310Y-113705000D01*
X144904699Y-113608327D01*
X145010000Y-113503025D01*
X145010000Y-117010000D01*
X121158399Y-117010000D01*
X121266431Y-116851890D01*
X121317440Y-116600000D01*
X121317440Y-116230000D01*
X130164995Y-116230000D01*
X130165000Y-116230001D01*
X130447484Y-116173810D01*
X130503675Y-116162633D01*
X130503964Y-116162440D01*
X131370000Y-116162440D01*
X131605317Y-116118162D01*
X131821441Y-115979090D01*
X131867969Y-115910994D01*
X132010302Y-116053327D01*
X132243691Y-116150000D01*
X132834250Y-116150000D01*
X132993000Y-115991250D01*
X132993000Y-115017000D01*
X133247000Y-115017000D01*
X133247000Y-115991250D01*
X133405750Y-116150000D01*
X133996309Y-116150000D01*
X134229698Y-116053327D01*
X134408327Y-115874699D01*
X134505000Y-115641310D01*
X134505000Y-115175750D01*
X134346250Y-115017000D01*
X133247000Y-115017000D01*
X132993000Y-115017000D01*
X132973000Y-115017000D01*
X132973000Y-114763000D01*
X132993000Y-114763000D01*
X132993000Y-114743000D01*
X133247000Y-114743000D01*
X133247000Y-114763000D01*
X134346250Y-114763000D01*
X134505000Y-114604250D01*
X134505000Y-114138690D01*
X134408327Y-113905301D01*
X134297115Y-113794090D01*
X134692950Y-113794090D01*
X134851700Y-113635340D01*
X134851700Y-112286600D01*
X135105700Y-112286600D01*
X135105700Y-113635340D01*
X135264450Y-113794090D01*
X135854309Y-113794090D01*
X136087698Y-113697417D01*
X136206545Y-113578571D01*
X136253301Y-113625327D01*
X136486690Y-113722000D01*
X137724250Y-113722000D01*
X137883000Y-113563250D01*
X137883000Y-112325000D01*
X138137000Y-112325000D01*
X138137000Y-113563250D01*
X138295750Y-113722000D01*
X139533310Y-113722000D01*
X139766699Y-113625327D01*
X139945327Y-113446698D01*
X140042000Y-113213309D01*
X140042000Y-112605750D01*
X140160000Y-112605750D01*
X140160000Y-113196309D01*
X140256673Y-113429698D01*
X140435301Y-113608327D01*
X140668690Y-113705000D01*
X141134250Y-113705000D01*
X141293000Y-113546250D01*
X141293000Y-112447000D01*
X141547000Y-112447000D01*
X141547000Y-113546250D01*
X141705750Y-113705000D01*
X142171310Y-113705000D01*
X142404699Y-113608327D01*
X142583327Y-113429698D01*
X142670000Y-113220451D01*
X142756673Y-113429698D01*
X142935301Y-113608327D01*
X143168690Y-113705000D01*
X143634250Y-113705000D01*
X143793000Y-113546250D01*
X143793000Y-112447000D01*
X142818750Y-112447000D01*
X142670000Y-112595750D01*
X142521250Y-112447000D01*
X141547000Y-112447000D01*
X141293000Y-112447000D01*
X140318750Y-112447000D01*
X140160000Y-112605750D01*
X140042000Y-112605750D01*
X140042000Y-112483750D01*
X139883250Y-112325000D01*
X138137000Y-112325000D01*
X137883000Y-112325000D01*
X136242650Y-112325000D01*
X136204250Y-112286600D01*
X135105700Y-112286600D01*
X134851700Y-112286600D01*
X134831700Y-112286600D01*
X134831700Y-112032600D01*
X134851700Y-112032600D01*
X134851700Y-110683860D01*
X135105700Y-110683860D01*
X135105700Y-112032600D01*
X136098350Y-112032600D01*
X136136750Y-112071000D01*
X137883000Y-112071000D01*
X137883000Y-110832750D01*
X137724250Y-110674000D01*
X136486690Y-110674000D01*
X136253301Y-110770673D01*
X136244945Y-110779029D01*
X136087698Y-110621783D01*
X135854309Y-110525110D01*
X135264450Y-110525110D01*
X135105700Y-110683860D01*
X134851700Y-110683860D01*
X134692950Y-110525110D01*
X134103091Y-110525110D01*
X133869702Y-110621783D01*
X133827700Y-110663785D01*
X133681190Y-110563679D01*
X133429300Y-110512670D01*
X131930700Y-110512670D01*
X131695383Y-110556948D01*
X131529172Y-110663902D01*
X131382490Y-110563679D01*
X131266300Y-110540150D01*
X131266300Y-109921300D01*
X131198933Y-109582625D01*
X131007090Y-109295510D01*
X131007087Y-109295508D01*
X125445000Y-103733420D01*
X125445000Y-103206822D01*
X125494838Y-103086799D01*
X125495162Y-102714833D01*
X125353117Y-102371057D01*
X125090327Y-102107808D01*
X124746799Y-101965162D01*
X124374833Y-101964838D01*
X124031057Y-102106883D01*
X123767808Y-102369673D01*
X123625162Y-102713201D01*
X123624838Y-103085167D01*
X123675000Y-103206569D01*
X123675000Y-104099995D01*
X123674999Y-104100000D01*
X123706378Y-104257748D01*
X123742367Y-104438675D01*
X123867261Y-104625593D01*
X123934210Y-104725790D01*
X129496300Y-110287879D01*
X129496300Y-110538204D01*
X129396683Y-110556948D01*
X129180559Y-110696020D01*
X129035569Y-110908220D01*
X128984560Y-111160110D01*
X128984560Y-113159090D01*
X129028838Y-113394407D01*
X129167910Y-113610531D01*
X129380110Y-113755521D01*
X129463008Y-113772308D01*
X129418559Y-113800910D01*
X129273569Y-114013110D01*
X129222560Y-114265000D01*
X129222560Y-114460000D01*
X121317440Y-114460000D01*
X121317440Y-114090000D01*
X121273162Y-113854683D01*
X121134090Y-113638559D01*
X120921890Y-113493569D01*
X120670000Y-113442560D01*
X120599019Y-113442560D01*
X120786579Y-113255000D01*
X122999995Y-113255000D01*
X123000000Y-113255001D01*
X123295058Y-113196309D01*
X123338675Y-113187633D01*
X123625790Y-112995790D01*
X124905787Y-111715792D01*
X124905790Y-111715790D01*
X125097633Y-111428675D01*
X125165000Y-111090000D01*
X125165000Y-110970546D01*
X125185000Y-110870000D01*
X125185000Y-109556822D01*
X125234838Y-109436799D01*
X125235162Y-109064833D01*
X125093117Y-108721057D01*
X124830327Y-108457808D01*
X124588841Y-108357534D01*
X124768943Y-108283117D01*
X125032192Y-108020327D01*
X125174838Y-107676799D01*
X125175162Y-107304833D01*
X125033117Y-106961057D01*
X124770327Y-106697808D01*
X124426799Y-106555162D01*
X124054833Y-106554838D01*
X123933431Y-106605000D01*
X118510005Y-106605000D01*
X118510000Y-106604999D01*
X118227516Y-106661190D01*
X118171325Y-106672367D01*
X117884210Y-106864210D01*
X117884208Y-106864213D01*
X117004210Y-107744210D01*
X116812367Y-108031325D01*
X116812367Y-108031326D01*
X116744999Y-108370000D01*
X116745000Y-108370005D01*
X116745000Y-110273156D01*
X116678559Y-110315910D01*
X116533569Y-110528110D01*
X116482560Y-110780000D01*
X116482560Y-113290000D01*
X116526838Y-113525317D01*
X116665910Y-113741441D01*
X116878110Y-113886431D01*
X117130000Y-113937440D01*
X117600980Y-113937440D01*
X117078420Y-114460000D01*
X116237440Y-114460000D01*
X116237440Y-114090000D01*
X116193162Y-113854683D01*
X116054090Y-113638559D01*
X115841890Y-113493569D01*
X115590000Y-113442560D01*
X114590000Y-113442560D01*
X114354683Y-113486838D01*
X114138559Y-113625910D01*
X113993569Y-113838110D01*
X113942560Y-114090000D01*
X113942560Y-116600000D01*
X113986838Y-116835317D01*
X114099243Y-117010000D01*
X109430000Y-117010000D01*
X109430000Y-112320750D01*
X111415000Y-112320750D01*
X111415000Y-113416309D01*
X111511673Y-113649698D01*
X111690301Y-113828327D01*
X111923690Y-113925000D01*
X112264250Y-113925000D01*
X112423000Y-113766250D01*
X112423000Y-112162000D01*
X112677000Y-112162000D01*
X112677000Y-113766250D01*
X112835750Y-113925000D01*
X113176310Y-113925000D01*
X113409699Y-113828327D01*
X113588327Y-113649698D01*
X113685000Y-113416309D01*
X113685000Y-112320750D01*
X113526250Y-112162000D01*
X112677000Y-112162000D01*
X112423000Y-112162000D01*
X111573750Y-112162000D01*
X111415000Y-112320750D01*
X109430000Y-112320750D01*
X109430000Y-110653691D01*
X111415000Y-110653691D01*
X111415000Y-111749250D01*
X111573750Y-111908000D01*
X112423000Y-111908000D01*
X112423000Y-110303750D01*
X112677000Y-110303750D01*
X112677000Y-111908000D01*
X113526250Y-111908000D01*
X113685000Y-111749250D01*
X113685000Y-110653691D01*
X113588327Y-110420302D01*
X113409699Y-110241673D01*
X113176310Y-110145000D01*
X112835750Y-110145000D01*
X112677000Y-110303750D01*
X112423000Y-110303750D01*
X112264250Y-110145000D01*
X111923690Y-110145000D01*
X111690301Y-110241673D01*
X111511673Y-110420302D01*
X111415000Y-110653691D01*
X109430000Y-110653691D01*
X109430000Y-76624528D01*
X128025077Y-76624528D01*
X128215364Y-76969271D01*
X129096591Y-77320956D01*
X130045323Y-77308641D01*
X130864636Y-76969271D01*
X131054923Y-76624528D01*
X129540000Y-75109605D01*
X128025077Y-76624528D01*
X109430000Y-76624528D01*
X109430000Y-74486591D01*
X127149044Y-74486591D01*
X127161359Y-75435323D01*
X127500729Y-76254636D01*
X127845472Y-76444923D01*
X129360395Y-74930000D01*
X129719605Y-74930000D01*
X131234528Y-76444923D01*
X131579271Y-76254636D01*
X131930956Y-75373409D01*
X131918641Y-74424677D01*
X131579271Y-73605364D01*
X131234528Y-73415077D01*
X129719605Y-74930000D01*
X129360395Y-74930000D01*
X127845472Y-73415077D01*
X127500729Y-73605364D01*
X127149044Y-74486591D01*
X109430000Y-74486591D01*
X109430000Y-73235472D01*
X128025077Y-73235472D01*
X129540000Y-74750395D01*
X131054923Y-73235472D01*
X130864636Y-72890729D01*
X129983409Y-72539044D01*
X129034677Y-72551359D01*
X128215364Y-72890729D01*
X128025077Y-73235472D01*
X109430000Y-73235472D01*
X109430000Y-70322325D01*
X116994587Y-70322325D01*
X117356916Y-71199229D01*
X118027242Y-71870726D01*
X118903513Y-72234585D01*
X119852325Y-72235413D01*
X120729229Y-71873084D01*
X121400726Y-71202758D01*
X121764585Y-70326487D01*
X121764588Y-70322325D01*
X132234587Y-70322325D01*
X132596916Y-71199229D01*
X133267242Y-71870726D01*
X134143513Y-72234585D01*
X135092325Y-72235413D01*
X135969229Y-71873084D01*
X136640726Y-71202758D01*
X137004585Y-70326487D01*
X137005413Y-69377675D01*
X136643084Y-68500771D01*
X135972758Y-67829274D01*
X135096487Y-67465415D01*
X134147675Y-67464587D01*
X133270771Y-67826916D01*
X132599274Y-68497242D01*
X132235415Y-69373513D01*
X132234587Y-70322325D01*
X121764588Y-70322325D01*
X121765413Y-69377675D01*
X121403084Y-68500771D01*
X120732758Y-67829274D01*
X119856487Y-67465415D01*
X118907675Y-67464587D01*
X118030771Y-67826916D01*
X117359274Y-68497242D01*
X116995415Y-69373513D01*
X116994587Y-70322325D01*
X109430000Y-70322325D01*
X109430000Y-65449724D01*
X111386882Y-65449724D01*
X111534455Y-65758106D01*
X112289031Y-66051405D01*
X113098409Y-66033614D01*
X113763545Y-65758106D01*
X113911118Y-65449724D01*
X116466882Y-65449724D01*
X116614455Y-65758106D01*
X117369031Y-66051405D01*
X118178409Y-66033614D01*
X118843545Y-65758106D01*
X118991118Y-65449724D01*
X117729000Y-64187605D01*
X116466882Y-65449724D01*
X113911118Y-65449724D01*
X112649000Y-64187605D01*
X111386882Y-65449724D01*
X109430000Y-65449724D01*
X109430000Y-63648031D01*
X110605595Y-63648031D01*
X110623386Y-64457409D01*
X110898894Y-65122545D01*
X111207276Y-65270118D01*
X112469395Y-64008000D01*
X111207276Y-62745882D01*
X110898894Y-62893455D01*
X110605595Y-63648031D01*
X109430000Y-63648031D01*
X109430000Y-58568031D01*
X110605595Y-58568031D01*
X110623386Y-59377409D01*
X110898894Y-60042545D01*
X111207276Y-60190118D01*
X112469395Y-58928000D01*
X111207276Y-57665882D01*
X110898894Y-57813455D01*
X110605595Y-58568031D01*
X109430000Y-58568031D01*
X109430000Y-57486276D01*
X111386882Y-57486276D01*
X112649000Y-58748395D01*
X112663142Y-58734252D01*
X112842748Y-58913858D01*
X112828605Y-58928000D01*
X112842748Y-58942143D01*
X112663142Y-59121748D01*
X112649000Y-59107605D01*
X111386882Y-60369724D01*
X111534455Y-60678106D01*
X112289031Y-60971405D01*
X113098409Y-60953614D01*
X113220048Y-60903230D01*
X113154354Y-61061438D01*
X113153648Y-61871011D01*
X113227397Y-62049496D01*
X113008969Y-61964595D01*
X112199591Y-61982386D01*
X111534455Y-62257894D01*
X111386882Y-62566276D01*
X112649000Y-63828395D01*
X112663143Y-63814253D01*
X112842748Y-63993858D01*
X112828605Y-64008000D01*
X114090724Y-65270118D01*
X114399106Y-65122545D01*
X114692405Y-64367969D01*
X114674614Y-63558591D01*
X114624230Y-63436952D01*
X114782438Y-63502646D01*
X115592011Y-63503352D01*
X115770496Y-63429603D01*
X115685595Y-63648031D01*
X115703386Y-64457409D01*
X115978894Y-65122545D01*
X116287276Y-65270118D01*
X117549395Y-64008000D01*
X117535253Y-63993858D01*
X117714858Y-63814252D01*
X117729000Y-63828395D01*
X117743142Y-63814252D01*
X117922748Y-63993858D01*
X117908605Y-64008000D01*
X119170724Y-65270118D01*
X119479106Y-65122545D01*
X119772405Y-64367969D01*
X119754614Y-63558591D01*
X119479106Y-62893455D01*
X119170725Y-62745883D01*
X119284198Y-62632410D01*
X119254788Y-62603000D01*
X120687868Y-62603000D01*
X122164306Y-64079438D01*
X122075415Y-64293513D01*
X122074587Y-65242325D01*
X122436916Y-66119229D01*
X123107242Y-66790726D01*
X123983513Y-67154585D01*
X124932325Y-67155413D01*
X125809229Y-66793084D01*
X126480726Y-66122758D01*
X126707458Y-65576724D01*
X135135882Y-65576724D01*
X135283455Y-65885106D01*
X136038031Y-66178405D01*
X136847409Y-66160614D01*
X137512545Y-65885106D01*
X137660118Y-65576724D01*
X140215882Y-65576724D01*
X140363455Y-65885106D01*
X141118031Y-66178405D01*
X141927409Y-66160614D01*
X142592545Y-65885106D01*
X142740118Y-65576724D01*
X141478000Y-64314605D01*
X140215882Y-65576724D01*
X137660118Y-65576724D01*
X136398000Y-64314605D01*
X135135882Y-65576724D01*
X126707458Y-65576724D01*
X126844585Y-65246487D01*
X126845413Y-64297675D01*
X126629462Y-63775031D01*
X134354595Y-63775031D01*
X134372386Y-64584409D01*
X134647894Y-65249545D01*
X134956276Y-65397118D01*
X136218395Y-64135000D01*
X134956276Y-62872882D01*
X134647894Y-63020455D01*
X134354595Y-63775031D01*
X126629462Y-63775031D01*
X126483084Y-63420771D01*
X125812758Y-62749274D01*
X124936487Y-62385415D01*
X123987675Y-62384587D01*
X123769760Y-62474628D01*
X121960566Y-60665434D01*
X121592346Y-60419397D01*
X121158000Y-60333000D01*
X119254788Y-60333000D01*
X119284198Y-60303590D01*
X119170725Y-60190117D01*
X119328683Y-60114528D01*
X128025077Y-60114528D01*
X128215364Y-60459271D01*
X129096591Y-60810956D01*
X130045323Y-60798641D01*
X130864636Y-60459271D01*
X131054923Y-60114528D01*
X129540000Y-58599605D01*
X128025077Y-60114528D01*
X119328683Y-60114528D01*
X119479106Y-60042545D01*
X119772405Y-59287969D01*
X119754614Y-58478591D01*
X119546680Y-57976591D01*
X127149044Y-57976591D01*
X127161359Y-58925323D01*
X127500729Y-59744636D01*
X127845472Y-59934923D01*
X129360395Y-58420000D01*
X129719605Y-58420000D01*
X131234528Y-59934923D01*
X131579271Y-59744636D01*
X131930956Y-58863409D01*
X131928771Y-58695031D01*
X134354595Y-58695031D01*
X134372386Y-59504409D01*
X134647894Y-60169545D01*
X134956276Y-60317118D01*
X136218395Y-59055000D01*
X134956276Y-57792882D01*
X134647894Y-57940455D01*
X134354595Y-58695031D01*
X131928771Y-58695031D01*
X131918641Y-57914677D01*
X131579271Y-57095364D01*
X131234528Y-56905077D01*
X129719605Y-58420000D01*
X129360395Y-58420000D01*
X127845472Y-56905077D01*
X127500729Y-57095364D01*
X127149044Y-57976591D01*
X119546680Y-57976591D01*
X119479106Y-57813455D01*
X119170724Y-57665882D01*
X117908605Y-58928000D01*
X117922748Y-58942142D01*
X117743142Y-59121748D01*
X117729000Y-59107605D01*
X117714858Y-59121748D01*
X117535252Y-58942142D01*
X117549395Y-58928000D01*
X117535252Y-58913858D01*
X117714858Y-58734252D01*
X117729000Y-58748395D01*
X118991118Y-57486276D01*
X118843545Y-57177894D01*
X118088969Y-56884595D01*
X117425963Y-56899169D01*
X117599660Y-56725472D01*
X128025077Y-56725472D01*
X129540000Y-58240395D01*
X131054923Y-56725472D01*
X130864636Y-56380729D01*
X129983409Y-56029044D01*
X129034677Y-56041359D01*
X128215364Y-56380729D01*
X128025077Y-56725472D01*
X117599660Y-56725472D01*
X118689438Y-55635694D01*
X118903513Y-55724585D01*
X119852325Y-55725413D01*
X120729229Y-55363084D01*
X121400726Y-54692758D01*
X121764585Y-53816487D01*
X121764588Y-53812325D01*
X132234587Y-53812325D01*
X132596916Y-54689229D01*
X133267242Y-55360726D01*
X134143513Y-55724585D01*
X135092325Y-55725413D01*
X135969229Y-55363084D01*
X136514066Y-54819198D01*
X137803000Y-56108132D01*
X137803000Y-57529212D01*
X137773590Y-57499802D01*
X137660117Y-57613275D01*
X137512545Y-57304894D01*
X136757969Y-57011595D01*
X135948591Y-57029386D01*
X135283455Y-57304894D01*
X135135882Y-57613276D01*
X136398000Y-58875395D01*
X136412142Y-58861252D01*
X136591748Y-59040858D01*
X136577605Y-59055000D01*
X136591748Y-59069143D01*
X136412142Y-59248748D01*
X136398000Y-59234605D01*
X135135882Y-60496724D01*
X135283455Y-60805106D01*
X136038031Y-61098405D01*
X136847409Y-61080614D01*
X136969048Y-61030230D01*
X136903354Y-61188438D01*
X136902648Y-61998011D01*
X136976397Y-62176496D01*
X136757969Y-62091595D01*
X135948591Y-62109386D01*
X135283455Y-62384894D01*
X135135882Y-62693276D01*
X136398000Y-63955395D01*
X136412143Y-63941253D01*
X136591748Y-64120858D01*
X136577605Y-64135000D01*
X137839724Y-65397118D01*
X138148106Y-65249545D01*
X138441405Y-64494969D01*
X138423614Y-63685591D01*
X138373230Y-63563952D01*
X138531438Y-63629646D01*
X139341011Y-63630352D01*
X139519496Y-63556603D01*
X139434595Y-63775031D01*
X139452386Y-64584409D01*
X139727894Y-65249545D01*
X140036276Y-65397118D01*
X141298395Y-64135000D01*
X141657605Y-64135000D01*
X142919724Y-65397118D01*
X143228106Y-65249545D01*
X143521405Y-64494969D01*
X143503614Y-63685591D01*
X143228106Y-63020455D01*
X142919724Y-62872882D01*
X141657605Y-64135000D01*
X141298395Y-64135000D01*
X141284253Y-64120858D01*
X141463858Y-63941252D01*
X141478000Y-63955395D01*
X142740118Y-62693276D01*
X142592545Y-62384894D01*
X141837969Y-62091595D01*
X141028591Y-62109386D01*
X140906952Y-62159770D01*
X140972646Y-62001562D01*
X140973352Y-61191989D01*
X140899603Y-61013504D01*
X141118031Y-61098405D01*
X141927409Y-61080614D01*
X142592545Y-60805106D01*
X142740118Y-60496724D01*
X141478000Y-59234605D01*
X141463858Y-59248748D01*
X141284252Y-59069142D01*
X141298395Y-59055000D01*
X141657605Y-59055000D01*
X142919724Y-60317118D01*
X143228106Y-60169545D01*
X143521405Y-59414969D01*
X143503614Y-58605591D01*
X143228106Y-57940455D01*
X142919724Y-57792882D01*
X141657605Y-59055000D01*
X141298395Y-59055000D01*
X141284252Y-59040858D01*
X141463858Y-58861252D01*
X141478000Y-58875395D01*
X142740118Y-57613276D01*
X142592545Y-57304894D01*
X141837969Y-57011595D01*
X141028591Y-57029386D01*
X140363455Y-57304894D01*
X140215883Y-57613275D01*
X140102410Y-57499802D01*
X140073000Y-57529212D01*
X140073000Y-55638000D01*
X139986603Y-55203654D01*
X139740566Y-54835434D01*
X137442566Y-52537434D01*
X137074346Y-52291397D01*
X136739804Y-52224852D01*
X136643084Y-51990771D01*
X135972758Y-51319274D01*
X135096487Y-50955415D01*
X134147675Y-50954587D01*
X133270771Y-51316916D01*
X132599274Y-51987242D01*
X132235415Y-52863513D01*
X132234587Y-53812325D01*
X121764588Y-53812325D01*
X121765413Y-52867675D01*
X121403084Y-51990771D01*
X120732758Y-51319274D01*
X119856487Y-50955415D01*
X118907675Y-50954587D01*
X118030771Y-51316916D01*
X117359274Y-51987242D01*
X116995415Y-52863513D01*
X116994587Y-53812325D01*
X117084628Y-54030240D01*
X114386434Y-56728434D01*
X114140397Y-57096654D01*
X114075367Y-57423579D01*
X114024590Y-57372802D01*
X113911117Y-57486275D01*
X113763545Y-57177894D01*
X113008969Y-56884595D01*
X112199591Y-56902386D01*
X111534455Y-57177894D01*
X111386882Y-57486276D01*
X109430000Y-57486276D01*
X109430000Y-48732325D01*
X122074587Y-48732325D01*
X122436916Y-49609229D01*
X123107242Y-50280726D01*
X123983513Y-50644585D01*
X124932325Y-50645413D01*
X125809229Y-50283084D01*
X126480726Y-49612758D01*
X126844585Y-48736487D01*
X126845413Y-47787675D01*
X126483084Y-46910771D01*
X125812758Y-46239274D01*
X124936487Y-45875415D01*
X123987675Y-45874587D01*
X123110771Y-46236916D01*
X122439274Y-46907242D01*
X122075415Y-47783513D01*
X122074587Y-48732325D01*
X109430000Y-48732325D01*
X109430000Y-44430000D01*
X145010000Y-44430000D01*
X145010000Y-108619973D01*
X145010000Y-108619973D01*
G37*
X145010000Y-108619973D02*
X145009090Y-108618559D01*
X144796890Y-108473569D01*
X144545000Y-108422560D01*
X143295000Y-108422560D01*
X143059683Y-108466838D01*
X142843559Y-108605910D01*
X142698569Y-108818110D01*
X142674898Y-108935000D01*
X142667038Y-108935000D01*
X142648162Y-108834683D01*
X142509090Y-108618559D01*
X142296890Y-108473569D01*
X142045000Y-108422560D01*
X140795000Y-108422560D01*
X140559683Y-108466838D01*
X140343559Y-108605910D01*
X140198569Y-108818110D01*
X140174898Y-108935000D01*
X140054440Y-108935000D01*
X140054440Y-107753000D01*
X140010162Y-107517683D01*
X139871090Y-107301559D01*
X139658890Y-107156569D01*
X139407000Y-107105560D01*
X137725139Y-107105560D01*
X135854190Y-105234610D01*
X135567075Y-105042767D01*
X135510884Y-105031590D01*
X135228400Y-104975399D01*
X135228395Y-104975400D01*
X135227360Y-104975400D01*
X135227360Y-104860910D01*
X135183082Y-104625593D01*
X135044010Y-104409469D01*
X134831810Y-104264479D01*
X134579920Y-104213470D01*
X130780080Y-104213470D01*
X130544763Y-104257748D01*
X130328639Y-104396820D01*
X130183649Y-104609020D01*
X130132640Y-104860910D01*
X130132640Y-104975400D01*
X130009600Y-104975400D01*
X129670925Y-105042767D01*
X129383810Y-105234610D01*
X129383808Y-105234613D01*
X129151165Y-105467256D01*
X129031057Y-105516883D01*
X128767808Y-105779673D01*
X128625162Y-106123201D01*
X128624838Y-106495167D01*
X128766883Y-106838943D01*
X129029673Y-107102192D01*
X129373201Y-107244838D01*
X129745167Y-107245162D01*
X130088943Y-107103117D01*
X130164259Y-107027932D01*
X130176918Y-107095207D01*
X130315990Y-107311331D01*
X130528190Y-107456321D01*
X130780080Y-107507330D01*
X134579920Y-107507330D01*
X134815237Y-107463052D01*
X135031361Y-107323980D01*
X135176351Y-107111780D01*
X135185083Y-107068662D01*
X135965560Y-107849140D01*
X135965560Y-109531000D01*
X136009838Y-109766317D01*
X136148910Y-109982441D01*
X136361110Y-110127431D01*
X136613000Y-110178440D01*
X138294861Y-110178440D01*
X138562208Y-110445787D01*
X138562210Y-110445790D01*
X138754054Y-110573975D01*
X138849326Y-110637634D01*
X139032149Y-110674000D01*
X138295750Y-110674000D01*
X138137000Y-110832750D01*
X138137000Y-112071000D01*
X139883250Y-112071000D01*
X140042000Y-111912250D01*
X140042000Y-111182691D01*
X139945327Y-110949302D01*
X139766699Y-110770673D01*
X139608151Y-110705000D01*
X140172962Y-110705000D01*
X140191838Y-110805317D01*
X140330910Y-111021441D01*
X140399006Y-111067969D01*
X140256673Y-111210302D01*
X140160000Y-111443691D01*
X140160000Y-112034250D01*
X140318750Y-112193000D01*
X141293000Y-112193000D01*
X141293000Y-112173000D01*
X141547000Y-112173000D01*
X141547000Y-112193000D01*
X142521250Y-112193000D01*
X142670000Y-112044250D01*
X142818750Y-112193000D01*
X143793000Y-112193000D01*
X143793000Y-112173000D01*
X144047000Y-112173000D01*
X144047000Y-112193000D01*
X144067000Y-112193000D01*
X144067000Y-112447000D01*
X144047000Y-112447000D01*
X144047000Y-113546250D01*
X144205750Y-113705000D01*
X144671310Y-113705000D01*
X144904699Y-113608327D01*
X145010000Y-113503025D01*
X145010000Y-117010000D01*
X121158399Y-117010000D01*
X121266431Y-116851890D01*
X121317440Y-116600000D01*
X121317440Y-116230000D01*
X130164995Y-116230000D01*
X130165000Y-116230001D01*
X130447484Y-116173810D01*
X130503675Y-116162633D01*
X130503964Y-116162440D01*
X131370000Y-116162440D01*
X131605317Y-116118162D01*
X131821441Y-115979090D01*
X131867969Y-115910994D01*
X132010302Y-116053327D01*
X132243691Y-116150000D01*
X132834250Y-116150000D01*
X132993000Y-115991250D01*
X132993000Y-115017000D01*
X133247000Y-115017000D01*
X133247000Y-115991250D01*
X133405750Y-116150000D01*
X133996309Y-116150000D01*
X134229698Y-116053327D01*
X134408327Y-115874699D01*
X134505000Y-115641310D01*
X134505000Y-115175750D01*
X134346250Y-115017000D01*
X133247000Y-115017000D01*
X132993000Y-115017000D01*
X132973000Y-115017000D01*
X132973000Y-114763000D01*
X132993000Y-114763000D01*
X132993000Y-114743000D01*
X133247000Y-114743000D01*
X133247000Y-114763000D01*
X134346250Y-114763000D01*
X134505000Y-114604250D01*
X134505000Y-114138690D01*
X134408327Y-113905301D01*
X134297115Y-113794090D01*
X134692950Y-113794090D01*
X134851700Y-113635340D01*
X134851700Y-112286600D01*
X135105700Y-112286600D01*
X135105700Y-113635340D01*
X135264450Y-113794090D01*
X135854309Y-113794090D01*
X136087698Y-113697417D01*
X136206545Y-113578571D01*
X136253301Y-113625327D01*
X136486690Y-113722000D01*
X137724250Y-113722000D01*
X137883000Y-113563250D01*
X137883000Y-112325000D01*
X138137000Y-112325000D01*
X138137000Y-113563250D01*
X138295750Y-113722000D01*
X139533310Y-113722000D01*
X139766699Y-113625327D01*
X139945327Y-113446698D01*
X140042000Y-113213309D01*
X140042000Y-112605750D01*
X140160000Y-112605750D01*
X140160000Y-113196309D01*
X140256673Y-113429698D01*
X140435301Y-113608327D01*
X140668690Y-113705000D01*
X141134250Y-113705000D01*
X141293000Y-113546250D01*
X141293000Y-112447000D01*
X141547000Y-112447000D01*
X141547000Y-113546250D01*
X141705750Y-113705000D01*
X142171310Y-113705000D01*
X142404699Y-113608327D01*
X142583327Y-113429698D01*
X142670000Y-113220451D01*
X142756673Y-113429698D01*
X142935301Y-113608327D01*
X143168690Y-113705000D01*
X143634250Y-113705000D01*
X143793000Y-113546250D01*
X143793000Y-112447000D01*
X142818750Y-112447000D01*
X142670000Y-112595750D01*
X142521250Y-112447000D01*
X141547000Y-112447000D01*
X141293000Y-112447000D01*
X140318750Y-112447000D01*
X140160000Y-112605750D01*
X140042000Y-112605750D01*
X140042000Y-112483750D01*
X139883250Y-112325000D01*
X138137000Y-112325000D01*
X137883000Y-112325000D01*
X136242650Y-112325000D01*
X136204250Y-112286600D01*
X135105700Y-112286600D01*
X134851700Y-112286600D01*
X134831700Y-112286600D01*
X134831700Y-112032600D01*
X134851700Y-112032600D01*
X134851700Y-110683860D01*
X135105700Y-110683860D01*
X135105700Y-112032600D01*
X136098350Y-112032600D01*
X136136750Y-112071000D01*
X137883000Y-112071000D01*
X137883000Y-110832750D01*
X137724250Y-110674000D01*
X136486690Y-110674000D01*
X136253301Y-110770673D01*
X136244945Y-110779029D01*
X136087698Y-110621783D01*
X135854309Y-110525110D01*
X135264450Y-110525110D01*
X135105700Y-110683860D01*
X134851700Y-110683860D01*
X134692950Y-110525110D01*
X134103091Y-110525110D01*
X133869702Y-110621783D01*
X133827700Y-110663785D01*
X133681190Y-110563679D01*
X133429300Y-110512670D01*
X131930700Y-110512670D01*
X131695383Y-110556948D01*
X131529172Y-110663902D01*
X131382490Y-110563679D01*
X131266300Y-110540150D01*
X131266300Y-109921300D01*
X131198933Y-109582625D01*
X131007090Y-109295510D01*
X131007087Y-109295508D01*
X125445000Y-103733420D01*
X125445000Y-103206822D01*
X125494838Y-103086799D01*
X125495162Y-102714833D01*
X125353117Y-102371057D01*
X125090327Y-102107808D01*
X124746799Y-101965162D01*
X124374833Y-101964838D01*
X124031057Y-102106883D01*
X123767808Y-102369673D01*
X123625162Y-102713201D01*
X123624838Y-103085167D01*
X123675000Y-103206569D01*
X123675000Y-104099995D01*
X123674999Y-104100000D01*
X123706378Y-104257748D01*
X123742367Y-104438675D01*
X123867261Y-104625593D01*
X123934210Y-104725790D01*
X129496300Y-110287879D01*
X129496300Y-110538204D01*
X129396683Y-110556948D01*
X129180559Y-110696020D01*
X129035569Y-110908220D01*
X128984560Y-111160110D01*
X128984560Y-113159090D01*
X129028838Y-113394407D01*
X129167910Y-113610531D01*
X129380110Y-113755521D01*
X129463008Y-113772308D01*
X129418559Y-113800910D01*
X129273569Y-114013110D01*
X129222560Y-114265000D01*
X129222560Y-114460000D01*
X121317440Y-114460000D01*
X121317440Y-114090000D01*
X121273162Y-113854683D01*
X121134090Y-113638559D01*
X120921890Y-113493569D01*
X120670000Y-113442560D01*
X120599019Y-113442560D01*
X120786579Y-113255000D01*
X122999995Y-113255000D01*
X123000000Y-113255001D01*
X123295058Y-113196309D01*
X123338675Y-113187633D01*
X123625790Y-112995790D01*
X124905787Y-111715792D01*
X124905790Y-111715790D01*
X125097633Y-111428675D01*
X125165000Y-111090000D01*
X125165000Y-110970546D01*
X125185000Y-110870000D01*
X125185000Y-109556822D01*
X125234838Y-109436799D01*
X125235162Y-109064833D01*
X125093117Y-108721057D01*
X124830327Y-108457808D01*
X124588841Y-108357534D01*
X124768943Y-108283117D01*
X125032192Y-108020327D01*
X125174838Y-107676799D01*
X125175162Y-107304833D01*
X125033117Y-106961057D01*
X124770327Y-106697808D01*
X124426799Y-106555162D01*
X124054833Y-106554838D01*
X123933431Y-106605000D01*
X118510005Y-106605000D01*
X118510000Y-106604999D01*
X118227516Y-106661190D01*
X118171325Y-106672367D01*
X117884210Y-106864210D01*
X117884208Y-106864213D01*
X117004210Y-107744210D01*
X116812367Y-108031325D01*
X116812367Y-108031326D01*
X116744999Y-108370000D01*
X116745000Y-108370005D01*
X116745000Y-110273156D01*
X116678559Y-110315910D01*
X116533569Y-110528110D01*
X116482560Y-110780000D01*
X116482560Y-113290000D01*
X116526838Y-113525317D01*
X116665910Y-113741441D01*
X116878110Y-113886431D01*
X117130000Y-113937440D01*
X117600980Y-113937440D01*
X117078420Y-114460000D01*
X116237440Y-114460000D01*
X116237440Y-114090000D01*
X116193162Y-113854683D01*
X116054090Y-113638559D01*
X115841890Y-113493569D01*
X115590000Y-113442560D01*
X114590000Y-113442560D01*
X114354683Y-113486838D01*
X114138559Y-113625910D01*
X113993569Y-113838110D01*
X113942560Y-114090000D01*
X113942560Y-116600000D01*
X113986838Y-116835317D01*
X114099243Y-117010000D01*
X109430000Y-117010000D01*
X109430000Y-112320750D01*
X111415000Y-112320750D01*
X111415000Y-113416309D01*
X111511673Y-113649698D01*
X111690301Y-113828327D01*
X111923690Y-113925000D01*
X112264250Y-113925000D01*
X112423000Y-113766250D01*
X112423000Y-112162000D01*
X112677000Y-112162000D01*
X112677000Y-113766250D01*
X112835750Y-113925000D01*
X113176310Y-113925000D01*
X113409699Y-113828327D01*
X113588327Y-113649698D01*
X113685000Y-113416309D01*
X113685000Y-112320750D01*
X113526250Y-112162000D01*
X112677000Y-112162000D01*
X112423000Y-112162000D01*
X111573750Y-112162000D01*
X111415000Y-112320750D01*
X109430000Y-112320750D01*
X109430000Y-110653691D01*
X111415000Y-110653691D01*
X111415000Y-111749250D01*
X111573750Y-111908000D01*
X112423000Y-111908000D01*
X112423000Y-110303750D01*
X112677000Y-110303750D01*
X112677000Y-111908000D01*
X113526250Y-111908000D01*
X113685000Y-111749250D01*
X113685000Y-110653691D01*
X113588327Y-110420302D01*
X113409699Y-110241673D01*
X113176310Y-110145000D01*
X112835750Y-110145000D01*
X112677000Y-110303750D01*
X112423000Y-110303750D01*
X112264250Y-110145000D01*
X111923690Y-110145000D01*
X111690301Y-110241673D01*
X111511673Y-110420302D01*
X111415000Y-110653691D01*
X109430000Y-110653691D01*
X109430000Y-76624528D01*
X128025077Y-76624528D01*
X128215364Y-76969271D01*
X129096591Y-77320956D01*
X130045323Y-77308641D01*
X130864636Y-76969271D01*
X131054923Y-76624528D01*
X129540000Y-75109605D01*
X128025077Y-76624528D01*
X109430000Y-76624528D01*
X109430000Y-74486591D01*
X127149044Y-74486591D01*
X127161359Y-75435323D01*
X127500729Y-76254636D01*
X127845472Y-76444923D01*
X129360395Y-74930000D01*
X129719605Y-74930000D01*
X131234528Y-76444923D01*
X131579271Y-76254636D01*
X131930956Y-75373409D01*
X131918641Y-74424677D01*
X131579271Y-73605364D01*
X131234528Y-73415077D01*
X129719605Y-74930000D01*
X129360395Y-74930000D01*
X127845472Y-73415077D01*
X127500729Y-73605364D01*
X127149044Y-74486591D01*
X109430000Y-74486591D01*
X109430000Y-73235472D01*
X128025077Y-73235472D01*
X129540000Y-74750395D01*
X131054923Y-73235472D01*
X130864636Y-72890729D01*
X129983409Y-72539044D01*
X129034677Y-72551359D01*
X128215364Y-72890729D01*
X128025077Y-73235472D01*
X109430000Y-73235472D01*
X109430000Y-70322325D01*
X116994587Y-70322325D01*
X117356916Y-71199229D01*
X118027242Y-71870726D01*
X118903513Y-72234585D01*
X119852325Y-72235413D01*
X120729229Y-71873084D01*
X121400726Y-71202758D01*
X121764585Y-70326487D01*
X121764588Y-70322325D01*
X132234587Y-70322325D01*
X132596916Y-71199229D01*
X133267242Y-71870726D01*
X134143513Y-72234585D01*
X135092325Y-72235413D01*
X135969229Y-71873084D01*
X136640726Y-71202758D01*
X137004585Y-70326487D01*
X137005413Y-69377675D01*
X136643084Y-68500771D01*
X135972758Y-67829274D01*
X135096487Y-67465415D01*
X134147675Y-67464587D01*
X133270771Y-67826916D01*
X132599274Y-68497242D01*
X132235415Y-69373513D01*
X132234587Y-70322325D01*
X121764588Y-70322325D01*
X121765413Y-69377675D01*
X121403084Y-68500771D01*
X120732758Y-67829274D01*
X119856487Y-67465415D01*
X118907675Y-67464587D01*
X118030771Y-67826916D01*
X117359274Y-68497242D01*
X116995415Y-69373513D01*
X116994587Y-70322325D01*
X109430000Y-70322325D01*
X109430000Y-65449724D01*
X111386882Y-65449724D01*
X111534455Y-65758106D01*
X112289031Y-66051405D01*
X113098409Y-66033614D01*
X113763545Y-65758106D01*
X113911118Y-65449724D01*
X116466882Y-65449724D01*
X116614455Y-65758106D01*
X117369031Y-66051405D01*
X118178409Y-66033614D01*
X118843545Y-65758106D01*
X118991118Y-65449724D01*
X117729000Y-64187605D01*
X116466882Y-65449724D01*
X113911118Y-65449724D01*
X112649000Y-64187605D01*
X111386882Y-65449724D01*
X109430000Y-65449724D01*
X109430000Y-63648031D01*
X110605595Y-63648031D01*
X110623386Y-64457409D01*
X110898894Y-65122545D01*
X111207276Y-65270118D01*
X112469395Y-64008000D01*
X111207276Y-62745882D01*
X110898894Y-62893455D01*
X110605595Y-63648031D01*
X109430000Y-63648031D01*
X109430000Y-58568031D01*
X110605595Y-58568031D01*
X110623386Y-59377409D01*
X110898894Y-60042545D01*
X111207276Y-60190118D01*
X112469395Y-58928000D01*
X111207276Y-57665882D01*
X110898894Y-57813455D01*
X110605595Y-58568031D01*
X109430000Y-58568031D01*
X109430000Y-57486276D01*
X111386882Y-57486276D01*
X112649000Y-58748395D01*
X112663142Y-58734252D01*
X112842748Y-58913858D01*
X112828605Y-58928000D01*
X112842748Y-58942143D01*
X112663142Y-59121748D01*
X112649000Y-59107605D01*
X111386882Y-60369724D01*
X111534455Y-60678106D01*
X112289031Y-60971405D01*
X113098409Y-60953614D01*
X113220048Y-60903230D01*
X113154354Y-61061438D01*
X113153648Y-61871011D01*
X113227397Y-62049496D01*
X113008969Y-61964595D01*
X112199591Y-61982386D01*
X111534455Y-62257894D01*
X111386882Y-62566276D01*
X112649000Y-63828395D01*
X112663143Y-63814253D01*
X112842748Y-63993858D01*
X112828605Y-64008000D01*
X114090724Y-65270118D01*
X114399106Y-65122545D01*
X114692405Y-64367969D01*
X114674614Y-63558591D01*
X114624230Y-63436952D01*
X114782438Y-63502646D01*
X115592011Y-63503352D01*
X115770496Y-63429603D01*
X115685595Y-63648031D01*
X115703386Y-64457409D01*
X115978894Y-65122545D01*
X116287276Y-65270118D01*
X117549395Y-64008000D01*
X117535253Y-63993858D01*
X117714858Y-63814252D01*
X117729000Y-63828395D01*
X117743142Y-63814252D01*
X117922748Y-63993858D01*
X117908605Y-64008000D01*
X119170724Y-65270118D01*
X119479106Y-65122545D01*
X119772405Y-64367969D01*
X119754614Y-63558591D01*
X119479106Y-62893455D01*
X119170725Y-62745883D01*
X119284198Y-62632410D01*
X119254788Y-62603000D01*
X120687868Y-62603000D01*
X122164306Y-64079438D01*
X122075415Y-64293513D01*
X122074587Y-65242325D01*
X122436916Y-66119229D01*
X123107242Y-66790726D01*
X123983513Y-67154585D01*
X124932325Y-67155413D01*
X125809229Y-66793084D01*
X126480726Y-66122758D01*
X126707458Y-65576724D01*
X135135882Y-65576724D01*
X135283455Y-65885106D01*
X136038031Y-66178405D01*
X136847409Y-66160614D01*
X137512545Y-65885106D01*
X137660118Y-65576724D01*
X140215882Y-65576724D01*
X140363455Y-65885106D01*
X141118031Y-66178405D01*
X141927409Y-66160614D01*
X142592545Y-65885106D01*
X142740118Y-65576724D01*
X141478000Y-64314605D01*
X140215882Y-65576724D01*
X137660118Y-65576724D01*
X136398000Y-64314605D01*
X135135882Y-65576724D01*
X126707458Y-65576724D01*
X126844585Y-65246487D01*
X126845413Y-64297675D01*
X126629462Y-63775031D01*
X134354595Y-63775031D01*
X134372386Y-64584409D01*
X134647894Y-65249545D01*
X134956276Y-65397118D01*
X136218395Y-64135000D01*
X134956276Y-62872882D01*
X134647894Y-63020455D01*
X134354595Y-63775031D01*
X126629462Y-63775031D01*
X126483084Y-63420771D01*
X125812758Y-62749274D01*
X124936487Y-62385415D01*
X123987675Y-62384587D01*
X123769760Y-62474628D01*
X121960566Y-60665434D01*
X121592346Y-60419397D01*
X121158000Y-60333000D01*
X119254788Y-60333000D01*
X119284198Y-60303590D01*
X119170725Y-60190117D01*
X119328683Y-60114528D01*
X128025077Y-60114528D01*
X128215364Y-60459271D01*
X129096591Y-60810956D01*
X130045323Y-60798641D01*
X130864636Y-60459271D01*
X131054923Y-60114528D01*
X129540000Y-58599605D01*
X128025077Y-60114528D01*
X119328683Y-60114528D01*
X119479106Y-60042545D01*
X119772405Y-59287969D01*
X119754614Y-58478591D01*
X119546680Y-57976591D01*
X127149044Y-57976591D01*
X127161359Y-58925323D01*
X127500729Y-59744636D01*
X127845472Y-59934923D01*
X129360395Y-58420000D01*
X129719605Y-58420000D01*
X131234528Y-59934923D01*
X131579271Y-59744636D01*
X131930956Y-58863409D01*
X131928771Y-58695031D01*
X134354595Y-58695031D01*
X134372386Y-59504409D01*
X134647894Y-60169545D01*
X134956276Y-60317118D01*
X136218395Y-59055000D01*
X134956276Y-57792882D01*
X134647894Y-57940455D01*
X134354595Y-58695031D01*
X131928771Y-58695031D01*
X131918641Y-57914677D01*
X131579271Y-57095364D01*
X131234528Y-56905077D01*
X129719605Y-58420000D01*
X129360395Y-58420000D01*
X127845472Y-56905077D01*
X127500729Y-57095364D01*
X127149044Y-57976591D01*
X119546680Y-57976591D01*
X119479106Y-57813455D01*
X119170724Y-57665882D01*
X117908605Y-58928000D01*
X117922748Y-58942142D01*
X117743142Y-59121748D01*
X117729000Y-59107605D01*
X117714858Y-59121748D01*
X117535252Y-58942142D01*
X117549395Y-58928000D01*
X117535252Y-58913858D01*
X117714858Y-58734252D01*
X117729000Y-58748395D01*
X118991118Y-57486276D01*
X118843545Y-57177894D01*
X118088969Y-56884595D01*
X117425963Y-56899169D01*
X117599660Y-56725472D01*
X128025077Y-56725472D01*
X129540000Y-58240395D01*
X131054923Y-56725472D01*
X130864636Y-56380729D01*
X129983409Y-56029044D01*
X129034677Y-56041359D01*
X128215364Y-56380729D01*
X128025077Y-56725472D01*
X117599660Y-56725472D01*
X118689438Y-55635694D01*
X118903513Y-55724585D01*
X119852325Y-55725413D01*
X120729229Y-55363084D01*
X121400726Y-54692758D01*
X121764585Y-53816487D01*
X121764588Y-53812325D01*
X132234587Y-53812325D01*
X132596916Y-54689229D01*
X133267242Y-55360726D01*
X134143513Y-55724585D01*
X135092325Y-55725413D01*
X135969229Y-55363084D01*
X136514066Y-54819198D01*
X137803000Y-56108132D01*
X137803000Y-57529212D01*
X137773590Y-57499802D01*
X137660117Y-57613275D01*
X137512545Y-57304894D01*
X136757969Y-57011595D01*
X135948591Y-57029386D01*
X135283455Y-57304894D01*
X135135882Y-57613276D01*
X136398000Y-58875395D01*
X136412142Y-58861252D01*
X136591748Y-59040858D01*
X136577605Y-59055000D01*
X136591748Y-59069143D01*
X136412142Y-59248748D01*
X136398000Y-59234605D01*
X135135882Y-60496724D01*
X135283455Y-60805106D01*
X136038031Y-61098405D01*
X136847409Y-61080614D01*
X136969048Y-61030230D01*
X136903354Y-61188438D01*
X136902648Y-61998011D01*
X136976397Y-62176496D01*
X136757969Y-62091595D01*
X135948591Y-62109386D01*
X135283455Y-62384894D01*
X135135882Y-62693276D01*
X136398000Y-63955395D01*
X136412143Y-63941253D01*
X136591748Y-64120858D01*
X136577605Y-64135000D01*
X137839724Y-65397118D01*
X138148106Y-65249545D01*
X138441405Y-64494969D01*
X138423614Y-63685591D01*
X138373230Y-63563952D01*
X138531438Y-63629646D01*
X139341011Y-63630352D01*
X139519496Y-63556603D01*
X139434595Y-63775031D01*
X139452386Y-64584409D01*
X139727894Y-65249545D01*
X140036276Y-65397118D01*
X141298395Y-64135000D01*
X141657605Y-64135000D01*
X142919724Y-65397118D01*
X143228106Y-65249545D01*
X143521405Y-64494969D01*
X143503614Y-63685591D01*
X143228106Y-63020455D01*
X142919724Y-62872882D01*
X141657605Y-64135000D01*
X141298395Y-64135000D01*
X141284253Y-64120858D01*
X141463858Y-63941252D01*
X141478000Y-63955395D01*
X142740118Y-62693276D01*
X142592545Y-62384894D01*
X141837969Y-62091595D01*
X141028591Y-62109386D01*
X140906952Y-62159770D01*
X140972646Y-62001562D01*
X140973352Y-61191989D01*
X140899603Y-61013504D01*
X141118031Y-61098405D01*
X141927409Y-61080614D01*
X142592545Y-60805106D01*
X142740118Y-60496724D01*
X141478000Y-59234605D01*
X141463858Y-59248748D01*
X141284252Y-59069142D01*
X141298395Y-59055000D01*
X141657605Y-59055000D01*
X142919724Y-60317118D01*
X143228106Y-60169545D01*
X143521405Y-59414969D01*
X143503614Y-58605591D01*
X143228106Y-57940455D01*
X142919724Y-57792882D01*
X141657605Y-59055000D01*
X141298395Y-59055000D01*
X141284252Y-59040858D01*
X141463858Y-58861252D01*
X141478000Y-58875395D01*
X142740118Y-57613276D01*
X142592545Y-57304894D01*
X141837969Y-57011595D01*
X141028591Y-57029386D01*
X140363455Y-57304894D01*
X140215883Y-57613275D01*
X140102410Y-57499802D01*
X140073000Y-57529212D01*
X140073000Y-55638000D01*
X139986603Y-55203654D01*
X139740566Y-54835434D01*
X137442566Y-52537434D01*
X137074346Y-52291397D01*
X136739804Y-52224852D01*
X136643084Y-51990771D01*
X135972758Y-51319274D01*
X135096487Y-50955415D01*
X134147675Y-50954587D01*
X133270771Y-51316916D01*
X132599274Y-51987242D01*
X132235415Y-52863513D01*
X132234587Y-53812325D01*
X121764588Y-53812325D01*
X121765413Y-52867675D01*
X121403084Y-51990771D01*
X120732758Y-51319274D01*
X119856487Y-50955415D01*
X118907675Y-50954587D01*
X118030771Y-51316916D01*
X117359274Y-51987242D01*
X116995415Y-52863513D01*
X116994587Y-53812325D01*
X117084628Y-54030240D01*
X114386434Y-56728434D01*
X114140397Y-57096654D01*
X114075367Y-57423579D01*
X114024590Y-57372802D01*
X113911117Y-57486275D01*
X113763545Y-57177894D01*
X113008969Y-56884595D01*
X112199591Y-56902386D01*
X111534455Y-57177894D01*
X111386882Y-57486276D01*
X109430000Y-57486276D01*
X109430000Y-48732325D01*
X122074587Y-48732325D01*
X122436916Y-49609229D01*
X123107242Y-50280726D01*
X123983513Y-50644585D01*
X124932325Y-50645413D01*
X125809229Y-50283084D01*
X126480726Y-49612758D01*
X126844585Y-48736487D01*
X126845413Y-47787675D01*
X126483084Y-46910771D01*
X125812758Y-46239274D01*
X124936487Y-45875415D01*
X123987675Y-45874587D01*
X123110771Y-46236916D01*
X122439274Y-46907242D01*
X122075415Y-47783513D01*
X122074587Y-48732325D01*
X109430000Y-48732325D01*
X109430000Y-44430000D01*
X145010000Y-44430000D01*
X145010000Y-108619973D01*
M02*
