M48
;DRILL file {KiCad 4.0.6} date 01/05/18 17:14:14
;FORMAT={-:-/ absolute / inch / decimal}
FMAT,2
INCH,TZ
T1C0.012
T2C0.016
T3C0.059
T4C0.062
%
G90
G05
M72
T1
X4.3157Y-1.7803
X4.3197Y-1.9575
X4.3197Y-2.1543
X4.3197Y-2.3512
X4.3197Y-2.548
X4.3197Y-2.7449
X4.3197Y-2.9417
X4.3197Y-3.1386
X4.3197Y-3.3354
X4.3197Y-3.5323
X4.3197Y-3.7291
X4.3197Y-3.926
X4.3197Y-4.1228
X4.3197Y-4.3197
X4.3197Y-4.5165
X4.3236Y-4.5913
X4.4181Y-3.0795
X4.4535Y-4.5913
X4.5126Y-1.7803
X4.5362Y-3.0795
X4.6425Y-4.5913
X4.7094Y-1.7803
X4.8118Y-3.0795
X4.9063Y-1.7803
X4.9142Y-4.5913
X4.9496Y-3.0795
X5.0874Y-3.0795
X5.1031Y-1.7803
X5.111Y-4.5913
X5.2449Y-3.0795
X5.3Y-1.7803
X5.3079Y-4.5913
X5.4614Y-3.0795
X5.4969Y-1.7803
X5.5047Y-4.5913
X5.5992Y-3.0795
X5.6937Y-1.7803
X5.6976Y-1.9575
X5.6976Y-2.1543
X5.6976Y-2.3512
X5.6976Y-2.548
X5.6976Y-2.7449
X5.6976Y-2.9417
X5.6976Y-3.1386
X5.6976Y-3.3354
X5.6976Y-3.5323
X5.6976Y-3.7291
X5.6976Y-3.926
X5.6976Y-4.1228
X5.6976Y-4.3197
X5.6976Y-4.5165
X5.7016Y-4.5913
T2
X4.4331Y-4.1835
X4.8913Y-4.2319
X4.8937Y-4.3012
X4.9039Y-4.0512
X5.1008Y-4.1854
T3
X4.7Y-2.1
X4.7Y-2.75
X4.9Y-1.9
X4.9Y-2.55
X5.1Y-2.3
X5.1Y-2.95
X5.3Y-2.1
X5.3Y-2.75
T4
X4.435Y-2.32
X4.435Y-2.52
X4.535Y-2.42
X4.635Y-2.32
X4.635Y-2.52
X5.37Y-2.325
X5.37Y-2.525
X5.47Y-2.425
X5.57Y-2.325
X5.57Y-2.525
T0
M30
