G04 #@! TF.FileFunction,Copper,L1,Top,Signal*
%FSLAX46Y46*%
G04 Gerber Fmt 4.6, Leading zero omitted, Abs format (unit mm)*
G04 Created by KiCad (PCBNEW 4.0.6) date 01/05/18 17:09:47*
%MOMM*%
%LPD*%
G01*
G04 APERTURE LIST*
%ADD10C,0.100000*%
%ADD11C,0.600000*%
%ADD12R,1.500000X1.250000*%
%ADD13R,1.397000X1.350000*%
%ADD14C,2.800000*%
%ADD15R,2.500000X2.400000*%
%ADD16R,1.500000X1.300000*%
%ADD17R,1.300000X1.500000*%
%ADD18R,1.550000X0.600000*%
%ADD19R,0.400000X1.350000*%
%ADD20C,3.500000*%
%ADD21C,0.250000*%
%ADD22C,1.000000*%
%ADD23C,0.500000*%
%ADD24C,0.350000*%
%ADD25C,1.250000*%
%ADD26C,0.254000*%
G04 APERTURE END LIST*
D10*
D11*
X144820000Y-116620000D03*
X139820000Y-116620000D03*
X134820000Y-116620000D03*
X129820000Y-116620000D03*
X124820000Y-116620000D03*
X117920000Y-116620000D03*
X113120000Y-116620000D03*
X109820000Y-116620000D03*
X144720000Y-114720000D03*
X144720000Y-109720000D03*
X144720000Y-104720000D03*
X144720000Y-99720000D03*
X144720000Y-94720000D03*
X144720000Y-89720000D03*
X144720000Y-84720000D03*
X144720000Y-79720000D03*
X144720000Y-74720000D03*
X144720000Y-69720000D03*
X144720000Y-64720000D03*
X144720000Y-59720000D03*
X144720000Y-54720000D03*
X109720000Y-114720000D03*
X109720000Y-109720000D03*
X109720000Y-104720000D03*
X109720000Y-99720000D03*
X109720000Y-94720000D03*
X109720000Y-89720000D03*
X109720000Y-84720000D03*
X109720000Y-79720000D03*
X109720000Y-74720000D03*
X109720000Y-69720000D03*
X109720000Y-64720000D03*
X109720000Y-59720000D03*
X109720000Y-54720000D03*
X144620000Y-45220000D03*
X139620000Y-45220000D03*
X134620000Y-45220000D03*
X129620000Y-45220000D03*
X124620000Y-45220000D03*
X119620000Y-45220000D03*
X114620000Y-45220000D03*
D12*
X131970000Y-89720000D03*
X129470000Y-89720000D03*
X124970000Y-89720000D03*
X122470000Y-89720000D03*
X128631000Y-101219000D03*
X126131000Y-101219000D03*
X132470000Y-107720000D03*
X134970000Y-107720000D03*
X119470000Y-107720000D03*
X121970000Y-107720000D03*
X129012000Y-112522000D03*
X126512000Y-112522000D03*
D13*
X130810000Y-81350000D03*
X130810000Y-83750000D03*
X124460000Y-81350000D03*
X124460000Y-83750000D03*
X119720000Y-101920000D03*
X119720000Y-99520000D03*
X134720000Y-101920000D03*
X134720000Y-99520000D03*
D14*
X138938000Y-61595000D03*
X136398000Y-59055000D03*
X141478000Y-59055000D03*
X141478000Y-64135000D03*
X136398000Y-64135000D03*
X115189000Y-61468000D03*
X117729000Y-58928000D03*
X117729000Y-64008000D03*
X112649000Y-64008000D03*
X112649000Y-58928000D03*
D15*
X135720000Y-87870000D03*
X135720000Y-81570000D03*
X118720000Y-81570000D03*
X118720000Y-87870000D03*
D16*
X132070000Y-87720000D03*
X129370000Y-87720000D03*
X125070000Y-87720000D03*
X122370000Y-87720000D03*
D17*
X134493000Y-92630000D03*
X134493000Y-95330000D03*
X119380000Y-92630000D03*
X119380000Y-95330000D03*
X131572000Y-104474000D03*
X131572000Y-101774000D03*
X122301000Y-104347000D03*
X122301000Y-101647000D03*
D16*
X135370000Y-104720000D03*
X138070000Y-104720000D03*
X116370000Y-104720000D03*
X119070000Y-104720000D03*
D17*
X122120000Y-113570000D03*
X122120000Y-110870000D03*
X124320000Y-113570000D03*
X124320000Y-110870000D03*
D18*
X129700000Y-98425000D03*
X129700000Y-97155000D03*
X129700000Y-95885000D03*
X129700000Y-94615000D03*
X124300000Y-94615000D03*
X124300000Y-95885000D03*
X124300000Y-97155000D03*
X124300000Y-98425000D03*
D19*
X128195000Y-108870000D03*
X128195000Y-104570000D03*
X127545000Y-108870000D03*
X127545000Y-104570000D03*
X126895000Y-108870000D03*
X126895000Y-104570000D03*
X126245000Y-108870000D03*
X126245000Y-104570000D03*
D20*
X124460000Y-48260000D03*
X119380000Y-53340000D03*
X129540000Y-58420000D03*
X134620000Y-53340000D03*
X129540000Y-74930000D03*
X134620000Y-69850000D03*
X124460000Y-64770000D03*
X119380000Y-69850000D03*
D11*
X109620000Y-45220000D03*
X109720000Y-49720000D03*
X144720000Y-49720000D03*
X112220000Y-78220000D03*
X115220000Y-78220000D03*
X122220000Y-78220000D03*
X125720000Y-78220000D03*
X129220000Y-78220000D03*
X133220000Y-78220000D03*
X138720000Y-78220000D03*
X142220000Y-78220000D03*
X112600000Y-106260000D03*
X124560000Y-102900000D03*
X129560000Y-106310000D03*
X124300000Y-109250000D03*
X124240000Y-107490000D03*
D21*
X130810000Y-83750000D02*
X130810000Y-83810000D01*
D22*
X130810000Y-83810000D02*
X132070000Y-85070000D01*
X132070000Y-85070000D02*
X132070000Y-87720000D01*
X132070000Y-87720000D02*
X132070000Y-89620000D01*
D21*
X132070000Y-89620000D02*
X131970000Y-89720000D01*
D23*
X129700000Y-95885000D02*
X131555000Y-95885000D01*
X131555000Y-95885000D02*
X131970000Y-95470000D01*
X131970000Y-95470000D02*
X131970000Y-89720000D01*
D24*
X126895000Y-104570000D02*
X126895000Y-103295000D01*
X128940000Y-102250000D02*
X128940000Y-101528000D01*
X128570000Y-102620000D02*
X128940000Y-102250000D01*
X127570000Y-102620000D02*
X128570000Y-102620000D01*
X126895000Y-103295000D02*
X127570000Y-102620000D01*
X128940000Y-101528000D02*
X128631000Y-101219000D01*
D23*
X116370000Y-104720000D02*
X116370000Y-106460000D01*
X117630000Y-107720000D02*
X119470000Y-107720000D01*
X116370000Y-106460000D02*
X117630000Y-107720000D01*
X116370000Y-104720000D02*
X114140000Y-104720000D01*
X114140000Y-104720000D02*
X112600000Y-106260000D01*
D24*
X126895000Y-104570000D02*
X126895000Y-106295000D01*
X126895000Y-106295000D02*
X127545000Y-106945000D01*
X127545000Y-106945000D02*
X127545000Y-108870000D01*
D21*
X129370000Y-87720000D02*
X129220000Y-87720000D01*
D22*
X129370000Y-87720000D02*
X129370000Y-89620000D01*
D21*
X129370000Y-89620000D02*
X129470000Y-89720000D01*
D22*
X124970000Y-89720000D02*
X124970000Y-87820000D01*
D21*
X124970000Y-87820000D02*
X125070000Y-87720000D01*
X124440000Y-90170000D02*
X124460000Y-90170000D01*
X124540000Y-90070000D02*
X124440000Y-90170000D01*
D23*
X124300000Y-94615000D02*
X123215000Y-94615000D01*
X123215000Y-94615000D02*
X122470000Y-93870000D01*
X122470000Y-93870000D02*
X122470000Y-89720000D01*
D22*
X122370000Y-87720000D02*
X122370000Y-89620000D01*
D21*
X122370000Y-89620000D02*
X122470000Y-89720000D01*
X124460000Y-83750000D02*
X123990000Y-83750000D01*
D22*
X123990000Y-83750000D02*
X122370000Y-85370000D01*
X122370000Y-86080000D02*
X122370000Y-87720000D01*
X122370000Y-85370000D02*
X122370000Y-86080000D01*
D23*
X124560000Y-102900000D02*
X126131000Y-101329000D01*
D21*
X126131000Y-101329000D02*
X126131000Y-101219000D01*
X125631000Y-101219000D02*
X126131000Y-101219000D01*
D23*
X124300000Y-98425000D02*
X124300000Y-101000000D01*
X124300000Y-101000000D02*
X124519000Y-101219000D01*
X124519000Y-101219000D02*
X126131000Y-101219000D01*
D24*
X129515000Y-106355000D02*
X127755000Y-106355000D01*
D23*
X129560000Y-106310000D02*
X129515000Y-106355000D01*
D21*
X126512000Y-112522000D02*
X126512000Y-112328000D01*
D24*
X126512000Y-112328000D02*
X128195000Y-110645000D01*
X128195000Y-110645000D02*
X128195000Y-108870000D01*
D23*
X124320000Y-113570000D02*
X125464000Y-113570000D01*
X125464000Y-113570000D02*
X126512000Y-112522000D01*
X122120000Y-113570000D02*
X124320000Y-113570000D01*
D24*
X127545000Y-104570000D02*
X127545000Y-106145000D01*
X127545000Y-106145000D02*
X127755000Y-106355000D01*
X127755000Y-106355000D02*
X128195000Y-106795000D01*
X128195000Y-106795000D02*
X128195000Y-108870000D01*
D21*
X122720000Y-113070000D02*
X122720000Y-113320000D01*
D24*
X128195000Y-104570000D02*
X131476000Y-104570000D01*
D21*
X131476000Y-104570000D02*
X131572000Y-104474000D01*
D23*
X131572000Y-104474000D02*
X131572000Y-106822000D01*
X131572000Y-106822000D02*
X132470000Y-107720000D01*
D24*
X131572000Y-104474000D02*
X135124000Y-104474000D01*
D21*
X135124000Y-104474000D02*
X135370000Y-104720000D01*
D23*
X122301000Y-104347000D02*
X126022000Y-104347000D01*
D21*
X126022000Y-104347000D02*
X126245000Y-104570000D01*
D23*
X119070000Y-104720000D02*
X121928000Y-104720000D01*
D21*
X121928000Y-104720000D02*
X122301000Y-104347000D01*
D23*
X122301000Y-104347000D02*
X122301000Y-106090000D01*
X122301000Y-106090000D02*
X122301000Y-107389000D01*
D21*
X122301000Y-107389000D02*
X121970000Y-107720000D01*
D22*
X130810000Y-81350000D02*
X135500000Y-81350000D01*
X135500000Y-81350000D02*
X135720000Y-81570000D01*
D21*
X131030000Y-81570000D02*
X130810000Y-81350000D01*
D25*
X134620000Y-69850000D02*
X134620000Y-72920000D01*
X134620000Y-72920000D02*
X135720000Y-74020000D01*
X135720000Y-74020000D02*
X135720000Y-81570000D01*
X124460000Y-48260000D02*
X124460000Y-57960000D01*
X120700000Y-68530000D02*
X119380000Y-69850000D01*
X120700000Y-61720000D02*
X120700000Y-68530000D01*
X124460000Y-57960000D02*
X120700000Y-61720000D01*
D22*
X124460000Y-81350000D02*
X118940000Y-81350000D01*
X118940000Y-81350000D02*
X118720000Y-81570000D01*
D25*
X118720000Y-81570000D02*
X118720000Y-70510000D01*
X118720000Y-70510000D02*
X119380000Y-69850000D01*
D21*
X124240000Y-81570000D02*
X124460000Y-81350000D01*
X119380000Y-80910000D02*
X118720000Y-81570000D01*
X124460000Y-48260000D02*
X124180000Y-48260000D01*
X120520000Y-68710000D02*
X119380000Y-69850000D01*
D23*
X119720000Y-101920000D02*
X122028000Y-101920000D01*
D21*
X122028000Y-101920000D02*
X122301000Y-101647000D01*
D23*
X124300000Y-97155000D02*
X122485000Y-97155000D01*
X122485000Y-97155000D02*
X122301000Y-97339000D01*
X122301000Y-97339000D02*
X122301000Y-101647000D01*
D22*
X119380000Y-95330000D02*
X119380000Y-97060000D01*
X119720000Y-97400000D02*
X119720000Y-99520000D01*
X119380000Y-97060000D02*
X119720000Y-97400000D01*
D21*
X119380000Y-99180000D02*
X119720000Y-99520000D01*
D23*
X124300000Y-95885000D02*
X119935000Y-95885000D01*
D21*
X119935000Y-95885000D02*
X119380000Y-95330000D01*
D22*
X131572000Y-101774000D02*
X134574000Y-101774000D01*
D21*
X134574000Y-101774000D02*
X134720000Y-101920000D01*
D23*
X129700000Y-98425000D02*
X130625000Y-98425000D01*
X131572000Y-99372000D02*
X131572000Y-101774000D01*
X130625000Y-98425000D02*
X131572000Y-99372000D01*
D22*
X134720000Y-99520000D02*
X134720000Y-97550000D01*
X134493000Y-97323000D02*
X134493000Y-95330000D01*
X134720000Y-97550000D02*
X134493000Y-97323000D01*
D21*
X134720000Y-95557000D02*
X134493000Y-95330000D01*
D23*
X129700000Y-97155000D02*
X132668000Y-97155000D01*
X132668000Y-97155000D02*
X134493000Y-95330000D01*
D21*
X124320000Y-110870000D02*
X124320000Y-109270000D01*
X124320000Y-109270000D02*
X124300000Y-109250000D01*
D24*
X126895000Y-110045000D02*
X126895000Y-108870000D01*
X124320000Y-110870000D02*
X126070000Y-110870000D01*
X126070000Y-110870000D02*
X126895000Y-110045000D01*
D23*
X122120000Y-110870000D02*
X122120000Y-109470000D01*
X124240000Y-108040000D02*
X124240000Y-107490000D01*
X123210000Y-109070000D02*
X124240000Y-108040000D01*
X122520000Y-109070000D02*
X123210000Y-109070000D01*
X122120000Y-109470000D02*
X122520000Y-109070000D01*
D24*
X126245000Y-107895000D02*
X126245000Y-108870000D01*
X125880000Y-107530000D02*
X126245000Y-107895000D01*
X124280000Y-107530000D02*
X125880000Y-107530000D01*
D21*
X124240000Y-107490000D02*
X124280000Y-107530000D01*
D26*
G36*
X145010000Y-117010000D02*
X109430000Y-117010000D01*
X109430000Y-108005750D01*
X118085000Y-108005750D01*
X118085000Y-108471310D01*
X118181673Y-108704699D01*
X118360302Y-108883327D01*
X118593691Y-108980000D01*
X119184250Y-108980000D01*
X119343000Y-108821250D01*
X119343000Y-107847000D01*
X118243750Y-107847000D01*
X118085000Y-108005750D01*
X109430000Y-108005750D01*
X109430000Y-106968690D01*
X118085000Y-106968690D01*
X118085000Y-107434250D01*
X118243750Y-107593000D01*
X119343000Y-107593000D01*
X119343000Y-106618750D01*
X119184250Y-106460000D01*
X118593691Y-106460000D01*
X118360302Y-106556673D01*
X118181673Y-106735301D01*
X118085000Y-106968690D01*
X109430000Y-106968690D01*
X109430000Y-105005750D01*
X114985000Y-105005750D01*
X114985000Y-105496310D01*
X115081673Y-105729699D01*
X115260302Y-105908327D01*
X115493691Y-106005000D01*
X116084250Y-106005000D01*
X116243000Y-105846250D01*
X116243000Y-104847000D01*
X115143750Y-104847000D01*
X114985000Y-105005750D01*
X109430000Y-105005750D01*
X109430000Y-103943690D01*
X114985000Y-103943690D01*
X114985000Y-104434250D01*
X115143750Y-104593000D01*
X116243000Y-104593000D01*
X116243000Y-103593750D01*
X116497000Y-103593750D01*
X116497000Y-104593000D01*
X116517000Y-104593000D01*
X116517000Y-104847000D01*
X116497000Y-104847000D01*
X116497000Y-105846250D01*
X116655750Y-106005000D01*
X117246309Y-106005000D01*
X117479698Y-105908327D01*
X117658327Y-105729699D01*
X117714654Y-105593713D01*
X117716838Y-105605317D01*
X117855910Y-105821441D01*
X118068110Y-105966431D01*
X118320000Y-106017440D01*
X119820000Y-106017440D01*
X120055317Y-105973162D01*
X120271441Y-105834090D01*
X120416431Y-105621890D01*
X120419851Y-105605000D01*
X121269687Y-105605000D01*
X121399110Y-105693431D01*
X121416000Y-105696851D01*
X121416000Y-106447560D01*
X121220000Y-106447560D01*
X120984683Y-106491838D01*
X120768559Y-106630910D01*
X120722031Y-106699006D01*
X120579698Y-106556673D01*
X120346309Y-106460000D01*
X119755750Y-106460000D01*
X119597000Y-106618750D01*
X119597000Y-107593000D01*
X119617000Y-107593000D01*
X119617000Y-107847000D01*
X119597000Y-107847000D01*
X119597000Y-108821250D01*
X119755750Y-108980000D01*
X120346309Y-108980000D01*
X120579698Y-108883327D01*
X120720936Y-108742090D01*
X120755910Y-108796441D01*
X120968110Y-108941431D01*
X121220000Y-108992440D01*
X121395166Y-108992440D01*
X121302367Y-109131325D01*
X121302367Y-109131326D01*
X121234999Y-109470000D01*
X121235000Y-109470005D01*
X121235000Y-109516778D01*
X121234683Y-109516838D01*
X121018559Y-109655910D01*
X120873569Y-109868110D01*
X120822560Y-110120000D01*
X120822560Y-111620000D01*
X120866838Y-111855317D01*
X121005910Y-112071441D01*
X121218110Y-112216431D01*
X121231197Y-112219081D01*
X121018559Y-112355910D01*
X120873569Y-112568110D01*
X120822560Y-112820000D01*
X120822560Y-114320000D01*
X120866838Y-114555317D01*
X121005910Y-114771441D01*
X121218110Y-114916431D01*
X121470000Y-114967440D01*
X122770000Y-114967440D01*
X123005317Y-114923162D01*
X123221441Y-114784090D01*
X123222390Y-114782701D01*
X123418110Y-114916431D01*
X123670000Y-114967440D01*
X124970000Y-114967440D01*
X125205317Y-114923162D01*
X125421441Y-114784090D01*
X125566431Y-114571890D01*
X125595394Y-114428864D01*
X125746484Y-114398810D01*
X125802675Y-114387633D01*
X126089790Y-114195790D01*
X126491140Y-113794440D01*
X127262000Y-113794440D01*
X127497317Y-113750162D01*
X127713441Y-113611090D01*
X127759969Y-113542994D01*
X127902302Y-113685327D01*
X128135691Y-113782000D01*
X128726250Y-113782000D01*
X128885000Y-113623250D01*
X128885000Y-112649000D01*
X129139000Y-112649000D01*
X129139000Y-113623250D01*
X129297750Y-113782000D01*
X129888309Y-113782000D01*
X130121698Y-113685327D01*
X130300327Y-113506699D01*
X130397000Y-113273310D01*
X130397000Y-112807750D01*
X130238250Y-112649000D01*
X129139000Y-112649000D01*
X128885000Y-112649000D01*
X128865000Y-112649000D01*
X128865000Y-112395000D01*
X128885000Y-112395000D01*
X128885000Y-111420750D01*
X129139000Y-111420750D01*
X129139000Y-112395000D01*
X130238250Y-112395000D01*
X130397000Y-112236250D01*
X130397000Y-111770690D01*
X130300327Y-111537301D01*
X130121698Y-111358673D01*
X129888309Y-111262000D01*
X129297750Y-111262000D01*
X129139000Y-111420750D01*
X128885000Y-111420750D01*
X128726250Y-111262000D01*
X128723513Y-111262000D01*
X128767756Y-111217757D01*
X128855549Y-111086365D01*
X128943342Y-110954974D01*
X129005000Y-110645000D01*
X129005000Y-109729884D01*
X129042440Y-109545000D01*
X129042440Y-108195000D01*
X129005000Y-107996024D01*
X129005000Y-107165000D01*
X129164902Y-107165000D01*
X129176326Y-107172633D01*
X129220450Y-107181410D01*
X129373201Y-107244838D01*
X129745167Y-107245162D01*
X130088943Y-107103117D01*
X130352192Y-106840327D01*
X130494838Y-106496799D01*
X130495162Y-106124833D01*
X130353117Y-105781057D01*
X130090327Y-105517808D01*
X129758450Y-105380000D01*
X130303913Y-105380000D01*
X130318838Y-105459317D01*
X130457910Y-105675441D01*
X130670110Y-105820431D01*
X130687000Y-105823851D01*
X130687000Y-106821995D01*
X130686999Y-106822000D01*
X130718585Y-106980790D01*
X130754367Y-107160675D01*
X130906928Y-107389000D01*
X130946210Y-107447790D01*
X131072560Y-107574140D01*
X131072560Y-108345000D01*
X131116838Y-108580317D01*
X131255910Y-108796441D01*
X131468110Y-108941431D01*
X131720000Y-108992440D01*
X133220000Y-108992440D01*
X133455317Y-108948162D01*
X133671441Y-108809090D01*
X133717969Y-108740994D01*
X133860302Y-108883327D01*
X134093691Y-108980000D01*
X134684250Y-108980000D01*
X134843000Y-108821250D01*
X134843000Y-107847000D01*
X135097000Y-107847000D01*
X135097000Y-108821250D01*
X135255750Y-108980000D01*
X135846309Y-108980000D01*
X136079698Y-108883327D01*
X136258327Y-108704699D01*
X136355000Y-108471310D01*
X136355000Y-108005750D01*
X136196250Y-107847000D01*
X135097000Y-107847000D01*
X134843000Y-107847000D01*
X134823000Y-107847000D01*
X134823000Y-107593000D01*
X134843000Y-107593000D01*
X134843000Y-106618750D01*
X135097000Y-106618750D01*
X135097000Y-107593000D01*
X136196250Y-107593000D01*
X136355000Y-107434250D01*
X136355000Y-106968690D01*
X136258327Y-106735301D01*
X136079698Y-106556673D01*
X135846309Y-106460000D01*
X135255750Y-106460000D01*
X135097000Y-106618750D01*
X134843000Y-106618750D01*
X134684250Y-106460000D01*
X134093691Y-106460000D01*
X133860302Y-106556673D01*
X133719064Y-106697910D01*
X133684090Y-106643559D01*
X133471890Y-106498569D01*
X133220000Y-106447560D01*
X132457000Y-106447560D01*
X132457000Y-105827222D01*
X132457317Y-105827162D01*
X132673441Y-105688090D01*
X132818431Y-105475890D01*
X132857290Y-105284000D01*
X133972560Y-105284000D01*
X133972560Y-105370000D01*
X134016838Y-105605317D01*
X134155910Y-105821441D01*
X134368110Y-105966431D01*
X134620000Y-106017440D01*
X136120000Y-106017440D01*
X136355317Y-105973162D01*
X136571441Y-105834090D01*
X136716431Y-105621890D01*
X136723191Y-105588510D01*
X136781673Y-105729699D01*
X136960302Y-105908327D01*
X137193691Y-106005000D01*
X137784250Y-106005000D01*
X137943000Y-105846250D01*
X137943000Y-104847000D01*
X138197000Y-104847000D01*
X138197000Y-105846250D01*
X138355750Y-106005000D01*
X138946309Y-106005000D01*
X139179698Y-105908327D01*
X139358327Y-105729699D01*
X139455000Y-105496310D01*
X139455000Y-105005750D01*
X139296250Y-104847000D01*
X138197000Y-104847000D01*
X137943000Y-104847000D01*
X137923000Y-104847000D01*
X137923000Y-104593000D01*
X137943000Y-104593000D01*
X137943000Y-103593750D01*
X138197000Y-103593750D01*
X138197000Y-104593000D01*
X139296250Y-104593000D01*
X139455000Y-104434250D01*
X139455000Y-103943690D01*
X139358327Y-103710301D01*
X139179698Y-103531673D01*
X138946309Y-103435000D01*
X138355750Y-103435000D01*
X138197000Y-103593750D01*
X137943000Y-103593750D01*
X137784250Y-103435000D01*
X137193691Y-103435000D01*
X136960302Y-103531673D01*
X136781673Y-103710301D01*
X136725346Y-103846287D01*
X136723162Y-103834683D01*
X136584090Y-103618559D01*
X136371890Y-103473569D01*
X136120000Y-103422560D01*
X134620000Y-103422560D01*
X134384683Y-103466838D01*
X134168559Y-103605910D01*
X134128868Y-103664000D01*
X132858150Y-103664000D01*
X132825162Y-103488683D01*
X132686090Y-103272559D01*
X132473890Y-103127569D01*
X132460803Y-103124919D01*
X132673441Y-102988090D01*
X132727481Y-102909000D01*
X133468969Y-102909000D01*
X133557410Y-103046441D01*
X133769610Y-103191431D01*
X134021500Y-103242440D01*
X135418500Y-103242440D01*
X135653817Y-103198162D01*
X135869941Y-103059090D01*
X136014931Y-102846890D01*
X136065940Y-102595000D01*
X136065940Y-101245000D01*
X136021662Y-101009683D01*
X135882590Y-100793559D01*
X135775103Y-100720116D01*
X135869941Y-100659090D01*
X136014931Y-100446890D01*
X136065940Y-100195000D01*
X136065940Y-98845000D01*
X136021662Y-98609683D01*
X135882590Y-98393559D01*
X135855000Y-98374708D01*
X135855000Y-97550000D01*
X135768603Y-97115654D01*
X135628000Y-96905227D01*
X135628000Y-96494975D01*
X135739431Y-96331890D01*
X135790440Y-96080000D01*
X135790440Y-94580000D01*
X135746162Y-94344683D01*
X135607090Y-94128559D01*
X135394890Y-93983569D01*
X135361510Y-93976809D01*
X135502699Y-93918327D01*
X135681327Y-93739698D01*
X135778000Y-93506309D01*
X135778000Y-92915750D01*
X135619250Y-92757000D01*
X134620000Y-92757000D01*
X134620000Y-92777000D01*
X134366000Y-92777000D01*
X134366000Y-92757000D01*
X133366750Y-92757000D01*
X133208000Y-92915750D01*
X133208000Y-93506309D01*
X133304673Y-93739698D01*
X133483301Y-93918327D01*
X133619287Y-93974654D01*
X133607683Y-93976838D01*
X133391559Y-94115910D01*
X133246569Y-94328110D01*
X133195560Y-94580000D01*
X133195560Y-95375861D01*
X132793813Y-95777608D01*
X132815481Y-95668674D01*
X132855001Y-95470000D01*
X132855000Y-95469995D01*
X132855000Y-91753691D01*
X133208000Y-91753691D01*
X133208000Y-92344250D01*
X133366750Y-92503000D01*
X134366000Y-92503000D01*
X134366000Y-91403750D01*
X134620000Y-91403750D01*
X134620000Y-92503000D01*
X135619250Y-92503000D01*
X135778000Y-92344250D01*
X135778000Y-91753691D01*
X135681327Y-91520302D01*
X135502699Y-91341673D01*
X135269310Y-91245000D01*
X134778750Y-91245000D01*
X134620000Y-91403750D01*
X134366000Y-91403750D01*
X134207250Y-91245000D01*
X133716690Y-91245000D01*
X133483301Y-91341673D01*
X133304673Y-91520302D01*
X133208000Y-91753691D01*
X132855000Y-91753691D01*
X132855000Y-90967038D01*
X132955317Y-90948162D01*
X133171441Y-90809090D01*
X133316431Y-90596890D01*
X133367440Y-90345000D01*
X133367440Y-89095000D01*
X133323162Y-88859683D01*
X133289596Y-88807520D01*
X133416431Y-88621890D01*
X133467440Y-88370000D01*
X133467440Y-88155750D01*
X133835000Y-88155750D01*
X133835000Y-89196309D01*
X133931673Y-89429698D01*
X134110301Y-89608327D01*
X134343690Y-89705000D01*
X135434250Y-89705000D01*
X135593000Y-89546250D01*
X135593000Y-87997000D01*
X135847000Y-87997000D01*
X135847000Y-89546250D01*
X136005750Y-89705000D01*
X137096310Y-89705000D01*
X137329699Y-89608327D01*
X137508327Y-89429698D01*
X137605000Y-89196309D01*
X137605000Y-88155750D01*
X137446250Y-87997000D01*
X135847000Y-87997000D01*
X135593000Y-87997000D01*
X133993750Y-87997000D01*
X133835000Y-88155750D01*
X133467440Y-88155750D01*
X133467440Y-87070000D01*
X133423162Y-86834683D01*
X133284090Y-86618559D01*
X133205000Y-86564519D01*
X133205000Y-86543691D01*
X133835000Y-86543691D01*
X133835000Y-87584250D01*
X133993750Y-87743000D01*
X135593000Y-87743000D01*
X135593000Y-86193750D01*
X135847000Y-86193750D01*
X135847000Y-87743000D01*
X137446250Y-87743000D01*
X137605000Y-87584250D01*
X137605000Y-86543691D01*
X137508327Y-86310302D01*
X137329699Y-86131673D01*
X137096310Y-86035000D01*
X136005750Y-86035000D01*
X135847000Y-86193750D01*
X135593000Y-86193750D01*
X135434250Y-86035000D01*
X134343690Y-86035000D01*
X134110301Y-86131673D01*
X133931673Y-86310302D01*
X133835000Y-86543691D01*
X133205000Y-86543691D01*
X133205000Y-85070000D01*
X133118603Y-84635654D01*
X132872566Y-84267434D01*
X132155940Y-83550808D01*
X132155940Y-83075000D01*
X132111662Y-82839683D01*
X131972590Y-82623559D01*
X131865103Y-82550116D01*
X131959941Y-82489090D01*
X131962736Y-82485000D01*
X133822560Y-82485000D01*
X133822560Y-82770000D01*
X133866838Y-83005317D01*
X134005910Y-83221441D01*
X134218110Y-83366431D01*
X134470000Y-83417440D01*
X136970000Y-83417440D01*
X137205317Y-83373162D01*
X137421441Y-83234090D01*
X137566431Y-83021890D01*
X137617440Y-82770000D01*
X137617440Y-80370000D01*
X137573162Y-80134683D01*
X137434090Y-79918559D01*
X137221890Y-79773569D01*
X136980000Y-79724585D01*
X136980000Y-74020005D01*
X136980001Y-74020000D01*
X136884088Y-73537819D01*
X136793458Y-73402181D01*
X136610955Y-73129045D01*
X136610952Y-73129043D01*
X135880000Y-72398090D01*
X135880000Y-71909953D01*
X135969229Y-71873084D01*
X136640726Y-71202758D01*
X137004585Y-70326487D01*
X137005413Y-69377675D01*
X136643084Y-68500771D01*
X135972758Y-67829274D01*
X135096487Y-67465415D01*
X134147675Y-67464587D01*
X133270771Y-67826916D01*
X132599274Y-68497242D01*
X132235415Y-69373513D01*
X132234587Y-70322325D01*
X132596916Y-71199229D01*
X133267242Y-71870726D01*
X133360000Y-71909242D01*
X133360000Y-72919995D01*
X133359999Y-72920000D01*
X133455912Y-73402181D01*
X133729045Y-73810955D01*
X134460000Y-74541909D01*
X134460000Y-79724442D01*
X134234683Y-79766838D01*
X134018559Y-79905910D01*
X133873569Y-80118110D01*
X133853948Y-80215000D01*
X131960063Y-80215000D01*
X131760390Y-80078569D01*
X131508500Y-80027560D01*
X130111500Y-80027560D01*
X129876183Y-80071838D01*
X129660059Y-80210910D01*
X129515069Y-80423110D01*
X129464060Y-80675000D01*
X129464060Y-82025000D01*
X129508338Y-82260317D01*
X129647410Y-82476441D01*
X129754897Y-82549884D01*
X129660059Y-82610910D01*
X129515069Y-82823110D01*
X129464060Y-83075000D01*
X129464060Y-84425000D01*
X129508338Y-84660317D01*
X129647410Y-84876441D01*
X129859610Y-85021431D01*
X130111500Y-85072440D01*
X130467308Y-85072440D01*
X130935000Y-85540132D01*
X130935000Y-86563156D01*
X130868559Y-86605910D01*
X130723569Y-86818110D01*
X130716809Y-86851490D01*
X130658327Y-86710301D01*
X130479698Y-86531673D01*
X130246309Y-86435000D01*
X129655750Y-86435000D01*
X129497000Y-86593750D01*
X129497000Y-87593000D01*
X129517000Y-87593000D01*
X129517000Y-87847000D01*
X129497000Y-87847000D01*
X129497000Y-88846250D01*
X129597000Y-88946250D01*
X129597000Y-89593000D01*
X129617000Y-89593000D01*
X129617000Y-89847000D01*
X129597000Y-89847000D01*
X129597000Y-90821250D01*
X129755750Y-90980000D01*
X130346309Y-90980000D01*
X130579698Y-90883327D01*
X130720936Y-90742090D01*
X130755910Y-90796441D01*
X130968110Y-90941431D01*
X131085000Y-90965102D01*
X131085000Y-94128335D01*
X131013327Y-93955301D01*
X130834698Y-93776673D01*
X130601309Y-93680000D01*
X129985750Y-93680000D01*
X129827000Y-93838750D01*
X129827000Y-94488000D01*
X129847000Y-94488000D01*
X129847000Y-94742000D01*
X129827000Y-94742000D01*
X129827000Y-94762000D01*
X129573000Y-94762000D01*
X129573000Y-94742000D01*
X128448750Y-94742000D01*
X128290000Y-94900750D01*
X128290000Y-95041310D01*
X128379806Y-95258122D01*
X128328569Y-95333110D01*
X128277560Y-95585000D01*
X128277560Y-96185000D01*
X128321838Y-96420317D01*
X128385678Y-96519528D01*
X128328569Y-96603110D01*
X128277560Y-96855000D01*
X128277560Y-97455000D01*
X128321838Y-97690317D01*
X128385678Y-97789528D01*
X128328569Y-97873110D01*
X128277560Y-98125000D01*
X128277560Y-98725000D01*
X128321838Y-98960317D01*
X128460910Y-99176441D01*
X128673110Y-99321431D01*
X128925000Y-99372440D01*
X130320860Y-99372440D01*
X130687000Y-99738579D01*
X130687000Y-100420778D01*
X130686683Y-100420838D01*
X130470559Y-100559910D01*
X130325569Y-100772110D01*
X130274560Y-101024000D01*
X130274560Y-102524000D01*
X130318838Y-102759317D01*
X130457910Y-102975441D01*
X130670110Y-103120431D01*
X130683197Y-103123081D01*
X130470559Y-103259910D01*
X130325569Y-103472110D01*
X130274560Y-103724000D01*
X130274560Y-103760000D01*
X129017038Y-103760000D01*
X128998162Y-103659683D01*
X128859090Y-103443559D01*
X128646890Y-103298569D01*
X128395000Y-103247560D01*
X127995000Y-103247560D01*
X127865411Y-103271944D01*
X127745000Y-103247560D01*
X127345000Y-103247560D01*
X127239295Y-103267450D01*
X127221309Y-103260000D01*
X127153750Y-103260000D01*
X127124746Y-103289004D01*
X127109683Y-103291838D01*
X126893559Y-103430910D01*
X126892610Y-103432299D01*
X126696890Y-103298569D01*
X126669215Y-103292965D01*
X126636250Y-103260000D01*
X126568691Y-103260000D01*
X126548247Y-103268468D01*
X126445000Y-103247560D01*
X126045000Y-103247560D01*
X125809683Y-103291838D01*
X125593559Y-103430910D01*
X125572316Y-103462000D01*
X125320464Y-103462000D01*
X125352192Y-103430327D01*
X125402566Y-103309014D01*
X126220139Y-102491440D01*
X126881000Y-102491440D01*
X127116317Y-102447162D01*
X127332441Y-102308090D01*
X127378969Y-102239994D01*
X127521302Y-102382327D01*
X127754691Y-102479000D01*
X128345250Y-102479000D01*
X128504000Y-102320250D01*
X128504000Y-101346000D01*
X128758000Y-101346000D01*
X128758000Y-102320250D01*
X128916750Y-102479000D01*
X129507309Y-102479000D01*
X129740698Y-102382327D01*
X129919327Y-102203699D01*
X130016000Y-101970310D01*
X130016000Y-101504750D01*
X129857250Y-101346000D01*
X128758000Y-101346000D01*
X128504000Y-101346000D01*
X128484000Y-101346000D01*
X128484000Y-101092000D01*
X128504000Y-101092000D01*
X128504000Y-100117750D01*
X128758000Y-100117750D01*
X128758000Y-101092000D01*
X129857250Y-101092000D01*
X130016000Y-100933250D01*
X130016000Y-100467690D01*
X129919327Y-100234301D01*
X129740698Y-100055673D01*
X129507309Y-99959000D01*
X128916750Y-99959000D01*
X128758000Y-100117750D01*
X128504000Y-100117750D01*
X128345250Y-99959000D01*
X127754691Y-99959000D01*
X127521302Y-100055673D01*
X127380064Y-100196910D01*
X127345090Y-100142559D01*
X127132890Y-99997569D01*
X126881000Y-99946560D01*
X125381000Y-99946560D01*
X125185000Y-99983440D01*
X125185000Y-99351742D01*
X125310317Y-99328162D01*
X125526441Y-99189090D01*
X125671431Y-98976890D01*
X125722440Y-98725000D01*
X125722440Y-98125000D01*
X125678162Y-97889683D01*
X125614322Y-97790472D01*
X125671431Y-97706890D01*
X125722440Y-97455000D01*
X125722440Y-96855000D01*
X125678162Y-96619683D01*
X125614322Y-96520472D01*
X125671431Y-96436890D01*
X125722440Y-96185000D01*
X125722440Y-95585000D01*
X125678162Y-95349683D01*
X125614322Y-95250472D01*
X125671431Y-95166890D01*
X125722440Y-94915000D01*
X125722440Y-94315000D01*
X125698674Y-94188690D01*
X128290000Y-94188690D01*
X128290000Y-94329250D01*
X128448750Y-94488000D01*
X129573000Y-94488000D01*
X129573000Y-93838750D01*
X129414250Y-93680000D01*
X128798691Y-93680000D01*
X128565302Y-93776673D01*
X128386673Y-93955301D01*
X128290000Y-94188690D01*
X125698674Y-94188690D01*
X125678162Y-94079683D01*
X125539090Y-93863559D01*
X125326890Y-93718569D01*
X125075000Y-93667560D01*
X123525000Y-93667560D01*
X123520068Y-93668488D01*
X123355000Y-93503420D01*
X123355000Y-90967038D01*
X123455317Y-90948162D01*
X123671441Y-90809090D01*
X123717969Y-90740994D01*
X123860302Y-90883327D01*
X124093691Y-90980000D01*
X124684250Y-90980000D01*
X124843000Y-90821250D01*
X124843000Y-89847000D01*
X125097000Y-89847000D01*
X125097000Y-90821250D01*
X125255750Y-90980000D01*
X125846309Y-90980000D01*
X126079698Y-90883327D01*
X126258327Y-90704699D01*
X126355000Y-90471310D01*
X126355000Y-90005750D01*
X128085000Y-90005750D01*
X128085000Y-90471310D01*
X128181673Y-90704699D01*
X128360302Y-90883327D01*
X128593691Y-90980000D01*
X129184250Y-90980000D01*
X129343000Y-90821250D01*
X129343000Y-89847000D01*
X128243750Y-89847000D01*
X128085000Y-90005750D01*
X126355000Y-90005750D01*
X126196250Y-89847000D01*
X125097000Y-89847000D01*
X124843000Y-89847000D01*
X124823000Y-89847000D01*
X124823000Y-89593000D01*
X124843000Y-89593000D01*
X124843000Y-88946250D01*
X124943000Y-88846250D01*
X124943000Y-88618750D01*
X125097000Y-88618750D01*
X125097000Y-89593000D01*
X126196250Y-89593000D01*
X126355000Y-89434250D01*
X126355000Y-88968690D01*
X126285975Y-88802050D01*
X126358327Y-88729699D01*
X126455000Y-88496310D01*
X126455000Y-88005750D01*
X127985000Y-88005750D01*
X127985000Y-88496310D01*
X128081673Y-88729699D01*
X128154025Y-88802050D01*
X128085000Y-88968690D01*
X128085000Y-89434250D01*
X128243750Y-89593000D01*
X129343000Y-89593000D01*
X129343000Y-88618750D01*
X129243000Y-88518750D01*
X129243000Y-87847000D01*
X128143750Y-87847000D01*
X127985000Y-88005750D01*
X126455000Y-88005750D01*
X126296250Y-87847000D01*
X125197000Y-87847000D01*
X125197000Y-88518750D01*
X125097000Y-88618750D01*
X124943000Y-88618750D01*
X124943000Y-87847000D01*
X124923000Y-87847000D01*
X124923000Y-87593000D01*
X124943000Y-87593000D01*
X124943000Y-86593750D01*
X125197000Y-86593750D01*
X125197000Y-87593000D01*
X126296250Y-87593000D01*
X126455000Y-87434250D01*
X126455000Y-86943690D01*
X127985000Y-86943690D01*
X127985000Y-87434250D01*
X128143750Y-87593000D01*
X129243000Y-87593000D01*
X129243000Y-86593750D01*
X129084250Y-86435000D01*
X128493691Y-86435000D01*
X128260302Y-86531673D01*
X128081673Y-86710301D01*
X127985000Y-86943690D01*
X126455000Y-86943690D01*
X126358327Y-86710301D01*
X126179698Y-86531673D01*
X125946309Y-86435000D01*
X125355750Y-86435000D01*
X125197000Y-86593750D01*
X124943000Y-86593750D01*
X124784250Y-86435000D01*
X124193691Y-86435000D01*
X123960302Y-86531673D01*
X123781673Y-86710301D01*
X123725346Y-86846287D01*
X123723162Y-86834683D01*
X123584090Y-86618559D01*
X123505000Y-86564519D01*
X123505000Y-85840132D01*
X124272692Y-85072440D01*
X125158500Y-85072440D01*
X125393817Y-85028162D01*
X125609941Y-84889090D01*
X125754931Y-84676890D01*
X125805940Y-84425000D01*
X125805940Y-83075000D01*
X125761662Y-82839683D01*
X125622590Y-82623559D01*
X125515103Y-82550116D01*
X125609941Y-82489090D01*
X125754931Y-82276890D01*
X125805940Y-82025000D01*
X125805940Y-80675000D01*
X125761662Y-80439683D01*
X125622590Y-80223559D01*
X125410390Y-80078569D01*
X125158500Y-80027560D01*
X123761500Y-80027560D01*
X123526183Y-80071838D01*
X123310059Y-80210910D01*
X123307264Y-80215000D01*
X120588275Y-80215000D01*
X120573162Y-80134683D01*
X120434090Y-79918559D01*
X120221890Y-79773569D01*
X119980000Y-79724585D01*
X119980000Y-76624528D01*
X128025077Y-76624528D01*
X128215364Y-76969271D01*
X129096591Y-77320956D01*
X130045323Y-77308641D01*
X130864636Y-76969271D01*
X131054923Y-76624528D01*
X129540000Y-75109605D01*
X128025077Y-76624528D01*
X119980000Y-76624528D01*
X119980000Y-74486591D01*
X127149044Y-74486591D01*
X127161359Y-75435323D01*
X127500729Y-76254636D01*
X127845472Y-76444923D01*
X129360395Y-74930000D01*
X129719605Y-74930000D01*
X131234528Y-76444923D01*
X131579271Y-76254636D01*
X131930956Y-75373409D01*
X131918641Y-74424677D01*
X131579271Y-73605364D01*
X131234528Y-73415077D01*
X129719605Y-74930000D01*
X129360395Y-74930000D01*
X127845472Y-73415077D01*
X127500729Y-73605364D01*
X127149044Y-74486591D01*
X119980000Y-74486591D01*
X119980000Y-73235472D01*
X128025077Y-73235472D01*
X129540000Y-74750395D01*
X131054923Y-73235472D01*
X130864636Y-72890729D01*
X129983409Y-72539044D01*
X129034677Y-72551359D01*
X128215364Y-72890729D01*
X128025077Y-73235472D01*
X119980000Y-73235472D01*
X119980000Y-72182659D01*
X120729229Y-71873084D01*
X121400726Y-71202758D01*
X121764585Y-70326487D01*
X121765413Y-69377675D01*
X121709802Y-69243087D01*
X121864088Y-69012181D01*
X121866344Y-69000840D01*
X121960001Y-68530000D01*
X121960000Y-68529995D01*
X121960000Y-65242325D01*
X122074587Y-65242325D01*
X122436916Y-66119229D01*
X123107242Y-66790726D01*
X123983513Y-67154585D01*
X124932325Y-67155413D01*
X125809229Y-66793084D01*
X126480726Y-66122758D01*
X126707458Y-65576724D01*
X135135882Y-65576724D01*
X135283455Y-65885106D01*
X136038031Y-66178405D01*
X136847409Y-66160614D01*
X137512545Y-65885106D01*
X137660118Y-65576724D01*
X140215882Y-65576724D01*
X140363455Y-65885106D01*
X141118031Y-66178405D01*
X141927409Y-66160614D01*
X142592545Y-65885106D01*
X142740118Y-65576724D01*
X141478000Y-64314605D01*
X140215882Y-65576724D01*
X137660118Y-65576724D01*
X136398000Y-64314605D01*
X135135882Y-65576724D01*
X126707458Y-65576724D01*
X126844585Y-65246487D01*
X126845413Y-64297675D01*
X126629462Y-63775031D01*
X134354595Y-63775031D01*
X134372386Y-64584409D01*
X134647894Y-65249545D01*
X134956276Y-65397118D01*
X136218395Y-64135000D01*
X134956276Y-62872882D01*
X134647894Y-63020455D01*
X134354595Y-63775031D01*
X126629462Y-63775031D01*
X126483084Y-63420771D01*
X125812758Y-62749274D01*
X124936487Y-62385415D01*
X123987675Y-62384587D01*
X123110771Y-62746916D01*
X122439274Y-63417242D01*
X122075415Y-64293513D01*
X122074587Y-65242325D01*
X121960000Y-65242325D01*
X121960000Y-62241910D01*
X124087382Y-60114528D01*
X128025077Y-60114528D01*
X128215364Y-60459271D01*
X129096591Y-60810956D01*
X130045323Y-60798641D01*
X130774216Y-60496724D01*
X135135882Y-60496724D01*
X135283455Y-60805106D01*
X136038031Y-61098405D01*
X136847409Y-61080614D01*
X136969048Y-61030230D01*
X136903354Y-61188438D01*
X136902648Y-61998011D01*
X136976397Y-62176496D01*
X136757969Y-62091595D01*
X135948591Y-62109386D01*
X135283455Y-62384894D01*
X135135882Y-62693276D01*
X136398000Y-63955395D01*
X136412143Y-63941253D01*
X136591748Y-64120858D01*
X136577605Y-64135000D01*
X137839724Y-65397118D01*
X138148106Y-65249545D01*
X138441405Y-64494969D01*
X138423614Y-63685591D01*
X138373230Y-63563952D01*
X138531438Y-63629646D01*
X139341011Y-63630352D01*
X139519496Y-63556603D01*
X139434595Y-63775031D01*
X139452386Y-64584409D01*
X139727894Y-65249545D01*
X140036276Y-65397118D01*
X141298395Y-64135000D01*
X141657605Y-64135000D01*
X142919724Y-65397118D01*
X143228106Y-65249545D01*
X143521405Y-64494969D01*
X143503614Y-63685591D01*
X143228106Y-63020455D01*
X142919724Y-62872882D01*
X141657605Y-64135000D01*
X141298395Y-64135000D01*
X141284253Y-64120858D01*
X141463858Y-63941252D01*
X141478000Y-63955395D01*
X142740118Y-62693276D01*
X142592545Y-62384894D01*
X141837969Y-62091595D01*
X141028591Y-62109386D01*
X140906952Y-62159770D01*
X140972646Y-62001562D01*
X140973352Y-61191989D01*
X140899603Y-61013504D01*
X141118031Y-61098405D01*
X141927409Y-61080614D01*
X142592545Y-60805106D01*
X142740118Y-60496724D01*
X141478000Y-59234605D01*
X141463858Y-59248748D01*
X141284252Y-59069142D01*
X141298395Y-59055000D01*
X141657605Y-59055000D01*
X142919724Y-60317118D01*
X143228106Y-60169545D01*
X143521405Y-59414969D01*
X143503614Y-58605591D01*
X143228106Y-57940455D01*
X142919724Y-57792882D01*
X141657605Y-59055000D01*
X141298395Y-59055000D01*
X140036276Y-57792882D01*
X139727894Y-57940455D01*
X139434595Y-58695031D01*
X139452386Y-59504409D01*
X139502770Y-59626048D01*
X139344562Y-59560354D01*
X138534989Y-59559648D01*
X138356504Y-59633397D01*
X138441405Y-59414969D01*
X138423614Y-58605591D01*
X138148106Y-57940455D01*
X137839724Y-57792882D01*
X136577605Y-59055000D01*
X136591748Y-59069143D01*
X136412142Y-59248748D01*
X136398000Y-59234605D01*
X135135882Y-60496724D01*
X130774216Y-60496724D01*
X130864636Y-60459271D01*
X131054923Y-60114528D01*
X129540000Y-58599605D01*
X128025077Y-60114528D01*
X124087382Y-60114528D01*
X125350955Y-58850955D01*
X125624088Y-58442181D01*
X125716700Y-57976591D01*
X127149044Y-57976591D01*
X127161359Y-58925323D01*
X127500729Y-59744636D01*
X127845472Y-59934923D01*
X129360395Y-58420000D01*
X129719605Y-58420000D01*
X131234528Y-59934923D01*
X131579271Y-59744636D01*
X131930956Y-58863409D01*
X131928771Y-58695031D01*
X134354595Y-58695031D01*
X134372386Y-59504409D01*
X134647894Y-60169545D01*
X134956276Y-60317118D01*
X136218395Y-59055000D01*
X134956276Y-57792882D01*
X134647894Y-57940455D01*
X134354595Y-58695031D01*
X131928771Y-58695031D01*
X131918641Y-57914677D01*
X131793797Y-57613276D01*
X135135882Y-57613276D01*
X136398000Y-58875395D01*
X137660118Y-57613276D01*
X140215882Y-57613276D01*
X141478000Y-58875395D01*
X142740118Y-57613276D01*
X142592545Y-57304894D01*
X141837969Y-57011595D01*
X141028591Y-57029386D01*
X140363455Y-57304894D01*
X140215882Y-57613276D01*
X137660118Y-57613276D01*
X137512545Y-57304894D01*
X136757969Y-57011595D01*
X135948591Y-57029386D01*
X135283455Y-57304894D01*
X135135882Y-57613276D01*
X131793797Y-57613276D01*
X131579271Y-57095364D01*
X131234528Y-56905077D01*
X129719605Y-58420000D01*
X129360395Y-58420000D01*
X127845472Y-56905077D01*
X127500729Y-57095364D01*
X127149044Y-57976591D01*
X125716700Y-57976591D01*
X125720001Y-57960000D01*
X125720000Y-57959995D01*
X125720000Y-56725472D01*
X128025077Y-56725472D01*
X129540000Y-58240395D01*
X131054923Y-56725472D01*
X130864636Y-56380729D01*
X129983409Y-56029044D01*
X129034677Y-56041359D01*
X128215364Y-56380729D01*
X128025077Y-56725472D01*
X125720000Y-56725472D01*
X125720000Y-53812325D01*
X132234587Y-53812325D01*
X132596916Y-54689229D01*
X133267242Y-55360726D01*
X134143513Y-55724585D01*
X135092325Y-55725413D01*
X135969229Y-55363084D01*
X136640726Y-54692758D01*
X137004585Y-53816487D01*
X137005413Y-52867675D01*
X136643084Y-51990771D01*
X135972758Y-51319274D01*
X135096487Y-50955415D01*
X134147675Y-50954587D01*
X133270771Y-51316916D01*
X132599274Y-51987242D01*
X132235415Y-52863513D01*
X132234587Y-53812325D01*
X125720000Y-53812325D01*
X125720000Y-50319953D01*
X125809229Y-50283084D01*
X126480726Y-49612758D01*
X126844585Y-48736487D01*
X126845413Y-47787675D01*
X126483084Y-46910771D01*
X125812758Y-46239274D01*
X124936487Y-45875415D01*
X123987675Y-45874587D01*
X123110771Y-46236916D01*
X122439274Y-46907242D01*
X122075415Y-47783513D01*
X122074587Y-48732325D01*
X122436916Y-49609229D01*
X123107242Y-50280726D01*
X123200000Y-50319242D01*
X123200000Y-57438090D01*
X119809045Y-60829045D01*
X119535912Y-61237819D01*
X119439999Y-61720000D01*
X119440000Y-61720005D01*
X119440000Y-62874741D01*
X119170724Y-62745882D01*
X117908605Y-64008000D01*
X119170724Y-65270118D01*
X119440000Y-65141259D01*
X119440000Y-67465052D01*
X118907675Y-67464587D01*
X118030771Y-67826916D01*
X117359274Y-68497242D01*
X116995415Y-69373513D01*
X116994587Y-70322325D01*
X117356916Y-71199229D01*
X117460000Y-71302493D01*
X117460000Y-79724442D01*
X117234683Y-79766838D01*
X117018559Y-79905910D01*
X116873569Y-80118110D01*
X116822560Y-80370000D01*
X116822560Y-82770000D01*
X116866838Y-83005317D01*
X117005910Y-83221441D01*
X117218110Y-83366431D01*
X117470000Y-83417440D01*
X119970000Y-83417440D01*
X120205317Y-83373162D01*
X120421441Y-83234090D01*
X120566431Y-83021890D01*
X120617440Y-82770000D01*
X120617440Y-82485000D01*
X123309937Y-82485000D01*
X123404897Y-82549884D01*
X123310059Y-82610910D01*
X123165069Y-82823110D01*
X123127821Y-83007047D01*
X121567434Y-84567434D01*
X121321397Y-84935654D01*
X121235000Y-85370000D01*
X121235000Y-86563156D01*
X121168559Y-86605910D01*
X121023569Y-86818110D01*
X120972560Y-87070000D01*
X120972560Y-88370000D01*
X121016838Y-88605317D01*
X121147405Y-88808224D01*
X121123569Y-88843110D01*
X121072560Y-89095000D01*
X121072560Y-90345000D01*
X121116838Y-90580317D01*
X121255910Y-90796441D01*
X121468110Y-90941431D01*
X121585000Y-90965102D01*
X121585000Y-93869995D01*
X121584999Y-93870000D01*
X121607590Y-93983569D01*
X121652367Y-94208675D01*
X121743244Y-94344683D01*
X121844210Y-94495790D01*
X122348421Y-95000000D01*
X120677440Y-95000000D01*
X120677440Y-94580000D01*
X120633162Y-94344683D01*
X120494090Y-94128559D01*
X120281890Y-93983569D01*
X120248510Y-93976809D01*
X120389699Y-93918327D01*
X120568327Y-93739698D01*
X120665000Y-93506309D01*
X120665000Y-92915750D01*
X120506250Y-92757000D01*
X119507000Y-92757000D01*
X119507000Y-92777000D01*
X119253000Y-92777000D01*
X119253000Y-92757000D01*
X118253750Y-92757000D01*
X118095000Y-92915750D01*
X118095000Y-93506309D01*
X118191673Y-93739698D01*
X118370301Y-93918327D01*
X118506287Y-93974654D01*
X118494683Y-93976838D01*
X118278559Y-94115910D01*
X118133569Y-94328110D01*
X118082560Y-94580000D01*
X118082560Y-96080000D01*
X118126838Y-96315317D01*
X118245000Y-96498946D01*
X118245000Y-97060000D01*
X118331397Y-97494346D01*
X118453893Y-97677674D01*
X118577434Y-97862566D01*
X118585000Y-97870132D01*
X118585000Y-98371296D01*
X118570059Y-98380910D01*
X118425069Y-98593110D01*
X118374060Y-98845000D01*
X118374060Y-100195000D01*
X118418338Y-100430317D01*
X118557410Y-100646441D01*
X118664897Y-100719884D01*
X118570059Y-100780910D01*
X118425069Y-100993110D01*
X118374060Y-101245000D01*
X118374060Y-102595000D01*
X118418338Y-102830317D01*
X118557410Y-103046441D01*
X118769610Y-103191431D01*
X119021500Y-103242440D01*
X120418500Y-103242440D01*
X120653817Y-103198162D01*
X120869941Y-103059090D01*
X121014931Y-102846890D01*
X121023414Y-102805000D01*
X121158956Y-102805000D01*
X121186910Y-102848441D01*
X121399110Y-102993431D01*
X121412197Y-102996081D01*
X121199559Y-103132910D01*
X121054569Y-103345110D01*
X121003560Y-103597000D01*
X121003560Y-103835000D01*
X120423222Y-103835000D01*
X120423162Y-103834683D01*
X120284090Y-103618559D01*
X120071890Y-103473569D01*
X119820000Y-103422560D01*
X118320000Y-103422560D01*
X118084683Y-103466838D01*
X117868559Y-103605910D01*
X117723569Y-103818110D01*
X117716809Y-103851490D01*
X117658327Y-103710301D01*
X117479698Y-103531673D01*
X117246309Y-103435000D01*
X116655750Y-103435000D01*
X116497000Y-103593750D01*
X116243000Y-103593750D01*
X116084250Y-103435000D01*
X115493691Y-103435000D01*
X115260302Y-103531673D01*
X115081673Y-103710301D01*
X114985000Y-103943690D01*
X109430000Y-103943690D01*
X109430000Y-91753691D01*
X118095000Y-91753691D01*
X118095000Y-92344250D01*
X118253750Y-92503000D01*
X119253000Y-92503000D01*
X119253000Y-91403750D01*
X119507000Y-91403750D01*
X119507000Y-92503000D01*
X120506250Y-92503000D01*
X120665000Y-92344250D01*
X120665000Y-91753691D01*
X120568327Y-91520302D01*
X120389699Y-91341673D01*
X120156310Y-91245000D01*
X119665750Y-91245000D01*
X119507000Y-91403750D01*
X119253000Y-91403750D01*
X119094250Y-91245000D01*
X118603690Y-91245000D01*
X118370301Y-91341673D01*
X118191673Y-91520302D01*
X118095000Y-91753691D01*
X109430000Y-91753691D01*
X109430000Y-88155750D01*
X116835000Y-88155750D01*
X116835000Y-89196309D01*
X116931673Y-89429698D01*
X117110301Y-89608327D01*
X117343690Y-89705000D01*
X118434250Y-89705000D01*
X118593000Y-89546250D01*
X118593000Y-87997000D01*
X118847000Y-87997000D01*
X118847000Y-89546250D01*
X119005750Y-89705000D01*
X120096310Y-89705000D01*
X120329699Y-89608327D01*
X120508327Y-89429698D01*
X120605000Y-89196309D01*
X120605000Y-88155750D01*
X120446250Y-87997000D01*
X118847000Y-87997000D01*
X118593000Y-87997000D01*
X116993750Y-87997000D01*
X116835000Y-88155750D01*
X109430000Y-88155750D01*
X109430000Y-86543691D01*
X116835000Y-86543691D01*
X116835000Y-87584250D01*
X116993750Y-87743000D01*
X118593000Y-87743000D01*
X118593000Y-86193750D01*
X118847000Y-86193750D01*
X118847000Y-87743000D01*
X120446250Y-87743000D01*
X120605000Y-87584250D01*
X120605000Y-86543691D01*
X120508327Y-86310302D01*
X120329699Y-86131673D01*
X120096310Y-86035000D01*
X119005750Y-86035000D01*
X118847000Y-86193750D01*
X118593000Y-86193750D01*
X118434250Y-86035000D01*
X117343690Y-86035000D01*
X117110301Y-86131673D01*
X116931673Y-86310302D01*
X116835000Y-86543691D01*
X109430000Y-86543691D01*
X109430000Y-65449724D01*
X111386882Y-65449724D01*
X111534455Y-65758106D01*
X112289031Y-66051405D01*
X113098409Y-66033614D01*
X113763545Y-65758106D01*
X113911118Y-65449724D01*
X116466882Y-65449724D01*
X116614455Y-65758106D01*
X117369031Y-66051405D01*
X118178409Y-66033614D01*
X118843545Y-65758106D01*
X118991118Y-65449724D01*
X117729000Y-64187605D01*
X116466882Y-65449724D01*
X113911118Y-65449724D01*
X112649000Y-64187605D01*
X111386882Y-65449724D01*
X109430000Y-65449724D01*
X109430000Y-63648031D01*
X110605595Y-63648031D01*
X110623386Y-64457409D01*
X110898894Y-65122545D01*
X111207276Y-65270118D01*
X112469395Y-64008000D01*
X111207276Y-62745882D01*
X110898894Y-62893455D01*
X110605595Y-63648031D01*
X109430000Y-63648031D01*
X109430000Y-60369724D01*
X111386882Y-60369724D01*
X111534455Y-60678106D01*
X112289031Y-60971405D01*
X113098409Y-60953614D01*
X113220048Y-60903230D01*
X113154354Y-61061438D01*
X113153648Y-61871011D01*
X113227397Y-62049496D01*
X113008969Y-61964595D01*
X112199591Y-61982386D01*
X111534455Y-62257894D01*
X111386882Y-62566276D01*
X112649000Y-63828395D01*
X112663143Y-63814253D01*
X112842748Y-63993858D01*
X112828605Y-64008000D01*
X114090724Y-65270118D01*
X114399106Y-65122545D01*
X114692405Y-64367969D01*
X114674614Y-63558591D01*
X114624230Y-63436952D01*
X114782438Y-63502646D01*
X115592011Y-63503352D01*
X115770496Y-63429603D01*
X115685595Y-63648031D01*
X115703386Y-64457409D01*
X115978894Y-65122545D01*
X116287276Y-65270118D01*
X117549395Y-64008000D01*
X117535253Y-63993858D01*
X117714858Y-63814252D01*
X117729000Y-63828395D01*
X118991118Y-62566276D01*
X118843545Y-62257894D01*
X118088969Y-61964595D01*
X117279591Y-61982386D01*
X117157952Y-62032770D01*
X117223646Y-61874562D01*
X117224352Y-61064989D01*
X117150603Y-60886504D01*
X117369031Y-60971405D01*
X118178409Y-60953614D01*
X118843545Y-60678106D01*
X118991118Y-60369724D01*
X117729000Y-59107605D01*
X117714858Y-59121748D01*
X117535252Y-58942142D01*
X117549395Y-58928000D01*
X117908605Y-58928000D01*
X119170724Y-60190118D01*
X119479106Y-60042545D01*
X119772405Y-59287969D01*
X119754614Y-58478591D01*
X119479106Y-57813455D01*
X119170724Y-57665882D01*
X117908605Y-58928000D01*
X117549395Y-58928000D01*
X116287276Y-57665882D01*
X115978894Y-57813455D01*
X115685595Y-58568031D01*
X115703386Y-59377409D01*
X115753770Y-59499048D01*
X115595562Y-59433354D01*
X114785989Y-59432648D01*
X114607504Y-59506397D01*
X114692405Y-59287969D01*
X114674614Y-58478591D01*
X114399106Y-57813455D01*
X114090724Y-57665882D01*
X112828605Y-58928000D01*
X112842748Y-58942143D01*
X112663142Y-59121748D01*
X112649000Y-59107605D01*
X111386882Y-60369724D01*
X109430000Y-60369724D01*
X109430000Y-58568031D01*
X110605595Y-58568031D01*
X110623386Y-59377409D01*
X110898894Y-60042545D01*
X111207276Y-60190118D01*
X112469395Y-58928000D01*
X111207276Y-57665882D01*
X110898894Y-57813455D01*
X110605595Y-58568031D01*
X109430000Y-58568031D01*
X109430000Y-57486276D01*
X111386882Y-57486276D01*
X112649000Y-58748395D01*
X113911118Y-57486276D01*
X116466882Y-57486276D01*
X117729000Y-58748395D01*
X118991118Y-57486276D01*
X118843545Y-57177894D01*
X118088969Y-56884595D01*
X117279591Y-56902386D01*
X116614455Y-57177894D01*
X116466882Y-57486276D01*
X113911118Y-57486276D01*
X113763545Y-57177894D01*
X113008969Y-56884595D01*
X112199591Y-56902386D01*
X111534455Y-57177894D01*
X111386882Y-57486276D01*
X109430000Y-57486276D01*
X109430000Y-53812325D01*
X116994587Y-53812325D01*
X117356916Y-54689229D01*
X118027242Y-55360726D01*
X118903513Y-55724585D01*
X119852325Y-55725413D01*
X120729229Y-55363084D01*
X121400726Y-54692758D01*
X121764585Y-53816487D01*
X121765413Y-52867675D01*
X121403084Y-51990771D01*
X120732758Y-51319274D01*
X119856487Y-50955415D01*
X118907675Y-50954587D01*
X118030771Y-51316916D01*
X117359274Y-51987242D01*
X116995415Y-52863513D01*
X116994587Y-53812325D01*
X109430000Y-53812325D01*
X109430000Y-44430000D01*
X145010000Y-44430000D01*
X145010000Y-117010000D01*
X145010000Y-117010000D01*
G37*
X145010000Y-117010000D02*
X109430000Y-117010000D01*
X109430000Y-108005750D01*
X118085000Y-108005750D01*
X118085000Y-108471310D01*
X118181673Y-108704699D01*
X118360302Y-108883327D01*
X118593691Y-108980000D01*
X119184250Y-108980000D01*
X119343000Y-108821250D01*
X119343000Y-107847000D01*
X118243750Y-107847000D01*
X118085000Y-108005750D01*
X109430000Y-108005750D01*
X109430000Y-106968690D01*
X118085000Y-106968690D01*
X118085000Y-107434250D01*
X118243750Y-107593000D01*
X119343000Y-107593000D01*
X119343000Y-106618750D01*
X119184250Y-106460000D01*
X118593691Y-106460000D01*
X118360302Y-106556673D01*
X118181673Y-106735301D01*
X118085000Y-106968690D01*
X109430000Y-106968690D01*
X109430000Y-105005750D01*
X114985000Y-105005750D01*
X114985000Y-105496310D01*
X115081673Y-105729699D01*
X115260302Y-105908327D01*
X115493691Y-106005000D01*
X116084250Y-106005000D01*
X116243000Y-105846250D01*
X116243000Y-104847000D01*
X115143750Y-104847000D01*
X114985000Y-105005750D01*
X109430000Y-105005750D01*
X109430000Y-103943690D01*
X114985000Y-103943690D01*
X114985000Y-104434250D01*
X115143750Y-104593000D01*
X116243000Y-104593000D01*
X116243000Y-103593750D01*
X116497000Y-103593750D01*
X116497000Y-104593000D01*
X116517000Y-104593000D01*
X116517000Y-104847000D01*
X116497000Y-104847000D01*
X116497000Y-105846250D01*
X116655750Y-106005000D01*
X117246309Y-106005000D01*
X117479698Y-105908327D01*
X117658327Y-105729699D01*
X117714654Y-105593713D01*
X117716838Y-105605317D01*
X117855910Y-105821441D01*
X118068110Y-105966431D01*
X118320000Y-106017440D01*
X119820000Y-106017440D01*
X120055317Y-105973162D01*
X120271441Y-105834090D01*
X120416431Y-105621890D01*
X120419851Y-105605000D01*
X121269687Y-105605000D01*
X121399110Y-105693431D01*
X121416000Y-105696851D01*
X121416000Y-106447560D01*
X121220000Y-106447560D01*
X120984683Y-106491838D01*
X120768559Y-106630910D01*
X120722031Y-106699006D01*
X120579698Y-106556673D01*
X120346309Y-106460000D01*
X119755750Y-106460000D01*
X119597000Y-106618750D01*
X119597000Y-107593000D01*
X119617000Y-107593000D01*
X119617000Y-107847000D01*
X119597000Y-107847000D01*
X119597000Y-108821250D01*
X119755750Y-108980000D01*
X120346309Y-108980000D01*
X120579698Y-108883327D01*
X120720936Y-108742090D01*
X120755910Y-108796441D01*
X120968110Y-108941431D01*
X121220000Y-108992440D01*
X121395166Y-108992440D01*
X121302367Y-109131325D01*
X121302367Y-109131326D01*
X121234999Y-109470000D01*
X121235000Y-109470005D01*
X121235000Y-109516778D01*
X121234683Y-109516838D01*
X121018559Y-109655910D01*
X120873569Y-109868110D01*
X120822560Y-110120000D01*
X120822560Y-111620000D01*
X120866838Y-111855317D01*
X121005910Y-112071441D01*
X121218110Y-112216431D01*
X121231197Y-112219081D01*
X121018559Y-112355910D01*
X120873569Y-112568110D01*
X120822560Y-112820000D01*
X120822560Y-114320000D01*
X120866838Y-114555317D01*
X121005910Y-114771441D01*
X121218110Y-114916431D01*
X121470000Y-114967440D01*
X122770000Y-114967440D01*
X123005317Y-114923162D01*
X123221441Y-114784090D01*
X123222390Y-114782701D01*
X123418110Y-114916431D01*
X123670000Y-114967440D01*
X124970000Y-114967440D01*
X125205317Y-114923162D01*
X125421441Y-114784090D01*
X125566431Y-114571890D01*
X125595394Y-114428864D01*
X125746484Y-114398810D01*
X125802675Y-114387633D01*
X126089790Y-114195790D01*
X126491140Y-113794440D01*
X127262000Y-113794440D01*
X127497317Y-113750162D01*
X127713441Y-113611090D01*
X127759969Y-113542994D01*
X127902302Y-113685327D01*
X128135691Y-113782000D01*
X128726250Y-113782000D01*
X128885000Y-113623250D01*
X128885000Y-112649000D01*
X129139000Y-112649000D01*
X129139000Y-113623250D01*
X129297750Y-113782000D01*
X129888309Y-113782000D01*
X130121698Y-113685327D01*
X130300327Y-113506699D01*
X130397000Y-113273310D01*
X130397000Y-112807750D01*
X130238250Y-112649000D01*
X129139000Y-112649000D01*
X128885000Y-112649000D01*
X128865000Y-112649000D01*
X128865000Y-112395000D01*
X128885000Y-112395000D01*
X128885000Y-111420750D01*
X129139000Y-111420750D01*
X129139000Y-112395000D01*
X130238250Y-112395000D01*
X130397000Y-112236250D01*
X130397000Y-111770690D01*
X130300327Y-111537301D01*
X130121698Y-111358673D01*
X129888309Y-111262000D01*
X129297750Y-111262000D01*
X129139000Y-111420750D01*
X128885000Y-111420750D01*
X128726250Y-111262000D01*
X128723513Y-111262000D01*
X128767756Y-111217757D01*
X128855549Y-111086365D01*
X128943342Y-110954974D01*
X129005000Y-110645000D01*
X129005000Y-109729884D01*
X129042440Y-109545000D01*
X129042440Y-108195000D01*
X129005000Y-107996024D01*
X129005000Y-107165000D01*
X129164902Y-107165000D01*
X129176326Y-107172633D01*
X129220450Y-107181410D01*
X129373201Y-107244838D01*
X129745167Y-107245162D01*
X130088943Y-107103117D01*
X130352192Y-106840327D01*
X130494838Y-106496799D01*
X130495162Y-106124833D01*
X130353117Y-105781057D01*
X130090327Y-105517808D01*
X129758450Y-105380000D01*
X130303913Y-105380000D01*
X130318838Y-105459317D01*
X130457910Y-105675441D01*
X130670110Y-105820431D01*
X130687000Y-105823851D01*
X130687000Y-106821995D01*
X130686999Y-106822000D01*
X130718585Y-106980790D01*
X130754367Y-107160675D01*
X130906928Y-107389000D01*
X130946210Y-107447790D01*
X131072560Y-107574140D01*
X131072560Y-108345000D01*
X131116838Y-108580317D01*
X131255910Y-108796441D01*
X131468110Y-108941431D01*
X131720000Y-108992440D01*
X133220000Y-108992440D01*
X133455317Y-108948162D01*
X133671441Y-108809090D01*
X133717969Y-108740994D01*
X133860302Y-108883327D01*
X134093691Y-108980000D01*
X134684250Y-108980000D01*
X134843000Y-108821250D01*
X134843000Y-107847000D01*
X135097000Y-107847000D01*
X135097000Y-108821250D01*
X135255750Y-108980000D01*
X135846309Y-108980000D01*
X136079698Y-108883327D01*
X136258327Y-108704699D01*
X136355000Y-108471310D01*
X136355000Y-108005750D01*
X136196250Y-107847000D01*
X135097000Y-107847000D01*
X134843000Y-107847000D01*
X134823000Y-107847000D01*
X134823000Y-107593000D01*
X134843000Y-107593000D01*
X134843000Y-106618750D01*
X135097000Y-106618750D01*
X135097000Y-107593000D01*
X136196250Y-107593000D01*
X136355000Y-107434250D01*
X136355000Y-106968690D01*
X136258327Y-106735301D01*
X136079698Y-106556673D01*
X135846309Y-106460000D01*
X135255750Y-106460000D01*
X135097000Y-106618750D01*
X134843000Y-106618750D01*
X134684250Y-106460000D01*
X134093691Y-106460000D01*
X133860302Y-106556673D01*
X133719064Y-106697910D01*
X133684090Y-106643559D01*
X133471890Y-106498569D01*
X133220000Y-106447560D01*
X132457000Y-106447560D01*
X132457000Y-105827222D01*
X132457317Y-105827162D01*
X132673441Y-105688090D01*
X132818431Y-105475890D01*
X132857290Y-105284000D01*
X133972560Y-105284000D01*
X133972560Y-105370000D01*
X134016838Y-105605317D01*
X134155910Y-105821441D01*
X134368110Y-105966431D01*
X134620000Y-106017440D01*
X136120000Y-106017440D01*
X136355317Y-105973162D01*
X136571441Y-105834090D01*
X136716431Y-105621890D01*
X136723191Y-105588510D01*
X136781673Y-105729699D01*
X136960302Y-105908327D01*
X137193691Y-106005000D01*
X137784250Y-106005000D01*
X137943000Y-105846250D01*
X137943000Y-104847000D01*
X138197000Y-104847000D01*
X138197000Y-105846250D01*
X138355750Y-106005000D01*
X138946309Y-106005000D01*
X139179698Y-105908327D01*
X139358327Y-105729699D01*
X139455000Y-105496310D01*
X139455000Y-105005750D01*
X139296250Y-104847000D01*
X138197000Y-104847000D01*
X137943000Y-104847000D01*
X137923000Y-104847000D01*
X137923000Y-104593000D01*
X137943000Y-104593000D01*
X137943000Y-103593750D01*
X138197000Y-103593750D01*
X138197000Y-104593000D01*
X139296250Y-104593000D01*
X139455000Y-104434250D01*
X139455000Y-103943690D01*
X139358327Y-103710301D01*
X139179698Y-103531673D01*
X138946309Y-103435000D01*
X138355750Y-103435000D01*
X138197000Y-103593750D01*
X137943000Y-103593750D01*
X137784250Y-103435000D01*
X137193691Y-103435000D01*
X136960302Y-103531673D01*
X136781673Y-103710301D01*
X136725346Y-103846287D01*
X136723162Y-103834683D01*
X136584090Y-103618559D01*
X136371890Y-103473569D01*
X136120000Y-103422560D01*
X134620000Y-103422560D01*
X134384683Y-103466838D01*
X134168559Y-103605910D01*
X134128868Y-103664000D01*
X132858150Y-103664000D01*
X132825162Y-103488683D01*
X132686090Y-103272559D01*
X132473890Y-103127569D01*
X132460803Y-103124919D01*
X132673441Y-102988090D01*
X132727481Y-102909000D01*
X133468969Y-102909000D01*
X133557410Y-103046441D01*
X133769610Y-103191431D01*
X134021500Y-103242440D01*
X135418500Y-103242440D01*
X135653817Y-103198162D01*
X135869941Y-103059090D01*
X136014931Y-102846890D01*
X136065940Y-102595000D01*
X136065940Y-101245000D01*
X136021662Y-101009683D01*
X135882590Y-100793559D01*
X135775103Y-100720116D01*
X135869941Y-100659090D01*
X136014931Y-100446890D01*
X136065940Y-100195000D01*
X136065940Y-98845000D01*
X136021662Y-98609683D01*
X135882590Y-98393559D01*
X135855000Y-98374708D01*
X135855000Y-97550000D01*
X135768603Y-97115654D01*
X135628000Y-96905227D01*
X135628000Y-96494975D01*
X135739431Y-96331890D01*
X135790440Y-96080000D01*
X135790440Y-94580000D01*
X135746162Y-94344683D01*
X135607090Y-94128559D01*
X135394890Y-93983569D01*
X135361510Y-93976809D01*
X135502699Y-93918327D01*
X135681327Y-93739698D01*
X135778000Y-93506309D01*
X135778000Y-92915750D01*
X135619250Y-92757000D01*
X134620000Y-92757000D01*
X134620000Y-92777000D01*
X134366000Y-92777000D01*
X134366000Y-92757000D01*
X133366750Y-92757000D01*
X133208000Y-92915750D01*
X133208000Y-93506309D01*
X133304673Y-93739698D01*
X133483301Y-93918327D01*
X133619287Y-93974654D01*
X133607683Y-93976838D01*
X133391559Y-94115910D01*
X133246569Y-94328110D01*
X133195560Y-94580000D01*
X133195560Y-95375861D01*
X132793813Y-95777608D01*
X132815481Y-95668674D01*
X132855001Y-95470000D01*
X132855000Y-95469995D01*
X132855000Y-91753691D01*
X133208000Y-91753691D01*
X133208000Y-92344250D01*
X133366750Y-92503000D01*
X134366000Y-92503000D01*
X134366000Y-91403750D01*
X134620000Y-91403750D01*
X134620000Y-92503000D01*
X135619250Y-92503000D01*
X135778000Y-92344250D01*
X135778000Y-91753691D01*
X135681327Y-91520302D01*
X135502699Y-91341673D01*
X135269310Y-91245000D01*
X134778750Y-91245000D01*
X134620000Y-91403750D01*
X134366000Y-91403750D01*
X134207250Y-91245000D01*
X133716690Y-91245000D01*
X133483301Y-91341673D01*
X133304673Y-91520302D01*
X133208000Y-91753691D01*
X132855000Y-91753691D01*
X132855000Y-90967038D01*
X132955317Y-90948162D01*
X133171441Y-90809090D01*
X133316431Y-90596890D01*
X133367440Y-90345000D01*
X133367440Y-89095000D01*
X133323162Y-88859683D01*
X133289596Y-88807520D01*
X133416431Y-88621890D01*
X133467440Y-88370000D01*
X133467440Y-88155750D01*
X133835000Y-88155750D01*
X133835000Y-89196309D01*
X133931673Y-89429698D01*
X134110301Y-89608327D01*
X134343690Y-89705000D01*
X135434250Y-89705000D01*
X135593000Y-89546250D01*
X135593000Y-87997000D01*
X135847000Y-87997000D01*
X135847000Y-89546250D01*
X136005750Y-89705000D01*
X137096310Y-89705000D01*
X137329699Y-89608327D01*
X137508327Y-89429698D01*
X137605000Y-89196309D01*
X137605000Y-88155750D01*
X137446250Y-87997000D01*
X135847000Y-87997000D01*
X135593000Y-87997000D01*
X133993750Y-87997000D01*
X133835000Y-88155750D01*
X133467440Y-88155750D01*
X133467440Y-87070000D01*
X133423162Y-86834683D01*
X133284090Y-86618559D01*
X133205000Y-86564519D01*
X133205000Y-86543691D01*
X133835000Y-86543691D01*
X133835000Y-87584250D01*
X133993750Y-87743000D01*
X135593000Y-87743000D01*
X135593000Y-86193750D01*
X135847000Y-86193750D01*
X135847000Y-87743000D01*
X137446250Y-87743000D01*
X137605000Y-87584250D01*
X137605000Y-86543691D01*
X137508327Y-86310302D01*
X137329699Y-86131673D01*
X137096310Y-86035000D01*
X136005750Y-86035000D01*
X135847000Y-86193750D01*
X135593000Y-86193750D01*
X135434250Y-86035000D01*
X134343690Y-86035000D01*
X134110301Y-86131673D01*
X133931673Y-86310302D01*
X133835000Y-86543691D01*
X133205000Y-86543691D01*
X133205000Y-85070000D01*
X133118603Y-84635654D01*
X132872566Y-84267434D01*
X132155940Y-83550808D01*
X132155940Y-83075000D01*
X132111662Y-82839683D01*
X131972590Y-82623559D01*
X131865103Y-82550116D01*
X131959941Y-82489090D01*
X131962736Y-82485000D01*
X133822560Y-82485000D01*
X133822560Y-82770000D01*
X133866838Y-83005317D01*
X134005910Y-83221441D01*
X134218110Y-83366431D01*
X134470000Y-83417440D01*
X136970000Y-83417440D01*
X137205317Y-83373162D01*
X137421441Y-83234090D01*
X137566431Y-83021890D01*
X137617440Y-82770000D01*
X137617440Y-80370000D01*
X137573162Y-80134683D01*
X137434090Y-79918559D01*
X137221890Y-79773569D01*
X136980000Y-79724585D01*
X136980000Y-74020005D01*
X136980001Y-74020000D01*
X136884088Y-73537819D01*
X136793458Y-73402181D01*
X136610955Y-73129045D01*
X136610952Y-73129043D01*
X135880000Y-72398090D01*
X135880000Y-71909953D01*
X135969229Y-71873084D01*
X136640726Y-71202758D01*
X137004585Y-70326487D01*
X137005413Y-69377675D01*
X136643084Y-68500771D01*
X135972758Y-67829274D01*
X135096487Y-67465415D01*
X134147675Y-67464587D01*
X133270771Y-67826916D01*
X132599274Y-68497242D01*
X132235415Y-69373513D01*
X132234587Y-70322325D01*
X132596916Y-71199229D01*
X133267242Y-71870726D01*
X133360000Y-71909242D01*
X133360000Y-72919995D01*
X133359999Y-72920000D01*
X133455912Y-73402181D01*
X133729045Y-73810955D01*
X134460000Y-74541909D01*
X134460000Y-79724442D01*
X134234683Y-79766838D01*
X134018559Y-79905910D01*
X133873569Y-80118110D01*
X133853948Y-80215000D01*
X131960063Y-80215000D01*
X131760390Y-80078569D01*
X131508500Y-80027560D01*
X130111500Y-80027560D01*
X129876183Y-80071838D01*
X129660059Y-80210910D01*
X129515069Y-80423110D01*
X129464060Y-80675000D01*
X129464060Y-82025000D01*
X129508338Y-82260317D01*
X129647410Y-82476441D01*
X129754897Y-82549884D01*
X129660059Y-82610910D01*
X129515069Y-82823110D01*
X129464060Y-83075000D01*
X129464060Y-84425000D01*
X129508338Y-84660317D01*
X129647410Y-84876441D01*
X129859610Y-85021431D01*
X130111500Y-85072440D01*
X130467308Y-85072440D01*
X130935000Y-85540132D01*
X130935000Y-86563156D01*
X130868559Y-86605910D01*
X130723569Y-86818110D01*
X130716809Y-86851490D01*
X130658327Y-86710301D01*
X130479698Y-86531673D01*
X130246309Y-86435000D01*
X129655750Y-86435000D01*
X129497000Y-86593750D01*
X129497000Y-87593000D01*
X129517000Y-87593000D01*
X129517000Y-87847000D01*
X129497000Y-87847000D01*
X129497000Y-88846250D01*
X129597000Y-88946250D01*
X129597000Y-89593000D01*
X129617000Y-89593000D01*
X129617000Y-89847000D01*
X129597000Y-89847000D01*
X129597000Y-90821250D01*
X129755750Y-90980000D01*
X130346309Y-90980000D01*
X130579698Y-90883327D01*
X130720936Y-90742090D01*
X130755910Y-90796441D01*
X130968110Y-90941431D01*
X131085000Y-90965102D01*
X131085000Y-94128335D01*
X131013327Y-93955301D01*
X130834698Y-93776673D01*
X130601309Y-93680000D01*
X129985750Y-93680000D01*
X129827000Y-93838750D01*
X129827000Y-94488000D01*
X129847000Y-94488000D01*
X129847000Y-94742000D01*
X129827000Y-94742000D01*
X129827000Y-94762000D01*
X129573000Y-94762000D01*
X129573000Y-94742000D01*
X128448750Y-94742000D01*
X128290000Y-94900750D01*
X128290000Y-95041310D01*
X128379806Y-95258122D01*
X128328569Y-95333110D01*
X128277560Y-95585000D01*
X128277560Y-96185000D01*
X128321838Y-96420317D01*
X128385678Y-96519528D01*
X128328569Y-96603110D01*
X128277560Y-96855000D01*
X128277560Y-97455000D01*
X128321838Y-97690317D01*
X128385678Y-97789528D01*
X128328569Y-97873110D01*
X128277560Y-98125000D01*
X128277560Y-98725000D01*
X128321838Y-98960317D01*
X128460910Y-99176441D01*
X128673110Y-99321431D01*
X128925000Y-99372440D01*
X130320860Y-99372440D01*
X130687000Y-99738579D01*
X130687000Y-100420778D01*
X130686683Y-100420838D01*
X130470559Y-100559910D01*
X130325569Y-100772110D01*
X130274560Y-101024000D01*
X130274560Y-102524000D01*
X130318838Y-102759317D01*
X130457910Y-102975441D01*
X130670110Y-103120431D01*
X130683197Y-103123081D01*
X130470559Y-103259910D01*
X130325569Y-103472110D01*
X130274560Y-103724000D01*
X130274560Y-103760000D01*
X129017038Y-103760000D01*
X128998162Y-103659683D01*
X128859090Y-103443559D01*
X128646890Y-103298569D01*
X128395000Y-103247560D01*
X127995000Y-103247560D01*
X127865411Y-103271944D01*
X127745000Y-103247560D01*
X127345000Y-103247560D01*
X127239295Y-103267450D01*
X127221309Y-103260000D01*
X127153750Y-103260000D01*
X127124746Y-103289004D01*
X127109683Y-103291838D01*
X126893559Y-103430910D01*
X126892610Y-103432299D01*
X126696890Y-103298569D01*
X126669215Y-103292965D01*
X126636250Y-103260000D01*
X126568691Y-103260000D01*
X126548247Y-103268468D01*
X126445000Y-103247560D01*
X126045000Y-103247560D01*
X125809683Y-103291838D01*
X125593559Y-103430910D01*
X125572316Y-103462000D01*
X125320464Y-103462000D01*
X125352192Y-103430327D01*
X125402566Y-103309014D01*
X126220139Y-102491440D01*
X126881000Y-102491440D01*
X127116317Y-102447162D01*
X127332441Y-102308090D01*
X127378969Y-102239994D01*
X127521302Y-102382327D01*
X127754691Y-102479000D01*
X128345250Y-102479000D01*
X128504000Y-102320250D01*
X128504000Y-101346000D01*
X128758000Y-101346000D01*
X128758000Y-102320250D01*
X128916750Y-102479000D01*
X129507309Y-102479000D01*
X129740698Y-102382327D01*
X129919327Y-102203699D01*
X130016000Y-101970310D01*
X130016000Y-101504750D01*
X129857250Y-101346000D01*
X128758000Y-101346000D01*
X128504000Y-101346000D01*
X128484000Y-101346000D01*
X128484000Y-101092000D01*
X128504000Y-101092000D01*
X128504000Y-100117750D01*
X128758000Y-100117750D01*
X128758000Y-101092000D01*
X129857250Y-101092000D01*
X130016000Y-100933250D01*
X130016000Y-100467690D01*
X129919327Y-100234301D01*
X129740698Y-100055673D01*
X129507309Y-99959000D01*
X128916750Y-99959000D01*
X128758000Y-100117750D01*
X128504000Y-100117750D01*
X128345250Y-99959000D01*
X127754691Y-99959000D01*
X127521302Y-100055673D01*
X127380064Y-100196910D01*
X127345090Y-100142559D01*
X127132890Y-99997569D01*
X126881000Y-99946560D01*
X125381000Y-99946560D01*
X125185000Y-99983440D01*
X125185000Y-99351742D01*
X125310317Y-99328162D01*
X125526441Y-99189090D01*
X125671431Y-98976890D01*
X125722440Y-98725000D01*
X125722440Y-98125000D01*
X125678162Y-97889683D01*
X125614322Y-97790472D01*
X125671431Y-97706890D01*
X125722440Y-97455000D01*
X125722440Y-96855000D01*
X125678162Y-96619683D01*
X125614322Y-96520472D01*
X125671431Y-96436890D01*
X125722440Y-96185000D01*
X125722440Y-95585000D01*
X125678162Y-95349683D01*
X125614322Y-95250472D01*
X125671431Y-95166890D01*
X125722440Y-94915000D01*
X125722440Y-94315000D01*
X125698674Y-94188690D01*
X128290000Y-94188690D01*
X128290000Y-94329250D01*
X128448750Y-94488000D01*
X129573000Y-94488000D01*
X129573000Y-93838750D01*
X129414250Y-93680000D01*
X128798691Y-93680000D01*
X128565302Y-93776673D01*
X128386673Y-93955301D01*
X128290000Y-94188690D01*
X125698674Y-94188690D01*
X125678162Y-94079683D01*
X125539090Y-93863559D01*
X125326890Y-93718569D01*
X125075000Y-93667560D01*
X123525000Y-93667560D01*
X123520068Y-93668488D01*
X123355000Y-93503420D01*
X123355000Y-90967038D01*
X123455317Y-90948162D01*
X123671441Y-90809090D01*
X123717969Y-90740994D01*
X123860302Y-90883327D01*
X124093691Y-90980000D01*
X124684250Y-90980000D01*
X124843000Y-90821250D01*
X124843000Y-89847000D01*
X125097000Y-89847000D01*
X125097000Y-90821250D01*
X125255750Y-90980000D01*
X125846309Y-90980000D01*
X126079698Y-90883327D01*
X126258327Y-90704699D01*
X126355000Y-90471310D01*
X126355000Y-90005750D01*
X128085000Y-90005750D01*
X128085000Y-90471310D01*
X128181673Y-90704699D01*
X128360302Y-90883327D01*
X128593691Y-90980000D01*
X129184250Y-90980000D01*
X129343000Y-90821250D01*
X129343000Y-89847000D01*
X128243750Y-89847000D01*
X128085000Y-90005750D01*
X126355000Y-90005750D01*
X126196250Y-89847000D01*
X125097000Y-89847000D01*
X124843000Y-89847000D01*
X124823000Y-89847000D01*
X124823000Y-89593000D01*
X124843000Y-89593000D01*
X124843000Y-88946250D01*
X124943000Y-88846250D01*
X124943000Y-88618750D01*
X125097000Y-88618750D01*
X125097000Y-89593000D01*
X126196250Y-89593000D01*
X126355000Y-89434250D01*
X126355000Y-88968690D01*
X126285975Y-88802050D01*
X126358327Y-88729699D01*
X126455000Y-88496310D01*
X126455000Y-88005750D01*
X127985000Y-88005750D01*
X127985000Y-88496310D01*
X128081673Y-88729699D01*
X128154025Y-88802050D01*
X128085000Y-88968690D01*
X128085000Y-89434250D01*
X128243750Y-89593000D01*
X129343000Y-89593000D01*
X129343000Y-88618750D01*
X129243000Y-88518750D01*
X129243000Y-87847000D01*
X128143750Y-87847000D01*
X127985000Y-88005750D01*
X126455000Y-88005750D01*
X126296250Y-87847000D01*
X125197000Y-87847000D01*
X125197000Y-88518750D01*
X125097000Y-88618750D01*
X124943000Y-88618750D01*
X124943000Y-87847000D01*
X124923000Y-87847000D01*
X124923000Y-87593000D01*
X124943000Y-87593000D01*
X124943000Y-86593750D01*
X125197000Y-86593750D01*
X125197000Y-87593000D01*
X126296250Y-87593000D01*
X126455000Y-87434250D01*
X126455000Y-86943690D01*
X127985000Y-86943690D01*
X127985000Y-87434250D01*
X128143750Y-87593000D01*
X129243000Y-87593000D01*
X129243000Y-86593750D01*
X129084250Y-86435000D01*
X128493691Y-86435000D01*
X128260302Y-86531673D01*
X128081673Y-86710301D01*
X127985000Y-86943690D01*
X126455000Y-86943690D01*
X126358327Y-86710301D01*
X126179698Y-86531673D01*
X125946309Y-86435000D01*
X125355750Y-86435000D01*
X125197000Y-86593750D01*
X124943000Y-86593750D01*
X124784250Y-86435000D01*
X124193691Y-86435000D01*
X123960302Y-86531673D01*
X123781673Y-86710301D01*
X123725346Y-86846287D01*
X123723162Y-86834683D01*
X123584090Y-86618559D01*
X123505000Y-86564519D01*
X123505000Y-85840132D01*
X124272692Y-85072440D01*
X125158500Y-85072440D01*
X125393817Y-85028162D01*
X125609941Y-84889090D01*
X125754931Y-84676890D01*
X125805940Y-84425000D01*
X125805940Y-83075000D01*
X125761662Y-82839683D01*
X125622590Y-82623559D01*
X125515103Y-82550116D01*
X125609941Y-82489090D01*
X125754931Y-82276890D01*
X125805940Y-82025000D01*
X125805940Y-80675000D01*
X125761662Y-80439683D01*
X125622590Y-80223559D01*
X125410390Y-80078569D01*
X125158500Y-80027560D01*
X123761500Y-80027560D01*
X123526183Y-80071838D01*
X123310059Y-80210910D01*
X123307264Y-80215000D01*
X120588275Y-80215000D01*
X120573162Y-80134683D01*
X120434090Y-79918559D01*
X120221890Y-79773569D01*
X119980000Y-79724585D01*
X119980000Y-76624528D01*
X128025077Y-76624528D01*
X128215364Y-76969271D01*
X129096591Y-77320956D01*
X130045323Y-77308641D01*
X130864636Y-76969271D01*
X131054923Y-76624528D01*
X129540000Y-75109605D01*
X128025077Y-76624528D01*
X119980000Y-76624528D01*
X119980000Y-74486591D01*
X127149044Y-74486591D01*
X127161359Y-75435323D01*
X127500729Y-76254636D01*
X127845472Y-76444923D01*
X129360395Y-74930000D01*
X129719605Y-74930000D01*
X131234528Y-76444923D01*
X131579271Y-76254636D01*
X131930956Y-75373409D01*
X131918641Y-74424677D01*
X131579271Y-73605364D01*
X131234528Y-73415077D01*
X129719605Y-74930000D01*
X129360395Y-74930000D01*
X127845472Y-73415077D01*
X127500729Y-73605364D01*
X127149044Y-74486591D01*
X119980000Y-74486591D01*
X119980000Y-73235472D01*
X128025077Y-73235472D01*
X129540000Y-74750395D01*
X131054923Y-73235472D01*
X130864636Y-72890729D01*
X129983409Y-72539044D01*
X129034677Y-72551359D01*
X128215364Y-72890729D01*
X128025077Y-73235472D01*
X119980000Y-73235472D01*
X119980000Y-72182659D01*
X120729229Y-71873084D01*
X121400726Y-71202758D01*
X121764585Y-70326487D01*
X121765413Y-69377675D01*
X121709802Y-69243087D01*
X121864088Y-69012181D01*
X121866344Y-69000840D01*
X121960001Y-68530000D01*
X121960000Y-68529995D01*
X121960000Y-65242325D01*
X122074587Y-65242325D01*
X122436916Y-66119229D01*
X123107242Y-66790726D01*
X123983513Y-67154585D01*
X124932325Y-67155413D01*
X125809229Y-66793084D01*
X126480726Y-66122758D01*
X126707458Y-65576724D01*
X135135882Y-65576724D01*
X135283455Y-65885106D01*
X136038031Y-66178405D01*
X136847409Y-66160614D01*
X137512545Y-65885106D01*
X137660118Y-65576724D01*
X140215882Y-65576724D01*
X140363455Y-65885106D01*
X141118031Y-66178405D01*
X141927409Y-66160614D01*
X142592545Y-65885106D01*
X142740118Y-65576724D01*
X141478000Y-64314605D01*
X140215882Y-65576724D01*
X137660118Y-65576724D01*
X136398000Y-64314605D01*
X135135882Y-65576724D01*
X126707458Y-65576724D01*
X126844585Y-65246487D01*
X126845413Y-64297675D01*
X126629462Y-63775031D01*
X134354595Y-63775031D01*
X134372386Y-64584409D01*
X134647894Y-65249545D01*
X134956276Y-65397118D01*
X136218395Y-64135000D01*
X134956276Y-62872882D01*
X134647894Y-63020455D01*
X134354595Y-63775031D01*
X126629462Y-63775031D01*
X126483084Y-63420771D01*
X125812758Y-62749274D01*
X124936487Y-62385415D01*
X123987675Y-62384587D01*
X123110771Y-62746916D01*
X122439274Y-63417242D01*
X122075415Y-64293513D01*
X122074587Y-65242325D01*
X121960000Y-65242325D01*
X121960000Y-62241910D01*
X124087382Y-60114528D01*
X128025077Y-60114528D01*
X128215364Y-60459271D01*
X129096591Y-60810956D01*
X130045323Y-60798641D01*
X130774216Y-60496724D01*
X135135882Y-60496724D01*
X135283455Y-60805106D01*
X136038031Y-61098405D01*
X136847409Y-61080614D01*
X136969048Y-61030230D01*
X136903354Y-61188438D01*
X136902648Y-61998011D01*
X136976397Y-62176496D01*
X136757969Y-62091595D01*
X135948591Y-62109386D01*
X135283455Y-62384894D01*
X135135882Y-62693276D01*
X136398000Y-63955395D01*
X136412143Y-63941253D01*
X136591748Y-64120858D01*
X136577605Y-64135000D01*
X137839724Y-65397118D01*
X138148106Y-65249545D01*
X138441405Y-64494969D01*
X138423614Y-63685591D01*
X138373230Y-63563952D01*
X138531438Y-63629646D01*
X139341011Y-63630352D01*
X139519496Y-63556603D01*
X139434595Y-63775031D01*
X139452386Y-64584409D01*
X139727894Y-65249545D01*
X140036276Y-65397118D01*
X141298395Y-64135000D01*
X141657605Y-64135000D01*
X142919724Y-65397118D01*
X143228106Y-65249545D01*
X143521405Y-64494969D01*
X143503614Y-63685591D01*
X143228106Y-63020455D01*
X142919724Y-62872882D01*
X141657605Y-64135000D01*
X141298395Y-64135000D01*
X141284253Y-64120858D01*
X141463858Y-63941252D01*
X141478000Y-63955395D01*
X142740118Y-62693276D01*
X142592545Y-62384894D01*
X141837969Y-62091595D01*
X141028591Y-62109386D01*
X140906952Y-62159770D01*
X140972646Y-62001562D01*
X140973352Y-61191989D01*
X140899603Y-61013504D01*
X141118031Y-61098405D01*
X141927409Y-61080614D01*
X142592545Y-60805106D01*
X142740118Y-60496724D01*
X141478000Y-59234605D01*
X141463858Y-59248748D01*
X141284252Y-59069142D01*
X141298395Y-59055000D01*
X141657605Y-59055000D01*
X142919724Y-60317118D01*
X143228106Y-60169545D01*
X143521405Y-59414969D01*
X143503614Y-58605591D01*
X143228106Y-57940455D01*
X142919724Y-57792882D01*
X141657605Y-59055000D01*
X141298395Y-59055000D01*
X140036276Y-57792882D01*
X139727894Y-57940455D01*
X139434595Y-58695031D01*
X139452386Y-59504409D01*
X139502770Y-59626048D01*
X139344562Y-59560354D01*
X138534989Y-59559648D01*
X138356504Y-59633397D01*
X138441405Y-59414969D01*
X138423614Y-58605591D01*
X138148106Y-57940455D01*
X137839724Y-57792882D01*
X136577605Y-59055000D01*
X136591748Y-59069143D01*
X136412142Y-59248748D01*
X136398000Y-59234605D01*
X135135882Y-60496724D01*
X130774216Y-60496724D01*
X130864636Y-60459271D01*
X131054923Y-60114528D01*
X129540000Y-58599605D01*
X128025077Y-60114528D01*
X124087382Y-60114528D01*
X125350955Y-58850955D01*
X125624088Y-58442181D01*
X125716700Y-57976591D01*
X127149044Y-57976591D01*
X127161359Y-58925323D01*
X127500729Y-59744636D01*
X127845472Y-59934923D01*
X129360395Y-58420000D01*
X129719605Y-58420000D01*
X131234528Y-59934923D01*
X131579271Y-59744636D01*
X131930956Y-58863409D01*
X131928771Y-58695031D01*
X134354595Y-58695031D01*
X134372386Y-59504409D01*
X134647894Y-60169545D01*
X134956276Y-60317118D01*
X136218395Y-59055000D01*
X134956276Y-57792882D01*
X134647894Y-57940455D01*
X134354595Y-58695031D01*
X131928771Y-58695031D01*
X131918641Y-57914677D01*
X131793797Y-57613276D01*
X135135882Y-57613276D01*
X136398000Y-58875395D01*
X137660118Y-57613276D01*
X140215882Y-57613276D01*
X141478000Y-58875395D01*
X142740118Y-57613276D01*
X142592545Y-57304894D01*
X141837969Y-57011595D01*
X141028591Y-57029386D01*
X140363455Y-57304894D01*
X140215882Y-57613276D01*
X137660118Y-57613276D01*
X137512545Y-57304894D01*
X136757969Y-57011595D01*
X135948591Y-57029386D01*
X135283455Y-57304894D01*
X135135882Y-57613276D01*
X131793797Y-57613276D01*
X131579271Y-57095364D01*
X131234528Y-56905077D01*
X129719605Y-58420000D01*
X129360395Y-58420000D01*
X127845472Y-56905077D01*
X127500729Y-57095364D01*
X127149044Y-57976591D01*
X125716700Y-57976591D01*
X125720001Y-57960000D01*
X125720000Y-57959995D01*
X125720000Y-56725472D01*
X128025077Y-56725472D01*
X129540000Y-58240395D01*
X131054923Y-56725472D01*
X130864636Y-56380729D01*
X129983409Y-56029044D01*
X129034677Y-56041359D01*
X128215364Y-56380729D01*
X128025077Y-56725472D01*
X125720000Y-56725472D01*
X125720000Y-53812325D01*
X132234587Y-53812325D01*
X132596916Y-54689229D01*
X133267242Y-55360726D01*
X134143513Y-55724585D01*
X135092325Y-55725413D01*
X135969229Y-55363084D01*
X136640726Y-54692758D01*
X137004585Y-53816487D01*
X137005413Y-52867675D01*
X136643084Y-51990771D01*
X135972758Y-51319274D01*
X135096487Y-50955415D01*
X134147675Y-50954587D01*
X133270771Y-51316916D01*
X132599274Y-51987242D01*
X132235415Y-52863513D01*
X132234587Y-53812325D01*
X125720000Y-53812325D01*
X125720000Y-50319953D01*
X125809229Y-50283084D01*
X126480726Y-49612758D01*
X126844585Y-48736487D01*
X126845413Y-47787675D01*
X126483084Y-46910771D01*
X125812758Y-46239274D01*
X124936487Y-45875415D01*
X123987675Y-45874587D01*
X123110771Y-46236916D01*
X122439274Y-46907242D01*
X122075415Y-47783513D01*
X122074587Y-48732325D01*
X122436916Y-49609229D01*
X123107242Y-50280726D01*
X123200000Y-50319242D01*
X123200000Y-57438090D01*
X119809045Y-60829045D01*
X119535912Y-61237819D01*
X119439999Y-61720000D01*
X119440000Y-61720005D01*
X119440000Y-62874741D01*
X119170724Y-62745882D01*
X117908605Y-64008000D01*
X119170724Y-65270118D01*
X119440000Y-65141259D01*
X119440000Y-67465052D01*
X118907675Y-67464587D01*
X118030771Y-67826916D01*
X117359274Y-68497242D01*
X116995415Y-69373513D01*
X116994587Y-70322325D01*
X117356916Y-71199229D01*
X117460000Y-71302493D01*
X117460000Y-79724442D01*
X117234683Y-79766838D01*
X117018559Y-79905910D01*
X116873569Y-80118110D01*
X116822560Y-80370000D01*
X116822560Y-82770000D01*
X116866838Y-83005317D01*
X117005910Y-83221441D01*
X117218110Y-83366431D01*
X117470000Y-83417440D01*
X119970000Y-83417440D01*
X120205317Y-83373162D01*
X120421441Y-83234090D01*
X120566431Y-83021890D01*
X120617440Y-82770000D01*
X120617440Y-82485000D01*
X123309937Y-82485000D01*
X123404897Y-82549884D01*
X123310059Y-82610910D01*
X123165069Y-82823110D01*
X123127821Y-83007047D01*
X121567434Y-84567434D01*
X121321397Y-84935654D01*
X121235000Y-85370000D01*
X121235000Y-86563156D01*
X121168559Y-86605910D01*
X121023569Y-86818110D01*
X120972560Y-87070000D01*
X120972560Y-88370000D01*
X121016838Y-88605317D01*
X121147405Y-88808224D01*
X121123569Y-88843110D01*
X121072560Y-89095000D01*
X121072560Y-90345000D01*
X121116838Y-90580317D01*
X121255910Y-90796441D01*
X121468110Y-90941431D01*
X121585000Y-90965102D01*
X121585000Y-93869995D01*
X121584999Y-93870000D01*
X121607590Y-93983569D01*
X121652367Y-94208675D01*
X121743244Y-94344683D01*
X121844210Y-94495790D01*
X122348421Y-95000000D01*
X120677440Y-95000000D01*
X120677440Y-94580000D01*
X120633162Y-94344683D01*
X120494090Y-94128559D01*
X120281890Y-93983569D01*
X120248510Y-93976809D01*
X120389699Y-93918327D01*
X120568327Y-93739698D01*
X120665000Y-93506309D01*
X120665000Y-92915750D01*
X120506250Y-92757000D01*
X119507000Y-92757000D01*
X119507000Y-92777000D01*
X119253000Y-92777000D01*
X119253000Y-92757000D01*
X118253750Y-92757000D01*
X118095000Y-92915750D01*
X118095000Y-93506309D01*
X118191673Y-93739698D01*
X118370301Y-93918327D01*
X118506287Y-93974654D01*
X118494683Y-93976838D01*
X118278559Y-94115910D01*
X118133569Y-94328110D01*
X118082560Y-94580000D01*
X118082560Y-96080000D01*
X118126838Y-96315317D01*
X118245000Y-96498946D01*
X118245000Y-97060000D01*
X118331397Y-97494346D01*
X118453893Y-97677674D01*
X118577434Y-97862566D01*
X118585000Y-97870132D01*
X118585000Y-98371296D01*
X118570059Y-98380910D01*
X118425069Y-98593110D01*
X118374060Y-98845000D01*
X118374060Y-100195000D01*
X118418338Y-100430317D01*
X118557410Y-100646441D01*
X118664897Y-100719884D01*
X118570059Y-100780910D01*
X118425069Y-100993110D01*
X118374060Y-101245000D01*
X118374060Y-102595000D01*
X118418338Y-102830317D01*
X118557410Y-103046441D01*
X118769610Y-103191431D01*
X119021500Y-103242440D01*
X120418500Y-103242440D01*
X120653817Y-103198162D01*
X120869941Y-103059090D01*
X121014931Y-102846890D01*
X121023414Y-102805000D01*
X121158956Y-102805000D01*
X121186910Y-102848441D01*
X121399110Y-102993431D01*
X121412197Y-102996081D01*
X121199559Y-103132910D01*
X121054569Y-103345110D01*
X121003560Y-103597000D01*
X121003560Y-103835000D01*
X120423222Y-103835000D01*
X120423162Y-103834683D01*
X120284090Y-103618559D01*
X120071890Y-103473569D01*
X119820000Y-103422560D01*
X118320000Y-103422560D01*
X118084683Y-103466838D01*
X117868559Y-103605910D01*
X117723569Y-103818110D01*
X117716809Y-103851490D01*
X117658327Y-103710301D01*
X117479698Y-103531673D01*
X117246309Y-103435000D01*
X116655750Y-103435000D01*
X116497000Y-103593750D01*
X116243000Y-103593750D01*
X116084250Y-103435000D01*
X115493691Y-103435000D01*
X115260302Y-103531673D01*
X115081673Y-103710301D01*
X114985000Y-103943690D01*
X109430000Y-103943690D01*
X109430000Y-91753691D01*
X118095000Y-91753691D01*
X118095000Y-92344250D01*
X118253750Y-92503000D01*
X119253000Y-92503000D01*
X119253000Y-91403750D01*
X119507000Y-91403750D01*
X119507000Y-92503000D01*
X120506250Y-92503000D01*
X120665000Y-92344250D01*
X120665000Y-91753691D01*
X120568327Y-91520302D01*
X120389699Y-91341673D01*
X120156310Y-91245000D01*
X119665750Y-91245000D01*
X119507000Y-91403750D01*
X119253000Y-91403750D01*
X119094250Y-91245000D01*
X118603690Y-91245000D01*
X118370301Y-91341673D01*
X118191673Y-91520302D01*
X118095000Y-91753691D01*
X109430000Y-91753691D01*
X109430000Y-88155750D01*
X116835000Y-88155750D01*
X116835000Y-89196309D01*
X116931673Y-89429698D01*
X117110301Y-89608327D01*
X117343690Y-89705000D01*
X118434250Y-89705000D01*
X118593000Y-89546250D01*
X118593000Y-87997000D01*
X118847000Y-87997000D01*
X118847000Y-89546250D01*
X119005750Y-89705000D01*
X120096310Y-89705000D01*
X120329699Y-89608327D01*
X120508327Y-89429698D01*
X120605000Y-89196309D01*
X120605000Y-88155750D01*
X120446250Y-87997000D01*
X118847000Y-87997000D01*
X118593000Y-87997000D01*
X116993750Y-87997000D01*
X116835000Y-88155750D01*
X109430000Y-88155750D01*
X109430000Y-86543691D01*
X116835000Y-86543691D01*
X116835000Y-87584250D01*
X116993750Y-87743000D01*
X118593000Y-87743000D01*
X118593000Y-86193750D01*
X118847000Y-86193750D01*
X118847000Y-87743000D01*
X120446250Y-87743000D01*
X120605000Y-87584250D01*
X120605000Y-86543691D01*
X120508327Y-86310302D01*
X120329699Y-86131673D01*
X120096310Y-86035000D01*
X119005750Y-86035000D01*
X118847000Y-86193750D01*
X118593000Y-86193750D01*
X118434250Y-86035000D01*
X117343690Y-86035000D01*
X117110301Y-86131673D01*
X116931673Y-86310302D01*
X116835000Y-86543691D01*
X109430000Y-86543691D01*
X109430000Y-65449724D01*
X111386882Y-65449724D01*
X111534455Y-65758106D01*
X112289031Y-66051405D01*
X113098409Y-66033614D01*
X113763545Y-65758106D01*
X113911118Y-65449724D01*
X116466882Y-65449724D01*
X116614455Y-65758106D01*
X117369031Y-66051405D01*
X118178409Y-66033614D01*
X118843545Y-65758106D01*
X118991118Y-65449724D01*
X117729000Y-64187605D01*
X116466882Y-65449724D01*
X113911118Y-65449724D01*
X112649000Y-64187605D01*
X111386882Y-65449724D01*
X109430000Y-65449724D01*
X109430000Y-63648031D01*
X110605595Y-63648031D01*
X110623386Y-64457409D01*
X110898894Y-65122545D01*
X111207276Y-65270118D01*
X112469395Y-64008000D01*
X111207276Y-62745882D01*
X110898894Y-62893455D01*
X110605595Y-63648031D01*
X109430000Y-63648031D01*
X109430000Y-60369724D01*
X111386882Y-60369724D01*
X111534455Y-60678106D01*
X112289031Y-60971405D01*
X113098409Y-60953614D01*
X113220048Y-60903230D01*
X113154354Y-61061438D01*
X113153648Y-61871011D01*
X113227397Y-62049496D01*
X113008969Y-61964595D01*
X112199591Y-61982386D01*
X111534455Y-62257894D01*
X111386882Y-62566276D01*
X112649000Y-63828395D01*
X112663143Y-63814253D01*
X112842748Y-63993858D01*
X112828605Y-64008000D01*
X114090724Y-65270118D01*
X114399106Y-65122545D01*
X114692405Y-64367969D01*
X114674614Y-63558591D01*
X114624230Y-63436952D01*
X114782438Y-63502646D01*
X115592011Y-63503352D01*
X115770496Y-63429603D01*
X115685595Y-63648031D01*
X115703386Y-64457409D01*
X115978894Y-65122545D01*
X116287276Y-65270118D01*
X117549395Y-64008000D01*
X117535253Y-63993858D01*
X117714858Y-63814252D01*
X117729000Y-63828395D01*
X118991118Y-62566276D01*
X118843545Y-62257894D01*
X118088969Y-61964595D01*
X117279591Y-61982386D01*
X117157952Y-62032770D01*
X117223646Y-61874562D01*
X117224352Y-61064989D01*
X117150603Y-60886504D01*
X117369031Y-60971405D01*
X118178409Y-60953614D01*
X118843545Y-60678106D01*
X118991118Y-60369724D01*
X117729000Y-59107605D01*
X117714858Y-59121748D01*
X117535252Y-58942142D01*
X117549395Y-58928000D01*
X117908605Y-58928000D01*
X119170724Y-60190118D01*
X119479106Y-60042545D01*
X119772405Y-59287969D01*
X119754614Y-58478591D01*
X119479106Y-57813455D01*
X119170724Y-57665882D01*
X117908605Y-58928000D01*
X117549395Y-58928000D01*
X116287276Y-57665882D01*
X115978894Y-57813455D01*
X115685595Y-58568031D01*
X115703386Y-59377409D01*
X115753770Y-59499048D01*
X115595562Y-59433354D01*
X114785989Y-59432648D01*
X114607504Y-59506397D01*
X114692405Y-59287969D01*
X114674614Y-58478591D01*
X114399106Y-57813455D01*
X114090724Y-57665882D01*
X112828605Y-58928000D01*
X112842748Y-58942143D01*
X112663142Y-59121748D01*
X112649000Y-59107605D01*
X111386882Y-60369724D01*
X109430000Y-60369724D01*
X109430000Y-58568031D01*
X110605595Y-58568031D01*
X110623386Y-59377409D01*
X110898894Y-60042545D01*
X111207276Y-60190118D01*
X112469395Y-58928000D01*
X111207276Y-57665882D01*
X110898894Y-57813455D01*
X110605595Y-58568031D01*
X109430000Y-58568031D01*
X109430000Y-57486276D01*
X111386882Y-57486276D01*
X112649000Y-58748395D01*
X113911118Y-57486276D01*
X116466882Y-57486276D01*
X117729000Y-58748395D01*
X118991118Y-57486276D01*
X118843545Y-57177894D01*
X118088969Y-56884595D01*
X117279591Y-56902386D01*
X116614455Y-57177894D01*
X116466882Y-57486276D01*
X113911118Y-57486276D01*
X113763545Y-57177894D01*
X113008969Y-56884595D01*
X112199591Y-56902386D01*
X111534455Y-57177894D01*
X111386882Y-57486276D01*
X109430000Y-57486276D01*
X109430000Y-53812325D01*
X116994587Y-53812325D01*
X117356916Y-54689229D01*
X118027242Y-55360726D01*
X118903513Y-55724585D01*
X119852325Y-55725413D01*
X120729229Y-55363084D01*
X121400726Y-54692758D01*
X121764585Y-53816487D01*
X121765413Y-52867675D01*
X121403084Y-51990771D01*
X120732758Y-51319274D01*
X119856487Y-50955415D01*
X118907675Y-50954587D01*
X118030771Y-51316916D01*
X117359274Y-51987242D01*
X116995415Y-52863513D01*
X116994587Y-53812325D01*
X109430000Y-53812325D01*
X109430000Y-44430000D01*
X145010000Y-44430000D01*
X145010000Y-117010000D01*
M02*
